<?xml version="1.0" encoding="UTF-8"?><svg xmlns="http://www.w3.org/2000/svg" viewBox="0 0 770.76 199.55"><defs><style>.uuid-4894ad20-66ec-4915-83c5-af0294907342{stroke:#231f20;stroke-miterlimit:10;}.uuid-4894ad20-66ec-4915-83c5-af0294907342,.uuid-da8a87e6-58b5-4de4-b589-05f13010cfcc{fill:#fff;}.uuid-7d2789a6-e7e6-4bdb-a776-8fde26c29618{fill:#87c1e9;}.uuid-7d2789a6-e7e6-4bdb-a776-8fde26c29618,.uuid-cc609f0b-0ccd-41ab-b898-583b9ed99a09,.uuid-035e8b54-ebe5-41a5-8200-f7a7569626a9,.uuid-da8a87e6-58b5-4de4-b589-05f13010cfcc{fill-rule:evenodd;}.uuid-cc609f0b-0ccd-41ab-b898-583b9ed99a09{fill:#464a55;}.uuid-035e8b54-ebe5-41a5-8200-f7a7569626a9{fill:#163c6c;}</style></defs><g id="uuid-3e812049-f074-47f8-9254-5df6f57074f8"><path class="uuid-4894ad20-66ec-4915-83c5-af0294907342" d="M9.91,14.17C37.5,7.02,65.49,1.39,94.11,1.39s56.61,5.64,84.2,12.79l8.13,2.11v62.71c0,58.26-34.01,100.53-89.18,117.24l-3.15,.95-3.15-.95C35.79,179.52,1.78,137.25,1.78,78.99V16.28l8.13-2.11h0Z"/></g><g id="uuid-efde91de-054c-49e7-b412-a980d876b138"><g><path class="uuid-035e8b54-ebe5-41a5-8200-f7a7569626a9" d="M8.28,13.03C36.4,5.75,64.93,0,94.09,0s57.69,5.75,85.81,13.03l8.28,2.15v63.91c0,59.37-34.66,102.45-90.88,119.49l-3.21,.97-3.21-.97C34.66,181.54,0,138.47,0,79.09V15.18l8.28-2.15h0Zm.57,2.19l-6.59,1.71v62.16c0,58.37,34.01,100.58,89.28,117.32l2.55,.77,2.55-.77c55.27-16.75,89.28-58.95,89.28-117.32V16.93l-6.59-1.71C151.37,7.97,123.1,2.26,94.09,2.26S36.82,7.97,8.85,15.22Z"/><path class="uuid-035e8b54-ebe5-41a5-8200-f7a7569626a9" d="M50.31,15.06l-.27,.05c.04-.13,.09-.23,.14-.29,.04,.04,.08,.12,.13,.24Z"/><path class="uuid-035e8b54-ebe5-41a5-8200-f7a7569626a9" d="M9.61,18.14c27.77-7.2,55.68-12.87,84.48-12.87s56.71,5.67,84.48,12.87l4.33,1.12v59.83c0,56.98-33.08,98.05-87.14,114.44l-1.68,.51-1.68-.51C38.35,177.15,5.27,136.08,5.27,79.09V19.26l4.33-1.12h0Zm105.57,118.2c-10.05,0-18.19,.14-18.19,.31s8.14,.31,18.19,.31,18.19-.14,18.19-.31-8.14-.31-18.19-.31h0Zm42.6,7.91c.68-.97,1.34-1.95,1.98-2.94-3.69,.03-7.4,.05-7.01-.05,.77-.19,6.21-.42,5.09-.51-1.12-.1-18.32-.19-16.82-.54,1.32-.31,17.29-.27,19.69-.39l.04-.07c-2.43-.19-14.52-.31-13.13-.47,1.41-.16,14.35-.1,13.1-.29-1.25-.19-30.79-.8-29.02-1.02,1.76-.22,29.25-.58,27.61-.77-1.63-.19-16.63-.19-15.47-.32,1.15-.13,7.78-.29,6.82-.42-.96-.13-15.81-.33-13.87-.67,1.9-.34,19.92-.14,21.86-.24l-.05-.04c-1-.1-6.03-.27-9.54-.39h-2.26c-2.41,.06-5.28,.1-8.37,.1-.7,0-1.39,0-2.07,0v.12s-.07-.12-.07-.12c-7.46-.04-13.19-.3-13.19-.62s5.4-.56,12.53-.62l-1.27-2.37-6.51-5.87-9.53,2.46-2.3-.79-12.98,3.02,13.14-6.19,2.82,1.23,9.41-2.46,2.62-.16,5.12-4.49-1.55-1.07,5.72-1.51,1.75-2.46h-6.03l-4.05,4.29h-4.05l-6.35,3.41,2.06-5-12.15,3.1,12.38-5.08,6.83,1.59,3.73-4.29-7.22-.71-9.13,3.81,5.72-4.84-6.59-.4-4.37,3.1,6.35-1.43-7.54,3.18,2.3,1.03-8.42,5.95-2.14-.56-10.56,4.84,6.99-5.79-1.59-5.32-9.53,5.95,6.19-1.51s-5.56,3.97-8.65,5c-3.1,1.03-3.89,.99-3.89,.99l.28-2.18-2.28,1.55c.06,.03,.13,.04,.14,.15,0,.17-.13,.25,0,.3,.13,.04,.55-.13,.32,.09-.24,.22-.52,.6-.34,.79,.17,.19,1.42,.15,1.01,.4-.41,.25-.94,.53-.9,.63,.01,.03,.06,.06,.1,.08l4.34-.89s2.54,2.22,3.57,2.14c1.03-.08,4.76-1.19,6.19-.4,1.2,.67,7.28,5.37,9.19,6.86,6.93,.12,11.31,.28,11.31,.47,0,.29-10.51,.54-24.75,.61,.02,.01,.04,.04,.05,.08,0,.09-.04,.14-.04,.17h0s0,0,0,0c0,0,.02,.02,.03,.02,.09,.03,.37-.09,.21,.06-.06,.06-.13,.13-.18,.2,0,.12,.01,.25,.02,.37,.24,.08,.85,.08,.61,.23-.2,.12-.45,.26-.56,.35l.02,.14c.06,.03,.14,.06,.07,.15l-.04,.04,.03,.17c.19,.03,.55-.03,.42,.12-.08,.09-.23,.25-.33,.37l.04,.2c.28-.03,.93-.15,.78,.05-.18,.24-.63,.74-.45,.78,.18,.04,.66-.18,.61,0-.06,.17-.09,.19,.21,.2,.29,0,.65-.12,.47,.07-.13,.13-.47,.29-.72,.45h1.72s0-.01,0-.01c-.01-.05-.5-.16-.27-.17,.24-.01,.46,0,.4-.05-.06-.06-.19-.05-.1-.09,.09-.03,.15,0,.14-.07-.01-.06-.23-.16-.14-.19,.09-.03,.23-.01,.22-.09,0-.07-.08-.1-.05-.13,.03-.03,.07-.07,.07-.07,0,0-.04-.11-.05-.11-.01,0,.04-.21,.14-.3,0,0,.16,.33,.15,.36-.01,.03-.04,.04-.02,.08,.02,.04,.07,.02,.07,.07,0,.05-.04,.08,0,.09,.04,.01,.17-.04,.1,.03-.07,.07-.16,.18-.11,.24,.05,.06,.43,.05,.31,.12-.12,.08-.29,.16-.27,.19,.01,.03,.09,.04,.07,.08,3.07-.02,6.39-.03,9.84-.03,16.04,0,29.05,.19,29.05,.43s-13.01,.43-29.05,.43c-3.28,0-6.44,0-9.38-.02-.02,.05-.01,.06,.1,.07,.13,0,.29-.05,.21,.03-.08,.09-.37,.2-.45,.3-.08,.1-.12,.12-.23,.13-.12,.01-.3-.03-.18,.04,.12,.07,.28,.14,.5,.08,.22-.06,.37-.14,.33-.08-.04,.06-.2,.24-.31,.31-.11,.07-.39,.13-.18,.18,.21,.05,.42,.05,.37,.08-.05,.03-.2,.01-.14,.12,.06,.11,.38,.13,.25,.2-.12,.08-.56,.05-.5,.22,.07,.17,.33,.15,.47,.17,.14,.01,.18,.12,.18,.12,0,0-.06,.02-.1,.05,.5,.17,1.6,.68,2.1,.91,.08,.04,.16,.08,.24,.11h0s.01,0,.01,0h0c.12,.05,.26,.11,.39,.16,1.68-.02,3.45-.03,5.27-.03,11.25,0,20.36,.39,20.36,.86s-8.81,.85-19.79,.86h-.08c-1.44,.13-7.8-.09-7.9,.54-.1,.63,.68,.88-.25,1.16-.58,.17-5.97-.02-10.14,.21h-23.27c-.38-.57-1.16-1.34-1.88-1.34s-1.35,.78-1.64,1.38c-.36,.01-.77,.06-1.11,.17-.28,.09-.5,.34-.47,.64l-.24,2.2-.78-13.93c-.01-.36-.14-1.22-.63-1.22s-.6,.91-.61,1.27l-.35,10.83c-.18-.06-.36-.12-.54-.16-.18-.05-.35-1.83-1.08-1.83-.62,0-.94,1.34-1.01,1.86h-3.06c-.29-.68-.95-1.27-1.72-1.27-.82,0-1.53,.73-1.86,1.43-.37,.05-.74,.09-1.12,.14-.26,.03-.44,.29-.47,.54l-.2,2.4-.79-14.13c-.04-.32-.21-1.17-.62-1.17s-.6,.87-.64,1.19c-.06,1.83-.11,3.65-.17,5.48-.04,1.25-.08,2.49-.11,3.73-.02,.57-.05,1.17-.05,1.74-.06,0-.47-.17-.61-.22-.1-.5-.43-1.81-1.03-1.81s-.93,1.35-1.03,1.86h-5.61l.57,.76h1.55c1.27,0,2.62,.05,3.88,0,.53-.02,.49-1.63,.65-1.8,.08,.08,.31,1.17,.41,1.39,.11,.24,.59,.3,.81,.41,.19,.09,.14,.7,.49,.94,.26,.18,.51,.02,.63-.22h0s.27-10.79,.27-10.79c0-.04,0-.25,.05-.27,.03,.03,.02,.19,.02,.24l.76,15.26c.04,.25,.19,.84,.54,.74,.29-.08,.44-.5,.47-.77,.08-.76,.16-1.53,.23-2.29,.07-.69,.21-1.6,.21-2.28,0-.12,.04-.29,.2-.26,.31-.02,.65-.06,.94-.1,.38-.06,1.13-1.41,1.65-1.41s.78,.6,1.03,.95c.14,.2,.4,.34,.64,.36h3.39c.47,0,.55-1.64,.7-1.76,.09,0,.29,1.05,.34,1.18,.13,.39,.44,.43,.78,.5,.24,.04,.5,1.17,.82,1.15,.2-.01,.35-.19,.4-.38,.04-1.91,.07-3.8,.11-5.7,.01-.51,.08-4.42,.18-5.43,.07,.6,.14,2.12,.16,2.37,.1,1.8,.19,3.59,.28,5.39,.13,2.67,.24,5.34,.36,8.01,.07,.26,.25,.56,.54,.56s.43-.32,.47-.57c.15-1.64,.29-3.29,.47-4.92,.02-.19,.93-.17,1.11-.2,.43-.07,.98-1.42,1.51-1.42,.48,0,.97,.61,1.22,.98,.12,.18,.41,.28,.63,.28h18.85l-.08,.03c8.05,.14,13.91,.57,13.91,1.08,0,1.32-25.66,.87-25.66,2.01,0,1.01,18.94,.69,18.94,1.84,0,.56-7.11,1.02-16.41,1.11-1.38,.19-2.98,.38-4.81,.54-.87,.08-1.63,.17-2.31,.26,7.62,.15,21.08,.31,19.25,.58-2.47,.35-19.79,.94-27.19,1.35-7.4,.41-10.1,.35-7.75,.59,2.35,.24,29.47,.32,26.13,.59-3.3,.26-24.31,.28-32.85,.29,.54,.54,1.08,1.07,1.63,1.59,4.24-.13,10.34-.24,17.12-.29,12.82-.11,23.21,0,23.2,.25,0,.25-10.39,.54-23.21,.65-6.44,.06-12.27,.06-16.47,0,7.01,6.58,15.06,12.35,24.1,17.22,3.03-.08,6.75-.13,10.77-.13,10.17,0,18.42,.31,18.42,.68s-8.25,.69-18.42,.69c-3.09,0-6.01-.03-8.57-.08,3.51,1.8,7.16,3.47,10.95,5.01,3.28-.11,7.64-.18,12.43-.18s9.51,.07,12.82,.2c1.71-.69,3.39-1.41,5.04-2.16-1.68,.02-3.47,.02-5.32,.02-10.18,0-18.42-.25-18.42-.57s8.25-.56,18.42-.56c2.71,0,5.28,.02,7.6,.05,2.27-1.08,4.49-2.21,6.65-3.39-2.11,.03-3.83,0-4.03-.15-.53-.41,2.7-.59,2.88-1.12,.18-.53-4.23-.23-6.75-.65-2.53-.41,10.86-.47,12.27-.88,1.41-.41-14.45-.59-16.8-.88-1.68-.21,11.45-.24,19.06-.24,.63-.4,1.26-.81,1.88-1.22-4.59,0-9.25,.02-10.9,.05-3.64,.06-11.57-.12-12.69-.65-1.12-.53,11.51-.65,13.92-1.23,2.41-.59-17.15,.53-20.09-.29-2.94-.82,20.5-.7,22.02-1.12,1.53-.41-14.62-.41-15.45-.82-.82-.41,16.18-.18,18.23-.62,2.06-.44-19.06-.26-21.11-1.2-2.05-.94,19.85-.82,21.2-1.23,1.35-.41-5.58-.29-7.28-.88-1.7-.59,18.44-.65,19.91-.94,1.47-.29-17.79,0-20.09-.7-2.12-.65,20.43-.45,25.83-.83l.3-.27c-5.14-.36-34.03-.37-36.05-.89-2.29-.59,21.85-.88,23.2-1.23,1.35-.35-5.64-.41-7.11-.7-1.47-.29,20.67-.35,23.37-.65,.11-.01,.19-.02,.24-.04l.05-.05c-.51-.29-13.97-.72-15.09-1.09-.78-.26,8.86-.12,16.14,.01,.32-.33,.63-.66,.94-.99-10.54-.12-25.98-.32-27.47-.55-1.59-.24,17.13-.66,28.79-.89,.43-.48,.86-.96,1.28-1.45-8.78-.02-15.64-.2-15.64-.43s7.25-.42,16.38-.43c.22-.26,.43-.52,.65-.77-2.55,.04-5.52,.06-8.68,.06-9.6,0-17.38-.19-17.38-.43s7.78-.43,17.38-.43c3.41,0,6.6,.02,9.29,.07,.51-.63,1.02-1.26,1.51-1.9-5.77-.07-9.74-.22-9.74-.39s4.25-.33,10.34-.39c.66-.87,1.31-1.75,1.94-2.64-3.16-.08-5.12-.19-5.12-.3,0-.13,2.14-.24,5.56-.32h0Zm-69.81-4.08s.05,.09,.09,.12l-.08-.12h0Zm3.08,.03v.04c.19,.04,.39,.04,.63-.02h.05s-.68-.02-.68-.02h0Zm1.23,0c-.15,.18-.38,.41-.56,.52-.13,.08-.36,.15-.49,.22,.03,.06,.06,.12,.09,.18,.46,.11,.93,.1,.82,.17-.12,.07-.45,.03-.31,.27,.12,.21,.66,.27,.62,.4,.16-.02,.49-.05,.42-.11-.08-.08-.32-.29-.21-.29,.1,0,.38,0,.32-.11-.06-.11-.36-.47-.29-.47s.27,.1,.25,0c-.02-.09-.35-.49-.19-.41,.17,.08,.46,.17,.37,.06-.08-.11-.41-.33-.25-.33s.28,.06,.28-.07c0-.01,0-.02,0-.03h-.87Zm42.72-64.63l1.18,23.69h11.27l2.54-4.21,7.78-4.76v-2.54h1.31v2.5h2.98l.83-1.07,3.33,.52v-3.25h1.63v3.33h7.62v-2.58h.95v2.98h.23c.3-3.63,.45-7.32,.45-11.09V23.74C111.91,6.83,76.27,6.83,11.06,23.74v55.35c0,17.81,3.38,34.1,9.86,48.49,0-.08,.02-.15,.03-.2,.1-.49,1.23-.72,1.72-.75,.5-.03,.05-.74,.08-2.04,.03-1.3,.21-.42,1.11-.85,.63-.3,1.16-.52,1.61-.95-.48-.73-.78-1.29-.49-1.29s.77,.16,1.22,.28c.38-.64,.39-.7,.47-1.13,0-.04,.02-.09,.02-.14-.87-1.34-2.3-3.24-1.16-2.69,.48,.23,1.08,.47,1.64,.66,.07-.16,.14-.33,.23-.5,.17-.33,.33-.52,.51-.65-1.06-.96-2.28-2.01-1.27-2.01,1.41,0,2.53,.55,2.53-.61s-2.22-2.2-1.37-2.56c.52-.22,.92-.22,1.15-.33,.01-.28,.03-.58,.05-.88-.27-.43-.71-.78,.03-1.09l.12-.05c.33-.75,1.3-.98,2.09-1.1-.01-.32-.25-.58,.16-.86,.53-.37,.88-.34,.76-.79-.13-.46-4.62-1.5-2.43-1.59,2.2-.09,4.22,.09,3.64-.46-.58-.55-1.77-.49-.93-.79,.31-.11,.58-.16,.8-.19,.1-.19,.24-.39,.39-.57-.38-.53-1.94-1.34-1.19-1.62,.6-.22,1.41-.19,1.8-.42-.12-.44-.24-.9-.2-1.19-.12-.14-.19-.25-.06-.38,.29-.29,.66-.59,.66-.59,0,0-.38-.98-.49-1.01-.11-.03,.4-1.88,1.27-2.79,0,0,1.49,3.05,1.36,3.32-.08,.17-.21,.28-.26,.42l1.21,.05s-.33,.49-.55,.84c0,.02,0,.05,0,.07,.01,.23-.06,.39-.11,.52,.06,.08,.16,.17,.27,.33,.45,0,1.31-.31,.73,.22-.1,.09-.2,.19-.3,.3,.04,.04,.1,.1,.19,.21,.37,.46,.35,.83,.3,1.51-.01,.16-.04,.34-.07,.52,1.11,.19,2.54,.3,1.75,.78-.36,.22-.76,.45-1.14,.67l.09,.04c.78,.36,.52,1.46,.52,1.46,0,0,.7-.32,1.2-.32,.5,0,.07,.72,.22,1.28,.15,.57,.27,1.07,.1,1.68-.07,.26-.19,.51-.31,.78,1.49,.07,2.6,.43,2.6-.62,0-1.16-2.69-2.2-1.65-2.56,1.04-.37,1.68-.12,1.65-.76-.03-.64-1.34-1.13-.15-1.52,1.19-.4,2.29-.4,2.59-.85,.31-.46-.37-.79,.28-1.16,.64-.37,1.07-.34,.91-.79-.15-.46-5.58-1.49-2.93-1.59,1.16-.04,2.27-.03,3.11-.05,.34-.1,.78-.21,1.16-.5-.73-.46-1.95-.42-1-.71,1.01-.3,1.68-.09,1.53-.61-.15-.52-2.53-1.46-1.53-1.77,.41-.12,.9-.17,1.33-.23-.03-.2-.04-.42-.05-.65-.06-1.86,.64-1.26,1.3-1.83h0c-.13-.28-.42-.85-.53-.88-.13-.03,.42-1.67,1.35-2.62,.25-1.91,.44-4.22,.56-5.88,.19-2.81,.76,5.5,.95,8.13,.22,.45,.37,.82,.32,.9-.09,.17-.25,.28-.32,.41l-.03,.13c0,.05,.02,.11,.07,.18,.21,.34,.73,.15,.76,.64,.03,.49-.43,.7,0,.82,.43,.12,1.86-.37,1.07,.24-.79,.61-1.74,1.68-1.16,2.2,.58,.52,4.79,.43,3.42,1.13-1.37,.7-3.17,1.46-3.02,1.77,.15,.31,1.19,.34,.67,.85-.52,.52-1.13,.58-.37,.82,.76,.24,3.14-.12,2.41,.55-.27,.25-.71,.62-1.11,1,.27,.34,.48,.73,.49,.84,0,.09,.06,.23,.13,.42,1.53-.16,3.54-.38,2.91,.29-.87,.93-2.89,2.84-2.34,3.16,.13,.02,.27,.04,.4,.06,1.03-.02,2.98-.68,2.73-.05-.27,.7-.44,.79,1.02,.82,1.46,.03,3.25-.49,2.33,.29-.92,.78-4.09,1.8-4.99,2.75-.72,.76-1.12,1.01-1.92,1.13-.09,.38-.27,.82-.54,1.27,.97,.21,2.11,.26,3.42-.04,2.42-.55,4.13-1.28,3.69-.76-.14,.17-.42,.45-.78,.79,.12,.7,.1,2.92,.2,3.25,.15,.47,.16,.75,.23,1.13,.07,.38-.4,1.4-.48,1.64-.06,.17,0,.34,.17,.63,.72,.25,1.17,.47,.53,.79-.06,.03-.12,.06-.19,.08-.06,.69-.61,1.75-.76,2.54-.07,.36-.02,.65,.09,.87,.2,0,.39,.02,.56,.03,.15,.01,.29,.03,.42,.06,0-.21-.05-.5-.08-.89-.06-.87,.21-.82,.37-.87,.16-.05,.9-1.42,1.18-2.27,.28-.85,.32,1.63,.41,2.16,.09,.53-.03,.43-.12,.83-.09,.4-.24,.76,.08,1.52,.32,.77-.17,.61-.33,1.19-.16,.58-.17,.64,.46,.99,.06,.04,.11,.07,.15,.09h.02c.31-.14,.5-.05,.49-.28,0-.23-.4-.4-.05-.55,.34-.14,.66-.14,.76-.29l-.2-.37c-.14-.26-.09-.44,.07-.58-.42-.15-.88-.31-.38-.33,.45-.02,.88,0,1.13-.03,.07-.03,.14-.06,.21-.09,0-.01-.02-.03-.03-.05-.21-.2-.63-.18-.34-.28,.3-.11,.5-.03,.45-.22-.05-.19-.75-.52-.45-.63,.3-.11,.75-.05,.72-.29-.02-.25-.28-.31-.17-.42,.1-.1,.24-.21,.24-.21,0,0-.14-.35-.18-.36-.04-.01,.15-.67,.45-1,0,0,.15,.31,.29,.62,.15-.73,.29-1.7,.39-2.65,.13-1.21,.2,2.32,.22,3.99,.11-.02,.19-.02,.06,.1l-.06,.05v.66s.02,.07,.05,.18c.4,.07,.97,.11,.68,.29-.16,.1-.34,.2-.5,.3,.04,.11,.09,.21,.15,.3,.15,.26,.02,.46-.15,.67,.27,0,.57,0,.41,.16-.22,.24-.78,.8-.59,.85,.07,.02,.32-.02,.58-.05-.14-.24-.2-.4,.03-.29,.54,.26,1.5,.55,1.23,.2-.27-.35-1.34-1.09-.83-1.09s.91,.2,.91-.22-.8-.79-.49-.92c.31-.13,.5-.04,.49-.27,0-.23-.4-.4-.05-.55,.35-.14,.68-.14,.77-.31,.09-.16-.11-.28,.08-.42,.19-.13,.32-.12,.27-.28-.05-.16-1.66-.54-.87-.57,.79-.03,1.51,.03,1.3-.16-.21-.2-.63-.17-.33-.28,.3-.11,.5-.03,.45-.22-.05-.19-.75-.52-.45-.63,.25-.09,.61-.06,.7-.2v-.19c-.07-.17-.24-.23-.15-.32,.05-.05,.12-.11,.16-.15v-.22c-.03-.1-.08-.2-.1-.21-.03,0,.04-.28,.17-.56,.06-.6,.14-1.17,.25-1.55,.22-.78,.39,.91,.39,1.88,.09,.21,.15,.39,.14,.43-.05,.1-.14,.14-.08,.26,.06,.12,.22,.05,.23,.23,0,.17-.13,.25,0,.3,.13,.04,.55-.13,.32,.09-.09,.08-.18,.18-.25,.28,.1,.22,.22,.44,.33,.63,.39,.06,.87,.11,.59,.27-.11,.07-.22,.13-.33,.2,.08,.15,.15,.27,.17,.34,.06,.2-.19,.48-.41,.73,.29,.01,.65-.02,.49,.16-.22,.24-.78,.8-.59,.85,.19,.04,1.58-.28,1.31,.07-.13,.17-.35,.42-.51,.65l.11,.18,5.79-4.64,.03-.25,.02,.21,2.12-1.7,3.41,.56,12.54-8.49h12.35l2.86-3.3h1.55l1.79-1.47h1.51l.08-4.73h7.92l.08-1.03h-8l6.19-2.08h1.98l1.99-24.48c-.09-.26-.17-.62-.14-.87,.02-.16,.1-.37,.21-.53v-.91l-.2-.27v-.65c-.19-.08-.35-.25-.42-.44l-.02-.06v-.42c-.07-.09-.13-.21-.17-.31l-.02-.05v-.08c0-.67,.04-1.35,.04-2.02,0-.39,.38-.78,.7-1.02,.16-.58,.32-1.16,.46-1.75,.1-.43,.38-.93,.79-1.14,0-.14,0-.29-.02-.36-.26-.46-.13-.88,.22-1.27,.31-.34,1-.55,1.53-.66-.03-.09-.07-.17-.09-.31-.05-.37,.13-.54,.37-.77-.02,.02-.03-.02-.03-.05l.12-1.44h.65s.03,.32,.03,.32c.03,.34,.01,.73,.07,1.06,.02,.14,.04,.14,.13,.26,.24,.3,.19,.66,.06,.99,0,0,0,.02,0,.03,.29,.1,.58,.22,.85,.33,.48,.2,.99,.7,1.04,1.24,.02,.21-.08,.39-.24,.5v.6s.06,.05,.09,.07c.19,.15,.36,.38,.48,.59l.04,.07v1.89c.15,.1,.3,.22,.43,.32,.25,.2,.54,.54,.69,.83l.04,.07v2.14c0,.21-.11,.41-.26,.56,0,.1,0,.2-.02,.3-.02,.25-.23,.43-.45,.55v.48l-.11,.17-.03,.91c.1,.18,.14,.41,.14,.59,0,.24-.05,.52-.15,.76h0Zm1.68,33.55h2.61v-4.96h-2.7v3.12l.09,1.84h0Zm-.49-9.84h1.37v-.02h-1.37v.02h0Zm33.99,21.09c.82-2.25,1.57-4.55,2.25-6.88-1.86,.09-4.7,.21-6.76,.26-3.33,.08-8.53,4.13-8.53,4.13l1.99-3.06-5.2-1.79s-5.6-.08-6.31-.04c-.71,.04,3.73,7.34,3.73,7.34,0,0,5.32,1.67,7.15,2.3,1.83,.63,3.29-1.35,5.6-2.5,2.3-1.15,3.85,1.51,3.85,1.51l2.25-1.28h0Zm3.22-10.46c.59-2.33,1.12-4.7,1.57-7.11l-2.28-2.66,.04,6.95-1.91,.04v3.41l1.35-.64h1.23Zm-89.15,74.73c3.18,1.21,6.46,2.33,9.84,3.35,3.38-1.03,6.67-2.15,9.87-3.36-2.9,.07-6.36,.11-10.08,.11-3.53,0-6.82-.04-9.62-.1h0Zm52.15-50.69c.66,0,1.34,0,2.03,0,1.53,0,3.02,0,4.41,.03l.24-1.35-3.02-3.33-2.46-.08-2.14-1.67,3.26,.56,3.02-3.57-9.21,2.78,3.97,3.65-.09,3h0Zm-46.61,1.24h-2.2s-.03,.04-.03,.04l-.04,.28c.27-.02,.96-.16,.8,.04-.18,.24-.63,.74-.45,.78,.18,.04,.66-.18,.61,0-.05,.17-.09,.19,.21,.2,.27,0,.59-.1,.51,.03,.33,0,.54,0,.44-.1-.14-.13-.43-.12-.23-.19,.2-.07,.34-.02,.31-.15-.03-.13-.51-.36-.31-.43,.2-.07,.51-.03,.49-.2-.02-.17-.19-.21-.12-.28h0Zm-1.89-1.23c2.61,0,5.12,.02,7.48,.04l-2.04-4.37-3.33-.08,1.03,3.97-8.02-6.51-1.95,.84-.04,.1c.45-.05,1.28-.2,1.07,.08-.22,.28-.68,.81-.72,1.04l.25,.11c.32-.04,.77-.21,.7,0-.08,.25-.13,.28,.3,.29,.43,.01,.96-.17,.69,.1-.27,.28-1.21,.64-1.48,.98l-.02,.02,.03,.02c.21,.11-.13,.83-.13,.83l.06,.05c.11-.01,.22-.03,.34-.07,.72-.2,1.23-.46,1.1-.27-.12,.17-.57,.7-.94,.96-.15,.22-.58,.54-.58,.54l.13,.17c.6,.12,1.14,.11,.99,.21-.17,.11-.67,.04-.46,.39,.17,.29,.9,.39,.92,.56h2.78c-.07-.02-.09-.03,.01-.07,.09-.03,.17-.04,.22-.05,0-.06,.01-.13,.01-.19-.13-.12-.39-.28-.24-.34,.07-.03,.16-.04,.24-.05,0-.35-.03-.64-.03-.64l.21,.6s.07-.05,.07-.11c-.02-.17-.19-.21-.12-.28s.16-.14,.16-.14c0,0-.09-.24-.12-.24-.03,0,.1-.46,.31-.68,0,0,.36,.74,.33,.81-.03,.07-.1,.1-.06,.18,.04,.08,.15,.04,.15,.16,0,.12-.09,.17,0,.2,.09,.03,.37-.09,.21,.06-.16,.15-.35,.41-.23,.53,.12,.13,.95,.1,.69,.27h0Zm-2.51,1.24h-2.41s.28,.16,.28,.16c.11,.03,.19,.08,.25,.14l.16,.09c.41,.23,.27,.55,.14,.92,.1,.04,.18,.08,.19,.11,.02,.09,.32,.72,.32,.72,0,0-.35-.06-.61-.1,.07,.42,.34,.35,.77,.28-.16-.24-.26-.43-.07-.34,.21,.1,.5,.2,.69,.23,.06-.02,.11-.05,.16-.09h0c-.18-.25-.91-.75-.56-.75s.61,.13,.61-.15-.54-.53-.33-.62c.21-.09,.34-.03,.33-.19,0-.16-.27-.27-.03-.37,.05-.02,.1-.04,.14-.05h0Zm-10.43-.01h-.11s.01,.02,.01,.02h.01s.05,0,.09-.02h0Zm.5-1.23h.59c-.14-.17-.2-.3-.05-.31,.34-.02,1.25,0,1.05-.35-.2-.35-1.19-1.55-.94-1.55s.89,.32,.81,.02c-.07-.31-1.16-1.6-.62-1.33,.5,.24,1.37,.51,1.27,.26l-.06-.04,.02-.02h0c-.27-.35-1.34-1.09-.83-1.09s.91,.2,.91-.22c0-.14-.09-.28-.2-.4h-2.81c-.02,.13-.03,.23-.03,.31,.64-.19,1.07-.4,.95-.23-.11,.15-.48,.59-.82,.87-.08,.25-.19,.61-.26,.85,.46,.07,.79,.08,.67,.16-.17,.11-.67,.04-.46,.39,.21,.35,1.23,.43,.83,.67-.17,.11-.54,.15-.89,.21l-.25,.93c.34,.11,.77,.09,1.05,.12,.46,.04,.58,.4,.58,.4,0,0-.34,.14-.42,.22-.07,.08-.15,.11-.08,.14h0Zm3.39-9l-3.43,2.32c.23-.03,.36-.03,.19,.14h-.01s2.81-.57,2.81-.57h0c.19-.14,.32-.12,.27-.29-.05-.16-1.66-.54-.87-.57,.79-.03,1.51,.03,1.3-.16-.21-.2-.63-.18-.34-.28,.3-.11,.5-.03,.45-.22-.02-.1-.24-.25-.39-.38h0Zm13.59,17.15l.05-.04s-.05-.03-.09-.06c-.02,.01-.05,.02-.08,.04h.01s.11,.07,.11,.07h0Zm-3.93-4.33c-.04-.06-.04-.12,.08-.16,.24-.1,.46-.1,.52-.21,.06-.11-.07-.19,.06-.28,.13-.09,.21-.08,.18-.19-.01-.05-.22-.12-.41-.19-.27,.16-.65,.34-.78,.51-.18,.23-.26,.27-.52,.29-.04,.08-.09,.16-.13,.24,.23,.09,.5,.13,.84,.04l.16-.05h0Zm.1,1.06v-.05c0-.16-.17-.31-.28-.42-.28,.14-.77,.26-.34,.37,.23,.06,.46,.08,.62,.1h0Zm-19.68-9.68c-.14,.18-.27,.36-.33,.5,.29,.07,.65,.21,.6-.02-.02-.09-.13-.27-.27-.47h0Zm-4.13,.82c-.02-.23-.26-.44-.42-.61-.03,.06-.08,.14-.13,.24,.28,.09,.5,.19,.52,.28,0,.02,.02,.05,.03,.09h0Zm-23.62-18.23c-.35,.43-.73,.92-1.03,1.35,1.05,.32,2.15,.57,2.67,.54,.03-.23,.03-.41,.03-.58-.39-.37-1.06-.85-1.68-1.31h0Zm19.95,3.84c-.73,.67-1.68,1.44-2.43,1.83-1.25,.64-4.33,1.16-2.01,1.65,1.26,.26,2.54,.37,3.35,.46,.08-.09,.17-.18,.26-.28,.77-.87,.4-1.79,.84-3.65h0Zm-1.59,4.5c-.4,.11-.64,.31-.29,.8l.04,.05c-.04-.33,.06-.58,.26-.85h0Zm-.29,3.23c-1.6,.22-3.14,.52-2.71,1.46,.37,.79,1.27,1.14,2.28,1.3,.02-.21,0-.54,0-1.01,.02-.57,.19-1.23,.42-1.75h0Zm108.35,2.93l-3.25-1.11s-10,4.13-10.4,3.65c-.4-.48-7.7-3.81-7.7-3.81,0,0,6.03,6.19,6.67,6.19s5.48,.16,6.03,.87c.56,.71,3.25,3.08,3.25,3.08,0,0,4.53-6.73,5.4-8.87h0Zm4.33-27.11l-2.54-2.24h-2.42v3.63h1.98l2.98,4.88v-6.27h0Zm-6.69-2.26h-3.57v3.77h3.57v-3.77h0Zm-4.98,.04l-2.55,.04-3.29,3.81h5.85v-3.85h0Zm8.15-1.21l-4.96-5.32-4.64,5.2,9.61,.12h0Zm1.47,11.43l-14.13,.12v3.29h1.87l3.57,2.5h5l3.69-2.1v-3.81h0Zm-14.91,.12l-3.93-7.11h-3.47l1.64,.44-1.23,1.91,1.03-.04-1.71,3.02v1.31l3.22-5.48,.48,.91-2.66,4.37v2.74l2.1,1.29h4.53v-3.35h0Zm-11.28-3.1h-2.7v4.96h2.7v-4.96h0Zm2.82,0h-1.15v4.96h1.15v-4.96h0Zm18.38,4.05h-3.06v3.41h3.06v-3.41h0Zm-.83-16.7h-1.43v2.94h1.43v-2.94h0Zm-39.47,11.83h-1.29v2.65h1.29v-2.65h0Zm-3.49,0h-1.29v2.65h1.29v-2.65h0Zm14.88,5.8l-1.48-33.69s.19-.32,.15-.6c-.04-.28-.12-.37-.12-.37l.03-1.23v-.83l-.11-.09-.47-.31c-.1-.06-.22-.12-.34-.19h0s-.47-.21-.47-.21c-.18-.07-.37-.14-.58-.19l-.47-.1c-.19-.03-.39-.05-.6-.05h0v1.82s-.61-.01-.99,0c-.38,.01-.52,.1-.52,.1,0,0,.76-.02,1.03,.01,.27,.03,.46,.03,.46,.03v.28s.68,0,1.52,.26c.84,.27,1.36,.72,1.42,.85,.06,.13,.05,.25,.05,.25,0,0-.16-.39-.87-.7-.7-.31-1.22-.38-1.56-.39-.49-.02-.85,.03-1.34,.07-.84,.07-1.67,.6-1.67,.6,.67-.47,2.74-.48,3.52-.31,.51,.11,.73,.32,.73,.32,0,0-.82-.24-1.26-.24s-.55,.02-.55,.02l-.76,34.83,5.25,.06h0Zm-1.42-36.93v-.83s-.03-.04-.11-.11v.87l.11,.07h0Zm-.58-.37v-.93c-.1-.06-.21-.12-.34-.18v.94c.11,.05,.23,.11,.34,.18h0Zm-.82-.38v-.91l-.14-.04c-.16-.04-.3-.07-.44-.1v.87c.18,.05,.37,.11,.58,.18h0Zm-1.05-.28v-.82c-.42-.01-.6,.08-.6,.08v.69h0s.23-.01,.6,.05h0Zm-2.4,2.28s0-.5-.02-.8c-.01-.3-.13-.69-.46-.61-.33,.08-.36,.63-.36,.63v1.05s.17-.05,.39-.12c.22-.07,.46-.15,.46-.15h0Zm3.58,17.22l-1.26-.1,.02,1.55,1.22,.06,.02-1.51h0Zm.01,1.7l-1.34-.05-.03-.26-.28,.35,1.57,.08,.08-.12h0Zm.03,13.81l-1.07-.04v1.53s1.07,0,1.07,0v-1.51h0Zm.77-36.92v-1.12s-.21-.15-.57-.29v.93s-1.08-.3-1.08-.3v-.9c-.38-.05-.69-.08-.91-.1v1.11s1.67,.12,2.56,.67h0Zm-2.53-3.21h.01s0,0,0,0h.01s0,0,0,0h0s0,0,0,0h.01s0,0,0,0h.01s0,0,0,0h.01s0,0,0,0c.1,0,.25,.02,.44,.04,.32,.03,.53,.15,.53,.15,0,0-.41-.05-.64-.06-.23,0-.42,0-.42,0v1.18c.21,.01,.54,.04,.91,.1v-.5s1.07,.4,1.07,.4v.36c.28,.09,.46,.18,.56,.23v-1.15s-.56-.7-1.22-.91c-.66-.21-1.34-.19-1.34-.19v.25c-.13-.01-.33-.01-.6,0-.67,.03-1.25,.48-1.25,.48,0,0,.52-.25,1-.33,.36-.06,.71-.06,.87-.05h0Zm3.56,4.22s-.47-.72-1.75-1.11c-1.28-.39-1.83-.37-1.83-.37v.24s2.36,.13,3.58,1.25h0Zm-3.57-1.08v.26s1.05-.02,2.15,.39c1.09,.41,1.33,.85,1.33,.85,0,0-.14-1.08-3.48-1.5h0Zm2.82-.84v.98l.84,.66v-.71s.06-.28-.84-.93h0Zm-5.11-.56c-.28,.06-.6,.21-.6,.21l-.33,1.35,.93-.4v-1.16h0Zm.01-.23v-.29s-.21-.13-.26-.13,0-.42,0-.42l-.27,1.02,.53-.17h0Zm4.92-1.46s-.14-.18-.25-.27c-.11-.09-.16-.13-.16-.13v.46s.23,.28,.31,.36c.08,.08,.08,.1,.08,.1l.03-.53h0Zm-.61-1.81c.01-.3-.46-.52-.46-.52v1.28s.5,.28,.46,.28,0-1.05,0-1.05h0Zm-.02,1.15c-.85-.51-1.49-.54-1.49-.54v.6s.14,0,.66,.13c.52,.12,.82,.35,.82,.35v-.54h.01Zm-1.64-.55l-.37-.02v.61l.37,.03v-.62h0Zm1.04,.11v-1.29s-.2-.12-.66-.19c-.47-.06-.74-.02-.74-.02l-.02,1.23s.86-.03,1.42,.27h0Zm-3.18,.16c-.65,.21-.66,1.06-.66,1.06,0,0,.03-.1,.24-.28,.21-.18,.42-.21,.42-.21v-.58h0Zm3.14,8.28s.24,.08,.46,.15c.22,.07,.39,.12,.39,.12v-1.05s-.03-.55-.36-.63c-.33-.08-.45,.31-.46,.61-.01,.3-.02,.8-.02,.8Z"/><path class="uuid-da8a87e6-58b5-4de4-b589-05f13010cfcc" d="M77.6,153.51c-15.13,.66-27.38,1.43-27.37,1.73,0,.3,12.28,0,27.41-.66,15.13-.66,27.38-1.43,27.37-1.73-.01-.3-12.28,0-27.41,.66Z"/><path class="uuid-7d2789a6-e7e6-4bdb-a776-8fde26c29618" d="M94.73,54.18s50.03,.68,50.03,0-2.76-1.21-4.84-1.21-3.94-.04-3.94-.04c0,0-.19-1.29-1.82-1.59-1.63-.3-2.99,.19-2.99,.19,0,0,.15-.99-.42-1.4-.57-.42-1.44-.3-1.44-.3,0,0,.23-1.93-1.82-3.22-2.04-1.29-5.6,.76-5.6,.76,0,0-.6-6.77-8.1-6.77s-7.91,7.61-7.91,7.61c0,0-.57-1.63-3.29-1.1-2.72,.53-2.04,2.95-2.04,2.95,0,0-5.6-.23-5.83,4.13h0ZM12.04,95.33l-.03-.25-.03-.25-.03-.25-.03-.25-.03-.25-.03-.25-.03-.25-.03-.25-.03-.25-.02-.14v-.1s-.01-.04-.01-.04l-.05-.49v-.05s-.02-.17-.02-.17l-.02-.25-.02-.25-.02-.25h0s-.02-.25-.02-.25l-.04-.43v-.07s-.01-.05-.01-.05l-.02-.2-.02-.25-.02-.25v-.1s-.02-.15-.02-.15l-.04-.5v-.15s-.02-.1-.02-.1l-.02-.25-.03-.39v-.06s0-.05,0-.05v-.03s-.03-.48-.03-.48l-.02-.25h0s0-.05,0-.05l-.04-.71v-.05s-.01-.21-.01-.21l-.02-.47v-.04s0-.1,0-.1v-.16s-.03-.51-.03-.51v-.15s-.01-.1-.01-.1v-.26s-.02-.26-.02-.26v-.2s0-.05,0-.05v-.26s-.02-.49-.02-.49v-.02s0,0,0,0v-.02s-.01-.49-.01-.49v-.26s0-.05,0-.05v-.21s0-.26,0-.26v-.26s0-.1,0-.1v-.16s0-.52,0-.52v-.15s0-.1,0-.1v-.26s0-.39,0-.39v-.08s0-.05,0-.05v-.06s0-.72,0-.72v-18.47h.2v12.77c.51,.09,1.07,.15,1.68,.15,7.26,0,7.84-6.56,7.84-6.56,0,0,3.44,1.98,5.42,.73,1.98-1.25,1.76-3.12,1.76-3.12,0,0,.84,.11,1.39-.29,.55-.4,.4-1.36,.4-1.36,0,0,1.32,.48,2.9,.18,1.58-.29,1.76-1.54,1.76-1.54,0,0,1.8-.04,3.81-.04,1.54,0,3.47-.3,4.29-.74,18.9,.05,34.11-.09,34.11-.63,0-1.44-5.85-2.56-10.26-2.56s-8.34-.08-8.34-.08c0,0-.4-2.73-3.85-3.37-3.45-.64-6.33,.4-6.33,.4,0,0,.32-2.09-.88-2.97-1.2-.88-3.05-.64-3.05-.64,0,0,.48-4.09-3.85-6.82-4.33-2.73-11.86,1.6-11.86,1.6,0,0-1.28-14.35-17.15-14.35v-7.67h.05s.05-.02,.05-.02h.05s.05-.02,.05-.02c.92-.24,1.84-.47,2.75-.71h.05s.05-.03,.05-.03h.05s.04-.02,.04-.02h.05s.05-.02,.05-.02c.86-.22,1.72-.44,2.57-.65h.05s.04-.02,.04-.02h.05s.1-.04,.1-.04h.04s.04-.02,.04-.02h.04s.09-.03,.09-.03h.04c.9-.24,1.8-.46,2.69-.68h.04s.04-.02,.04-.02h.04s.04-.02,.04-.02c.85-.21,1.7-.41,2.54-.62l.09-.02h.04s.19-.05,.19-.05h.04s.04-.02,.04-.02h.04s.04-.02,.04-.02h.04s.04-.02,.04-.02h.04s.04-.02,.04-.02h.04s.04-.02,.04-.02l1.38-.33h.04s.04-.02,.04-.02h.04s.04-.02,.04-.02h.04s.04-.02,.04-.02h.04s.04-.02,.04-.02h.04s.04-.02,.04-.02h.04s.37-.1,.37-.1l1.8-.42h.02s1.09-.26,1.09-.26h.03s.03-.01,.03-.01h.03s.03-.01,.03-.01h.03s.03-.01,.03-.01h0s.05-.01,.05-.01h.03s.05-.02,.05-.02h.03s.03-.01,.03-.01h.03s.03-.01,.03-.01h.03s.03-.01,.03-.01h.03s.03-.01,.03-.01h.03s.03-.01,.03-.01h.03s.03-.01,.03-.01h.03s.03-.01,.03-.01h.03s.03-.01,.03-.01h.03s.03-.01,.03-.01h.03s.03-.01,.03-.01h.03s.03-.01,.03-.01h.03s.03-.01,.03-.01h.03s.03-.01,.03-.01h.03s.03-.01,.03-.01h.03s.03-.01,.03-.01h.03s.03-.01,.03-.01h.03s.03-.01,.03-.01h.03s.03-.01,.03-.01h.03s.03-.01,.03-.01h.03s.03-.01,.03-.01h.03s.03-.01,.03-.01h.03s.03-.01,.03-.01h.03s.03-.01,.03-.01h.03s.03-.01,.03-.01h.03s.03-.01,.03-.01h.03s.03-.01,.03-.01h.03s1.01-.23,1.01-.23h.04s1.52-.34,1.52-.34h.02s1.24-.28,1.24-.28l1.29-.28h.06s1.34-.3,1.34-.3h.04s1.42-.3,1.42-.3l1.22-.25h.03s1.41-.29,1.41-.29l1.23-.24,1.44-.28h.06s1.08-.22,1.08-.22l1.49-.28h.02s1.12-.21,1.12-.21h.02s.02,0,.02,0h.02s.02,0,.02,0l.67-.12h.03s.02,0,.02,0h.02s.05-.01,.05-.01h.02s.02,0,.02,0h.02s.02,0,.02,0h.02s.02,0,.02,0h.02s.02,0,.02,0h.02s.02,0,.02,0h.03s.02,0,.02,0h.02s.02,0,.02,0h.02s.02,0,.02,0h.02s.02,0,.02,0h.02s.03,0,.03,0h.02s.02,0,.02,0h.02s.02,0,.02,0h.02s.02,0,.02,0h.02s.02,0,.02,0l.9-.16h.03s.03,0,.03,0h.03s1.15-.2,1.15-.2h.03s.05-.01,.05-.01h.03s.03,0,.03,0h.03s.03,0,.03,0h.03s.03,0,.03,0h.03s.03,0,.03,0h.03s.03,0,.03,0h.03s.03,0,.03,0h.03s.98-.17,.98-.17h.02s.02,0,.02,0h.02s.02,0,.02,0h.02s.02,0,.02,0h.02s.02,0,.02,0l.59-.1h.02s.14-.03,.14-.03h.02s.02,0,.02,0h.02s.02,0,.02,0h.07s.02-.01,.02-.01h.02s.02,0,.02,0h.02s.02,0,.02,0h.02s.02,0,.02,0h.02s.02,0,.02,0h.02s.02,0,.02,0h.02s.02,0,.02,0h.02s.02,0,.02,0h.02s.02,0,.02,0l.98-.16h.02s.05-.01,.05-.01h.02s1.1-.17,1.1-.17h.02s.02,0,.02,0h.02s.02,0,.02,0h.03s.02,0,.02,0h.02s.03,0,.03,0h.02s.05-.01,.05-.01h.03s.02,0,.02,0h.02s.02,0,.02,0h.02s.91-.14,.91-.14h.02s.02,0,.02,0h.02s.02,0,.02,0h.02s.02,0,.02,0h.02s.97-.15,.97-.15h.02s.05-.01,.05-.01h.02s.02,0,.02,0h.02s.02,0,.02,0h.02s.02,0,.02,0h.02s.02,0,.02,0h.02s.02,0,.02,0h.02s.02,0,.02,0h.02s.02,0,.02,0l.92-.13h.02s.02,0,.02,0h.02s1-.14,1-.14h.02s.09-.02,.09-.02h.02s.02,0,.02,0h.02s.02,0,.02,0h.02s.02,0,.02,0h.02s.02,0,.02,0h.02s.02,0,.02,0h.02s.02,0,.02,0h.02s1.01-.14,1.01-.14l1.5-.19,.89-.11h.02s.02,0,.02,0h.02s.02,0,.02,0h.02s.02,0,.02,0h.02s.89-.11,.89-.11h.02s.02,0,.02,0h.02s.02,0,.02,0h.03s.02,0,.02,0h.02s.02,0,.02,0h.02s.02,0,.02,0h.02s.02,0,.02,0h.02s.02,0,.02,0h.02s.02,0,.02,0h.02s.02,0,.02,0h.02s.02,0,.02,0h.02s.86-.1,.86-.1h.02s.02,0,.02,0h.02s.02,0,.02,0h.02s.02,0,.02,0h.02s1.2-.13,1.2-.13h.02s.02,0,.02,0h.02s.02,0,.02,0h.02s.02,0,.02,0h.02s.91-.1,.91-.1h.02s.02,0,.02,0h.02s.02,0,.02,0h.02s1.13-.12,1.13-.12h.02s.02,0,.02,0h.02s.02,0,.02,0h.02s.02,0,.02,0h.02s.02,0,.02,0h.02s.99-.1,.99-.1h.02s.02,0,.02,0h.02s.02,0,.02,0l1.18-.11h.02s.02,0,.02,0h.02s.02,0,.02,0h.02s1.01-.09,1.01-.09h.02s.02,0,.02,0h.02s.02,0,.02,0h.02s.02,0,.02,0h.02s.02,0,.02,0h.02s.02,0,.02,0l.9-.07h.02s.05,0,.05,0h.02s.02,0,.02,0h.02s.02,0,.02,0h.02s.02,0,.02,0h.02s.02,0,.02,0h.02s.02,0,.02,0h.02s.86-.07,.86-.07h.02s.02,0,.02,0h.02s.02,0,.02,0l1.21-.09h.03s.02,0,.02,0h.02s.02,0,.02,0h.02s.03,0,.03,0h.02s.03,0,.03,0h.02s.02,0,.02,0h.02s.78-.05,.78-.05h.02s.02,0,.02,0h.02s.02,0,.02,0h.02s1.11-.07,1.11-.07h.02s.02,0,.02,0h.02s.02,0,.02,0h.02s.02,0,.02,0h.02s.02,0,.02,0h.02s.02,0,.02,0h.02s.02,0,.02,0l.89-.05h.02s.02,0,.02,0h.02s.05,0,.05,0h.02s1.16-.06,1.16-.06h.02s.05,0,.05,0h.02s.02,0,.02,0h.02s.02,0,.02,0l.87-.04h.02s.02,0,.02,0h.02s.02,0,.02,0h.02s.05,0,.05,0h.02s1.05-.05,1.05-.05h.02s.02,0,.02,0h.02s.02,0,.02,0h.02s.02,0,.02,0h.02s.02,0,.02,0h.02s.02,0,.02,0h.02s.02,0,.02,0l.79-.03h.02s.02,0,.02,0h.03s.02,0,.02,0h.02s.02,0,.02,0l1.13-.04h.02s.02,0,.02,0h.02s.02,0,.02,0h.03s.02,0,.02,0h.02s.02,0,.02,0h.02s.02,0,.02,0h.02s.02,0,.02,0l.75-.02h.02s.02,0,.02,0h.02s.02,0,.02,0h.05s.02,0,.02,0l1.32-.03h.02s.02,0,.02,0h.02s.02,0,.02,0h.76s.02-.01,.02-.01h.05s.02,0,.02,0h.05s.02,0,.02,0h.05s.02,0,.02,0h1.14s.02-.01,.02-.01h.05s.02,0,.02,0h.02s.02,0,.02,0h.85s.02,0,.02,0h.05s.02,0,.02,0h.12s.02,0,.02,0h1.07s.02,0,.02,0h.12s.02,0,.02,0h.81s.02,0,.02,0h.02s.02,0,.02,0h.05s.02,0,.02,0h1.32s.02,.01,.02,.01h.02s.02,0,.02,0h.02s.77,.01,.77,.01h.02s.02,0,.02,0h.02s.02,0,.02,0h.02s.02,0,.02,0h.02s.02,0,.02,0h.02s.1,0,.1,0h.02s1.15,.02,1.15,.02h.02s.05,0,.05,0h.02s.72,.02,.72,.02h.03s.03,0,.03,0h.03s.03,0,.03,0h.03s.05,0,.05,0h.03s.03,0,.03,0h.03s1.2,.04,1.2,.04h.03s.03,0,.03,0h.03s.03,0,.03,0h.03s.03,0,.03,0h.03s.7,.03,.7,.03h.03s.03,0,.03,0h.03s.03,0,.03,0h.03s.03,0,.03,0h.03s.03,0,.03,0h.03s.03,0,.03,0h.03s.03,0,.03,0h.03s.03,0,.03,0h.03s.03,0,.03,0h.03s1.13,.05,1.13,.05h.03s.03,0,.03,0h.03s.71,.03,.71,.03h.03s.03,0,.03,0h.03s.03,0,.03,0h.03s.03,0,.03,0h.03s.03,0,.03,0h.03s.03,0,.03,0h.03s.03,0,.03,0h.03s.03,0,.03,0h.03s.03,0,.03,0h.03s.03,0,.03,0h.03s1.05,.06,1.05,.06h.03s.03,0,.03,0h.03s.03,0,.03,0l.71,.04h.03s.03,0,.03,0h.03s.03,0,.03,0h.03s.03,0,.03,0h.03s.03,0,.03,0h.03s.03,0,.03,0h.03s.03,0,.03,0h.03s.03,0,.03,0h.03s.03,0,.03,0h.03s.05,0,.05,0h.03s.03,0,.03,0h.03s.03,0,.03,0l1.05,.07,.69,.05h.03s.03,0,.03,0h.05s.03,0,.03,0h.03s.03,0,.03,0h.03s.08,0,.08,0h.03s.03,0,.03,0h.03c.41,.03,.82,.06,1.23,.09h.03s.03,0,.03,0h.03s.03,0,.03,0h.03s.5,.04,.5,.04h.03s.03,0,.03,0h.03s.03,0,.03,0h.03s.03,0,.03,0h.03s.03,0,.03,0h.03s.03,0,.03,0h.03s.03,0,.03,0h.03s.03,0,.03,0h.03s.03,0,.03,0h.03s.03,0,.03,0h.03s.03,0,.03,0h.06s.03,0,.03,0h.06s.03,0,.03,0l1,.08h.03s.03,0,.03,0h.03s.6,.05,.6,.05h.03s.03,0,.03,0h.03s.03,0,.03,0h.03s.03,0,.03,0h.03s.03,0,.03,0h.03s.03,0,.03,0h.03s.03,0,.03,0h.03s.03,0,.03,0h.03s.03,0,.03,0h.03s.03,0,.03,0h.03s.03,0,.03,0h.03s.03,0,.03,0h.06s.03,0,.03,0h.03s.03,0,.03,0l.9,.08h.03s.03,0,.03,0h.03s.03,0,.03,0h.03s.51,.05,.51,.05h.03s.03,0,.03,0h.03s.03,0,.03,0h.03s.03,0,.03,0h.03s.03,0,.03,0h.03s.03,0,.03,0h.03s.03,0,.03,0h.03s.03,0,.03,0h.03s.03,0,.03,0h.03s.03,0,.03,0h.03s.03,0,.03,0h.03s.03,0,.03,0h.03s.03,0,.03,0h.03s.03,0,.03,0h.03s.97,.1,.97,.1h.03s.03,0,.03,0h.03s.03,0,.03,0h.03s.31,.04,.31,.04h.03s.03,0,.03,0h.03s.03,0,.03,0h.03s.03,0,.03,0h.03s.03,0,.03,0h.03s.03,0,.03,0h.03s.06,.01,.06,.01h.03s.03,0,.03,0h.03s.06,.01,.06,.01h.03s.03,0,.03,0h.03s.03,0,.03,0h.03s.03,0,.03,0h.03s.03,0,.03,0h.03s.03,0,.03,0h.03s.03,0,.03,0h.03s.03,0,.03,0h.03s.03,0,.03,0l.88,.1h.03s.03,0,.03,0h.03s.39,.05,.39,.05h.03s.03,0,.03,0h.03s.03,0,.03,0h.03s.03,0,.03,0h.03s.03,0,.03,0h.03s.03,0,.03,0h.03s.03,0,.03,0h.03s.03,0,.03,0h.03s.03,0,.03,0h.03s.03,0,.03,0h.03s.03,0,.03,0h.03s.03,0,.03,0h.03s.03,0,.03,0h.03s.03,0,.03,0h.03s.03,0,.03,0h.03s.03,0,.03,0h.03s.03,0,.03,0h.03s.03,0,.03,0h.03s.03,0,.03,0h.03s.74,.09,.74,.09h.03s.03,0,.03,0h.03s.03,0,.03,0l.25,.03h.03s.03,0,.03,0h.03s.03,0,.03,0h.07s.03,.01,.03,.01l.81,.1h.03s.03,0,.03,0h.03s.03,0,.03,0h.03s.03,0,.03,0h.03s.03,0,.03,0h.03s.03,0,.03,0l.67,.09h.03s.03,0,.03,0h.03s.35,.05,.35,.05l.68,.09h.08c.63,.1,1.26,.18,1.9,.27h.08s.69,.11,.69,.11c.58,.08,1.16,.17,1.74,.26l.71,.11c.56,.09,1.12,.17,1.68,.26l1,.16,1.56,.26,.27,.05,.71,.12,1.42,.24,.71,.12,.71,.13,1.26,.23,1.22,.22,1.31,.25,1.39,.27,1.23,.24,1.6,.32,1.21,.25,1.24,.25,1.21,.25,1.69,.36,1.05,.23,1.75,.38,1.2,.27,1.19,.27,.77,.18,.74,.17,1.63,.38,1.24,.29,1.76,.42,.88,.21,1.99,.48,1.09,.27,1.82,.45,1.31,.33,1.54,.39,.39,.1c-7.07,1.77-7.71,8.91-7.71,8.91,0,0-4.89-2.81-7.69-1.04-2.81,1.77-2.49,4.42-2.49,4.42,0,0-1.2-.16-1.98,.42-.78,.57-.57,1.92-.57,1.92,0,0-1.87-.68-4.11-.26-2.23,.42-2.49,2.18-2.49,2.18,0,0-2.55,.05-5.41,.05s-6.65,.73-6.65,1.66c0,.24,4.34,.35,10.83,.4,.25,.33,2.91,.57,4.94,.57,2.13,0,4.03,.02,4.03,.02,0,0,.19,.66,1.86,.81,1.67,.16,3.06-.1,3.06-.1,0,0-.16,.5,.42,.72,.58,.21,1.47,.15,1.47,.15,0,0-.23,.99,1.86,1.65,2.09,.66,5.74-.39,5.74-.39,0,0,.62,3.47,8.29,3.47v2.51c-7.42,.88-11.24,6.12-11.24,6.12,0,0-7.75-5.79-12.59,.06-4.83,5.84,.9,11.18,.9,11.18,0,0-4.5-1.46-7.53,2.87-1.06,1.51-1.44,2.94-1.48,4.16-1.17,.35-1.47,1.2-1.47,1.2-.31-4.43-3.92-6.78-7.83-7.17h0v-.22l-.04-.07c-.14-.29-.44-.63-.69-.83-.12-.1-.27-.22-.43-.32v-1.89l-.04-.07c-.11-.22-.28-.44-.48-.59-.03-.02-.06-.05-.09-.07v-.6c.16-.11,.26-.28,.24-.5-.05-.55-.56-1.04-1.04-1.24-.27-.11-.56-.23-.85-.33,0-.01,0-.02,0-.03,.13-.33,.17-.69-.06-.99-.09-.12-.11-.12-.13-.26-.06-.33-.04-.73-.07-1.06l-.03-.32h-.65s-.12,1.44-.12,1.44c0,.03,0,.07,.03,.05-.23,.23-.41,.4-.37,.77,.02,.14,.06,.22,.09,.31-.52,.11-1.21,.33-1.53,.66-.35,.38-.48,.81-.22,1.27,.02,.06,.03,.22,.02,.36-.42,.21-.69,.71-.79,1.14-.14,.59-.3,1.17-.46,1.75-.32,.24-.7,.62-.7,1.02,0,.67-.04,1.35-.04,2.02v.08l.02,.05c.04,.1,.1,.22,.17,.31v.42l.02,.06h0s0,0,0,0h0s0,0,0,0h0s0,0,0,0h0s0,0,0,0h0s0,0,0,0h0s0,0,0,0h0s0,0,0,0h0s0,0,0,0h0s0,0,0,0h0s0,.01,0,.01h0s0,0,0,0h0s0,0,0,0h0s0,0,0,0h0s0,.01,0,.01h0s0,0,0,0h0s0,0,0,0h0s0,0,0,0h0s0,0,0,0h0s0,0,0,0h0s0,0,0,0h0s0,0,0,0h0s0,0,0,0h0s0,0,0,0h0s0,0,0,0h0s0,0,0,0h0s0,0,0,0h0s0,0,0,0h0c-.97,.97-1.65,2.21-1.88,3.71,0,0-3.96-2.28-6.24-.84-2.28,1.43-2.02,3.58-2.02,3.58,0,0-.97-.13-1.6,.34-.63,.46-.46,1.56-.46,1.56,0,0-1.52-.55-3.33-.21-1.81,.34-2.02,1.77-2.02,1.77,0,0-2.06,.04-4.38,.04s-5.39,.59-5.39,1.35c0,.3,8.56,.36,18.97,.33-1.47,2.69-1.53,5.24-1.53,5.24,0,0-.11-.51-2.58-1.01-1.31-.27-4.39-.2-6.88,1.01h-.01s-.01,0-.01,0h-.01s-.01,0-.01,0h-.01s-.01,0-.01,0h-.01s-.01,0-.01,0h-.01s-.01,0-.01,0h-.01s-.01,0-.01,0h-.01s-.01,0-.01,0h-.03s-.01,0-.01,0h-.01s-.01,0-.01,0h-.01s-.01,0-.01,0h-.01s-.01,0-.01,0h-.01s-.15-.03-.15-.03h-.01s-.01,0-.01,0h0s-.01,0-.01,0h-.01c-.08-.01-.16-.02-.24-.03h-.01s-.01,0-.01,0c-6.22-.68-9.43,3.73-9.43,3.73,0,0-4.72-3.52-7.66,.03-2.94,3.55,.55,6.8,.55,6.8,0,0-2.73-.89-4.58,1.74-1.85,2.63-.29,4.84-.29,4.84,0,0-1.47-.41-2.97,.14h-.02s-.02,.01-.02,.01h-.02s-.02,.01-.02,.01h0s-.02,0-.02,0h-.02s-.02,.01-.02,.01h-.02s0,0,0,0h-.02s-.02,.01-.02,.01h-.02s-.02,.01-.02,.01h0s-.01,0-.01,0h-.02s-.03,.02-.03,.02h0s-.01,0-.01,0l-.03,.02h-.02s0,.01,0,.01h-.01s-.05,.03-.05,.03h0s-.01,0-.01,0h-.02s-.02,.02-.02,.02h-.02s0,.01,0,.01h0s-.02,.01-.02,.01h-.02s-.01,.02-.01,.02h0s-.02,.02-.02,.02h-.01s-.02,.02-.02,.02h0s-.08,.05-.08,.05h-.01s-.01,.02-.01,.02h0s0,0,0,0h-.01s-.01,.02-.01,.02h-.01s0,.02,0,.02h0s-.01,.01-.01,.01h-.01s-.01,.02-.01,.02h0s0,0,0,0h-.01s-.01,.02-.01,.02h-.01s-.01,.02-.01,.02h0s-.01,.01-.01,.01h-.01s-.01,.02-.01,.02h-.01s0,0,0,0h-.01s-.01,.02-.01,.02h-.01c-1.64-.87-3.59-.57-3.59-.57,0,0,.44-1.08-.96-2.76-1.4-1.68-3.8-.96-3.8-.96,0,0,.68-1.2-.56-3.4-1.24-2.2-4.32-1.08-4.32-1.08,0,0,.6-1.64-1.44-4.64-2.04-3-6.88-1.6-6.88-1.6,0,0,.64-.88,1.44-4.32,.8-3.44-1.76-11.05-9.05-11.85-7.29-.8-11.05,4.36-11.05,4.36,0,0-5.52-4.12-8.97,.04-3.44,4.16,.64,7.97,.64,7.97,0,0-3.2-1.04-5.36,2.04-2.16,3.08-.34,5.66-.34,5.66,0,0-1.72-.48-3.48,.16-1.76,.64-2.6,2.44-2.6,2.44,0,0-4.28-5.12-9.13-3-.28,.12-.55,.26-.8,.4Z"/><g><path class="uuid-cc609f0b-0ccd-41ab-b898-583b9ed99a09" d="M733.65,100.92c2.11,3.75,4.91,7.62,8.51,9.99,3.2,2.1,6.73,3.11,10.55,3.11,4.96,0,9.24-1.65,12.81-5.11,3.38-3.28,5.25-7.24,5.25-11.98,0-3.47-1.22-6.67-3.09-9.56-2.73-4.21-7.6-8.12-11.62-11.07-1.94-1.43-3.87-2.86-5.78-4.32-.96-.74-1.96-1.47-2.86-2.33-1.31-1.31-2.66-2.87-3.42-4.58-.62-1.4-.96-2.89-.96-4.43,0-2.54,.92-4.69,2.76-6.44,1.94-1.85,4.37-2.6,7.02-2.6,2.17,0,4.21,.56,6.07,1.67,2.28,1.36,4.48,3.96,6.17,6.15l4.35-3.3c-2.16-2.88-4.93-6.02-8.02-7.78-2.61-1.48-5.43-2.22-8.43-2.22-2.78,0-5.4,.63-7.84,1.96-2.34,1.27-4.23,3.02-5.58,5.32-1.35,2.31-1.98,4.83-1.98,7.5,0,3.61,1.23,6.82,3.37,9.69,2.29,3.08,7.04,6.54,10.15,8.88,3.94,2.97,8.61,6.68,11.46,10.72,1.44,2.04,2.37,4.34,2.37,6.87,0,2.09-.56,4.04-1.62,5.84-1.12,1.91-2.74,3.36-4.7,4.39-2.04,1.08-4.24,1.62-6.55,1.62-6.51,0-10.99-5.44-13.93-10.67l-4.47,2.69h0Zm-6.14-48.05v-5.12h-36.42V112.36h36.15v-5.12h-30.85v-27.29h30.85v-5.11h-30.85v-21.97h31.12Zm-85.37-5.12h-5.39V112.36h5.39v-31.78l29.92,31.78h7l-33.66-35.73,31.03-28.88h-6.95l-27.34,25.58v-25.58h0Zm-22.88,64.61h5.64l-30.14-64.61h-.82l-30.5,64.61h5.89l10.24-21.67h29.4l10.3,21.67h0Zm-24.91-52.97l12.32,26.19h-24.7l12.37-26.19h0Zm-62.61-11.64h-5.3V112.36h30.73v-5.12h-25.43V47.75h0Zm-41.56,5.12v-5.12h-34.77v5.12h14.69v59.49h5.39V52.86h14.69Zm-45.74,59.49h5.64l-30.14-64.61h-.82l-30.5,64.61h5.89l10.24-21.67h29.4l10.3,21.67h0Zm-24.91-52.97l12.32,26.19h-24.7l12.37-26.19h0Zm-38.22-6.52v-5.12h-36.42V112.36h36.15v-5.12h-30.85v-27.29h30.85v-5.11h-30.85v-21.97h31.12Zm-91.87-5.12V112.36h5.3v-30.66h4.77l23.73,30.66h6.44l-23.69-30.61,2.8-.08c3.67-.1,7.87-.55,11.25-2.05,2.9-1.29,5.28-3.21,6.96-5.91,1.72-2.76,2.44-5.86,2.44-9.09,0-3.87-1.03-7.44-3.54-10.44-2.43-2.91-5.52-4.7-9.2-5.53-1.8-.41-3.73-.55-5.57-.66-3.06-.19-6.12-.23-9.18-.23h-12.5Zm5.3,5.12h12.32c3.01,0,7.17,.09,9.96,1.21,2.11,.84,3.78,2.23,5.03,4.12,1.28,1.93,1.91,4.08,1.91,6.39s-.6,4.54-1.88,6.52c-1.29,1.99-3.07,3.39-5.27,4.26-2.93,1.17-6.9,1.33-10.04,1.3l-12.04-.1v-23.71h0Zm-27.77,9.2l4.15-3.93c-4.05-3.75-8.64-6.99-13.77-9.08-4.97-2.02-10.22-2.97-15.57-2.97-6.43,0-12.63,1.34-18.29,4.46-5.35,2.96-9.61,7.09-12.7,12.37-3.08,5.27-4.62,11-4.62,17.1,0,8.25,2.69,15.5,8.06,21.76,7.43,8.67,17.27,12.23,28.51,12.23,8.92,0,17.2-2.38,23.64-8.79,6.31-6.28,8.72-14.44,8.89-23.13h-27.14v5.12h21.17l-.3,1.67c-1.04,5.81-3.85,10.61-8.44,14.34-5.1,4.14-11.15,5.87-17.66,5.87-5.57,0-10.86-1.26-15.77-3.92-4.73-2.57-8.54-6.14-11.3-10.77-2.65-4.46-4.09-9.29-4.09-14.49s1.39-9.77,3.96-14.12c2.71-4.57,6.5-8.06,11.16-10.59,4.71-2.55,9.77-3.89,15.12-3.89,4.54,0,8.95,1.08,13.11,2.85,4.43,1.88,8.39,4.6,11.87,7.91Z"/><path class="uuid-cc609f0b-0ccd-41ab-b898-583b9ed99a09" d="M766.48,152.88h2.46l-10.63-22.77h-.58l-10.75,22.77h2.55l3.53-7.48h9.86l3.56,7.48h0Zm-8.46-17.98l3.89,8.27h-7.8l3.91-8.27h0Zm-25.3-4.79v22.77h2.29v-22.77h-2.29Zm-26.59,18.51h0c.76,1.39,1.78,2.85,3.12,3.73,1.14,.75,2.41,1.11,3.77,1.11,1.77,0,3.31-.59,4.59-1.83,1.21-1.18,1.88-2.6,1.88-4.31,0-1.24-.43-2.39-1.1-3.43-.96-1.48-2.66-2.85-4.07-3.89-.98-.72-2.08-1.43-2.96-2.28-.43-.43-.88-.94-1.12-1.5-.2-.45-.31-.94-.31-1.44,0-.81,.29-1.5,.88-2.06,.63-.6,1.41-.83,2.26-.83,.71,0,1.37,.18,1.98,.54,.82,.49,1.63,1.48,2.2,2.24h0s1.87-1.41,1.87-1.41h0c-.79-1.07-1.81-2.27-2.98-2.93-.93-.53-1.95-.8-3.02-.8-1,0-1.94,.23-2.82,.7-.85,.46-1.53,1.09-2.01,1.93-.49,.83-.71,1.75-.71,2.71,0,1.3,.44,2.45,1.22,3.5,.77,1.06,2.48,2.3,3.54,3.1,1.34,1.01,2.94,2.28,3.91,3.65,.47,.67,.78,1.41,.78,2.24,0,.68-.18,1.31-.53,1.9-.37,.62-.89,1.09-1.53,1.43-.67,.35-1.39,.53-2.15,.53-2.24,0-3.75-1.99-4.72-3.77h0s-1.94,1.16-1.94,1.16h0Zm-10.35-16.28v-2.23h-13.04v22.77h12.95v-2.23h-10.65v-8.96h10.65v-2.23h-10.65v-7.12h10.75Zm-41.24-2.23h-2.29v22.77h2.29v-11h11.59v11h2.29v-22.77h-2.29v9.54h-11.59v-9.54h0Zm-14.32,2.23v-2.23h-12.47v2.23h5.07v20.54h2.32v-20.54h5.07Zm-37.13,16.28h0c.76,1.39,1.78,2.85,3.12,3.73,1.14,.75,2.41,1.11,3.77,1.11,1.77,0,3.31-.59,4.59-1.83,1.21-1.18,1.88-2.6,1.88-4.31,0-1.24-.43-2.39-1.1-3.43-.96-1.48-2.66-2.85-4.07-3.89-.98-.72-2.08-1.43-2.96-2.28-.43-.43-.88-.94-1.12-1.5-.2-.45-.31-.94-.31-1.44,0-.81,.29-1.5,.88-2.06,.63-.6,1.41-.83,2.26-.83,.71,0,1.37,.18,1.98,.54,.82,.49,1.62,1.48,2.2,2.24h0s1.87-1.41,1.87-1.41h0c-.79-1.07-1.81-2.27-2.98-2.93-.94-.53-1.95-.8-3.02-.8-1,0-1.94,.23-2.82,.7-.85,.46-1.53,1.09-2.02,1.93-.49,.83-.71,1.75-.71,2.71,0,1.3,.43,2.45,1.22,3.5,.77,1.06,2.48,2.3,3.54,3.1,1.34,1.01,2.94,2.28,3.91,3.65,.47,.67,.78,1.41,.78,2.24,0,.68-.18,1.31-.53,1.9-.37,.62-.89,1.09-1.53,1.43-.67,.35-1.39,.53-2.15,.53-2.24,0-3.75-1.99-4.72-3.77h0s-1.94,1.16-1.94,1.16h0Zm-10.35-16.28v-2.23h-13.04v22.77h12.95v-2.23h-10.65v-8.96h10.65v-2.23h-10.65v-7.12h10.75Zm-44.77-2.23h-.5v22.77h2.36v-17.25l15.04,17.25h.53v-22.77h-2.29v17.4l-15.13-17.4h0Zm-15.26,22.77h2.46l-10.63-22.77h-.58l-10.75,22.77h2.55l3.53-7.48h9.86l3.56,7.48h0Zm-8.46-17.98l3.89,8.27h-7.8l3.91-8.27h0Zm-44.52-4.79h-2.62l7.36,11.88v10.89h2.29v-10.89l7.23-11.88h-2.6l-5.78,9.5-5.88-9.5h0Zm-28.73,0v22.77h2.29v-10.59h1.3l8.19,10.59h2.81l-8.16-10.54,1.38-.11c1.03-.08,2.12-.26,3.07-.68,1.05-.46,1.9-1.16,2.51-2.13,.62-.99,.88-2.1,.88-3.26,0-1.39-.38-2.68-1.27-3.75-.87-1.04-1.98-1.69-3.3-1.99-1.55-.35-3.55-.31-5.15-.31h-4.55Zm2.29,2.23h4.02c1.01,0,2.42,.03,3.35,.4,.68,.27,1.22,.72,1.63,1.34,.42,.63,.62,1.32,.62,2.08s-.2,1.48-.61,2.13c-.42,.65-1,1.1-1.71,1.38-.98,.39-2.33,.44-3.38,.43l-3.93-.03v-7.72h0Zm-27.89-2.8c-2.11,0-4.1,.53-5.93,1.59-1.84,1.07-3.28,2.54-4.33,4.39-1.07,1.89-1.59,3.92-1.59,6.08,0,3.28,1.16,6.08,3.48,8.39,2.36,2.35,5.23,3.47,8.54,3.47s6.14-1.14,8.48-3.48c2.34-2.34,3.47-5.18,3.47-8.48s-1.13-6.16-3.48-8.5c-2.39-2.37-5.31-3.45-8.65-3.45h0Zm.1,2.23c1.74,0,3.36,.45,4.86,1.32,1.49,.85,2.7,2.01,3.55,3.5,.87,1.51,1.26,3.16,1.26,4.9s-.4,3.42-1.26,4.95c-.85,1.49-2.03,2.66-3.52,3.51-1.52,.86-3.16,1.28-4.9,1.28-2.64,0-4.9-.93-6.78-2.79-1.9-1.88-2.81-4.17-2.81-6.84,0-1.76,.39-3.43,1.27-4.97,.85-1.5,2.04-2.67,3.53-3.54,1.48-.86,3.07-1.31,4.78-1.31h0Zm-23.02,.57v-2.23h-12.47v2.23h5.07v20.54h2.32v-20.54h5.07Zm-24.95,20.54h2.46l-10.63-22.77h-.58l-10.75,22.77h2.55l3.53-7.48h9.86l3.56,7.48h0Zm-8.45-17.98l3.89,8.27h-7.8l3.91-8.27h0Zm-30.16-4.79h-2.29v22.77h11.07v-2.23h-8.78v-20.54h0Zm-31.73,0v13.74c0,1.43,0,3.44,.42,4.8,.46,1.48,1.35,2.63,2.64,3.48,1.42,.95,3.04,1.32,4.73,1.32,1.59,0,3.07-.41,4.34-1.4,1.1-.86,1.96-1.93,2.38-3.27,.49-1.55,.6-3.32,.6-4.93v-13.74h-2.29v13.75c0,1.07,.04,2.54-.23,3.56-.2,.75-.53,1.45-1.02,2.05-.47,.58-1.06,1.02-1.73,1.33-.68,.32-1.41,.48-2.16,.48-.91,0-1.77-.22-2.59-.61-.74-.35-1.43-.83-1.9-1.51-.46-.67-.69-1.45-.78-2.22-.16-.99-.1-2.07-.1-3.07v-13.75h-2.29Zm-27.01,0v22.77h6.26c2,0,3.9-.5,5.38-1.9,1.33-1.26,2-2.81,2-4.64,0-.87-.17-1.71-.53-2.5-.35-.76-.84-1.42-1.49-1.97-.44-.37-.95-.67-1.47-.91l-1.04-.49,.87-.75c.43-.36,.79-.79,1.07-1.27,.5-.85,.74-1.78,.74-2.77,0-1.06-.28-2.05-.85-2.95-.57-.89-1.33-1.55-2.3-1.98-1.22-.54-2.84-.64-4.17-.64h-4.49Zm2.23,2.23h2.64c1.14,0,2.58,.15,3.49,.89,.77,.63,1.09,1.47,1.09,2.45,0,.77-.22,1.48-.65,2.11-.44,.64-1.04,1.11-1.77,1.39-1,.39-2.42,.44-3.5,.44h-1.3v-7.28h0Zm0,9.57h1.28c1.28,0,2.82-.02,4.06,.28,1.05,.25,2.01,.73,2.72,1.55,.66,.76,.99,1.65,.99,2.65,0,.82-.25,1.57-.71,2.24-.47,.69-1.09,1.21-1.87,1.53-1.04,.43-2.54,.49-3.66,.49h-2.82v-8.74h0Zm-37.55-11.8h-.48l-3.16,22.77h2.25l2.18-16.41,8.14,16.41h.6l8.06-16.28,2.28,16.28h2.21l-3.28-22.77h-.35l-9.2,18.67-9.26-18.67h0Zm-17.38,22.77h2.46l-10.63-22.77h-.58l-10.75,22.77h2.55l3.53-7.48h9.86l3.56,7.48h0Zm-8.46-17.98l3.89,8.27h-7.8l3.91-8.27Z"/></g></g></g></svg>