<?xml version="1.0" encoding="UTF-8"?><svg xmlns="http://www.w3.org/2000/svg" viewBox="0 0 146.97 146.01"><defs><style>.uuid-d457a642-2285-470c-91e7-00c5278ff7ac{fill:#fff;}.uuid-93259a4a-f418-453e-ae6d-62748143f66e{opacity:.25;}.uuid-93259a4a-f418-453e-ae6d-62748143f66e,.uuid-1c135c95-ce6f-4dfd-bbf1-1d23275f0cad,.uuid-132a59f3-a0ac-4c67-afc2-2bea8cde673b,.uuid-6ad7911a-fe76-4ecd-b6c9-8cb263230b9c,.uuid-209f6b6d-fc6c-448e-ad7c-df807d0dc423,.uuid-39674064-702f-43c2-aeda-d1260a19dff1,.uuid-9509555d-21ec-4259-a1c8-308cd93bf8cf{mix-blend-mode:color-burn;}.uuid-93259a4a-f418-453e-ae6d-62748143f66e,.uuid-39674064-702f-43c2-aeda-d1260a19dff1{fill:#00a88f;}.uuid-1c135c95-ce6f-4dfd-bbf1-1d23275f0cad{opacity:.26;}.uuid-1c135c95-ce6f-4dfd-bbf1-1d23275f0cad,.uuid-209f6b6d-fc6c-448e-ad7c-df807d0dc423{fill:#8ca4d5;}.uuid-132a59f3-a0ac-4c67-afc2-2bea8cde673b{fill:#f1645d;}.uuid-132a59f3-a0ac-4c67-afc2-2bea8cde673b,.uuid-6ad7911a-fe76-4ecd-b6c9-8cb263230b9c,.uuid-209f6b6d-fc6c-448e-ad7c-df807d0dc423,.uuid-39674064-702f-43c2-aeda-d1260a19dff1,.uuid-9509555d-21ec-4259-a1c8-308cd93bf8cf{opacity:.5;}.uuid-6ad7911a-fe76-4ecd-b6c9-8cb263230b9c{fill:#ffe512;}.uuid-9509555d-21ec-4259-a1c8-308cd93bf8cf{fill:#0096d6;}.uuid-b71e4988-141a-4409-9afb-4206a1ed6493{isolation:isolate;}.uuid-940456df-809b-41dc-917d-0ecbf5047c12{fill:#808285;opacity:.7;}</style></defs><g class="uuid-b71e4988-141a-4409-9afb-4206a1ed6493"><g id="uuid-fd8e48f6-29d4-46e1-ba68-32286b996afe"><g id="uuid-9c0ad0d3-7a94-4bbb-a09f-b17dc20640a9"><g><g><path class="uuid-9509555d-21ec-4259-a1c8-308cd93bf8cf" d="M125.41,105.02c0,5.7-4.62,10.32-10.33,10.32s-10.32-4.62-10.32-10.32,4.62-10.33,10.32-10.33,10.33,4.62,10.33,10.33Z"/><path class="uuid-1c135c95-ce6f-4dfd-bbf1-1d23275f0cad" d="M146.69,77.33c0,5.7-4.62,10.32-10.32,10.32s-10.33-4.62-10.33-10.32,4.62-10.32,10.33-10.32,10.32,4.62,10.32,10.32Z"/><path class="uuid-9509555d-21ec-4259-a1c8-308cd93bf8cf" d="M25.3,73.23c0,5.7-4.62,10.33-10.33,10.33s-10.32-4.62-10.32-10.33,4.62-10.32,10.32-10.32,10.33,4.62,10.33,10.32Z"/><path class="uuid-39674064-702f-43c2-aeda-d1260a19dff1" d="M108.31,106.5c0,5.7-4.62,10.32-10.33,10.32s-10.32-4.62-10.32-10.32,4.62-10.32,10.32-10.32,10.33,4.62,10.33,10.32Z"/><path class="uuid-6ad7911a-fe76-4ecd-b6c9-8cb263230b9c" d="M114.83,106.52c0,5.7-4.62,10.32-10.33,10.32s-10.32-4.62-10.32-10.32,4.62-10.32,10.32-10.32,10.33,4.62,10.33,10.32Z"/><path class="uuid-9509555d-21ec-4259-a1c8-308cd93bf8cf" d="M70.45,128.58c0,5.7-4.62,10.32-10.33,10.32s-10.32-4.62-10.32-10.32,4.62-10.33,10.32-10.33,10.33,4.62,10.33,10.33Z"/><path class="uuid-9509555d-21ec-4259-a1c8-308cd93bf8cf" d="M45.71,41.35c0,5.7-4.62,10.32-10.33,10.32s-10.32-4.62-10.32-10.32,4.62-10.33,10.32-10.33,10.33,4.62,10.33,10.33Z"/><path class="uuid-39674064-702f-43c2-aeda-d1260a19dff1" d="M95.31,98.01c0,5.7-4.62,10.33-10.33,10.33s-10.32-4.62-10.32-10.33,4.62-10.32,10.32-10.32,10.33,4.62,10.33,10.32Z"/><path class="uuid-132a59f3-a0ac-4c67-afc2-2bea8cde673b" d="M135.64,63.16c0,5.7-4.62,10.32-10.32,10.32s-10.33-4.62-10.33-10.32,4.62-10.33,10.33-10.33,10.32,4.62,10.32,10.33Z"/><path class="uuid-93259a4a-f418-453e-ae6d-62748143f66e" d="M55.3,16.06c0,5.7-4.62,10.32-10.33,10.32s-10.32-4.62-10.32-10.32,4.62-10.32,10.32-10.32,10.33,4.62,10.33,10.32Z"/><path class="uuid-6ad7911a-fe76-4ecd-b6c9-8cb263230b9c" d="M33.05,72.56c0,5.7-4.62,10.33-10.33,10.33s-10.32-4.62-10.32-10.33,4.62-10.32,10.32-10.32,10.33,4.62,10.33,10.32Z"/><path class="uuid-39674064-702f-43c2-aeda-d1260a19dff1" d="M81.69,19.09c0,5.71-4.62,10.33-10.33,10.33s-10.32-4.62-10.32-10.33,4.62-10.32,10.32-10.32,10.33,4.62,10.33,10.32Z"/><path class="uuid-39674064-702f-43c2-aeda-d1260a19dff1" d="M67.99,23.35c0,5.7-4.62,10.32-10.33,10.32s-10.32-4.62-10.32-10.32,4.62-10.33,10.32-10.33,10.33,4.62,10.33,10.33Z"/><path class="uuid-9509555d-21ec-4259-a1c8-308cd93bf8cf" d="M77.87,49.07c0,5.7-4.62,10.32-10.33,10.32s-10.32-4.62-10.32-10.32,4.62-10.33,10.32-10.33,10.33,4.62,10.33,10.33Z"/><path class="uuid-9509555d-21ec-4259-a1c8-308cd93bf8cf" d="M96.42,72.71c0,5.7-4.62,10.33-10.33,10.33s-10.32-4.62-10.32-10.33,4.62-10.32,10.32-10.32,10.33,4.62,10.33,10.32Z"/><path class="uuid-9509555d-21ec-4259-a1c8-308cd93bf8cf" d="M123.17,84.13c0,5.7-4.62,10.33-10.32,10.33s-10.33-4.62-10.33-10.33,4.62-10.32,10.33-10.32,10.32,4.62,10.32,10.32Z"/><path class="uuid-9509555d-21ec-4259-a1c8-308cd93bf8cf" d="M114.58,64.97c0,5.7-4.62,10.33-10.33,10.33s-10.32-4.62-10.32-10.33,4.62-10.33,10.32-10.33,10.33,4.62,10.33,10.33Z"/><path class="uuid-39674064-702f-43c2-aeda-d1260a19dff1" d="M51.85,81.49c0,5.7-4.62,10.33-10.32,10.33s-10.32-4.62-10.32-10.33,4.62-10.33,10.32-10.33,10.32,4.62,10.32,10.33Z"/><path class="uuid-39674064-702f-43c2-aeda-d1260a19dff1" d="M59.96,17.8c0,5.7-4.62,10.33-10.33,10.33s-10.32-4.62-10.32-10.33,4.62-10.32,10.32-10.32,10.33,4.62,10.33,10.32Z"/><path class="uuid-39674064-702f-43c2-aeda-d1260a19dff1" d="M129.37,16.21c0,5.7-4.62,10.32-10.33,10.32s-10.32-4.62-10.32-10.32,4.62-10.32,10.32-10.32,10.33,4.62,10.33,10.32Z"/><path class="uuid-9509555d-21ec-4259-a1c8-308cd93bf8cf" d="M92.72,28.78c0,5.7-4.62,10.33-10.33,10.33s-10.32-4.62-10.32-10.33,4.62-10.32,10.32-10.32,10.33,4.62,10.33,10.32Z"/><path class="uuid-6ad7911a-fe76-4ecd-b6c9-8cb263230b9c" d="M107.7,28.15c0,5.7-4.62,10.32-10.33,10.32s-10.33-4.62-10.33-10.32,4.62-10.33,10.33-10.33,10.33,4.62,10.33,10.33Z"/><path class="uuid-9509555d-21ec-4259-a1c8-308cd93bf8cf" d="M30.01,61.66c0,5.7-4.62,10.33-10.33,10.33s-10.32-4.62-10.32-10.33,4.62-10.33,10.32-10.33,10.33,4.62,10.33,10.33Z"/><path class="uuid-39674064-702f-43c2-aeda-d1260a19dff1" d="M49.53,57.72c0,5.7-4.62,10.33-10.33,10.33s-10.32-4.62-10.32-10.33,4.62-10.32,10.32-10.32,10.33,4.62,10.33,10.32Z"/><path class="uuid-39674064-702f-43c2-aeda-d1260a19dff1" d="M69.65,121.42c0,5.7-4.62,10.33-10.33,10.33s-10.32-4.62-10.32-10.33,4.62-10.33,10.32-10.33,10.33,4.62,10.33,10.33Z"/><path class="uuid-39674064-702f-43c2-aeda-d1260a19dff1" d="M82.24,105.59c0,5.7-4.62,10.33-10.33,10.33s-10.33-4.62-10.33-10.33,4.62-10.32,10.33-10.32,10.33,4.62,10.33,10.32Z"/><path class="uuid-39674064-702f-43c2-aeda-d1260a19dff1" d="M142.41,100.11c0,5.7-4.62,10.32-10.33,10.32s-10.32-4.62-10.32-10.32,4.62-10.33,10.32-10.33,10.33,4.62,10.33,10.33Z"/><path class="uuid-6ad7911a-fe76-4ecd-b6c9-8cb263230b9c" d="M25.48,76.52c0,5.7-4.62,10.32-10.32,10.32s-10.32-4.62-10.32-10.32,4.62-10.33,10.32-10.33,10.32,4.62,10.32,10.33Z"/><path class="uuid-9509555d-21ec-4259-a1c8-308cd93bf8cf" d="M25.78,77.21c0,5.7-4.62,10.33-10.33,10.33s-10.32-4.62-10.32-10.33,4.62-10.33,10.32-10.33,10.33,4.62,10.33,10.33Z"/><path class="uuid-9509555d-21ec-4259-a1c8-308cd93bf8cf" d="M29.65,95.11c0,5.7-4.62,10.32-10.33,10.32s-10.32-4.62-10.32-10.32,4.62-10.33,10.32-10.33,10.33,4.62,10.33,10.33Z"/><path class="uuid-6ad7911a-fe76-4ecd-b6c9-8cb263230b9c" d="M48.84,111.24c0,5.7-4.62,10.33-10.33,10.33s-10.32-4.62-10.32-10.33,4.62-10.33,10.32-10.33,10.33,4.62,10.33,10.33Z"/><path class="uuid-9509555d-21ec-4259-a1c8-308cd93bf8cf" d="M109.17,89c0,5.7-4.62,10.32-10.32,10.32s-10.32-4.62-10.32-10.32,4.62-10.33,10.32-10.33,10.32,4.62,10.32,10.33Z"/><path class="uuid-6ad7911a-fe76-4ecd-b6c9-8cb263230b9c" d="M130.28,52.29c0,5.7-4.62,10.32-10.33,10.32s-10.32-4.62-10.32-10.32,4.62-10.33,10.32-10.33,10.33,4.62,10.33,10.33Z"/><path class="uuid-6ad7911a-fe76-4ecd-b6c9-8cb263230b9c" d="M137.39,64.3c0,5.7-4.62,10.33-10.33,10.33s-10.32-4.62-10.32-10.33,4.62-10.32,10.32-10.32,10.33,4.62,10.33,10.32Z"/><path class="uuid-9509555d-21ec-4259-a1c8-308cd93bf8cf" d="M61.63,39.71c0,5.7-4.62,10.32-10.33,10.32s-10.32-4.62-10.32-10.32,4.62-10.33,10.32-10.33,10.33,4.62,10.33,10.33Z"/><path class="uuid-6ad7911a-fe76-4ecd-b6c9-8cb263230b9c" d="M69.4,62.04c0,5.7-4.62,10.33-10.33,10.33s-10.32-4.62-10.32-10.33,4.62-10.32,10.32-10.32,10.33,4.62,10.33,10.32Z"/><path class="uuid-39674064-702f-43c2-aeda-d1260a19dff1" d="M32.59,117.14c0,5.7-4.62,10.33-10.32,10.33s-10.32-4.62-10.32-10.33,4.62-10.33,10.32-10.33,10.32,4.62,10.32,10.33Z"/><path class="uuid-132a59f3-a0ac-4c67-afc2-2bea8cde673b" d="M145.07,115.82c0,5.7-4.62,10.33-10.32,10.33s-10.33-4.62-10.33-10.33,4.62-10.33,10.33-10.33,10.32,4.62,10.32,10.33Z"/><path class="uuid-132a59f3-a0ac-4c67-afc2-2bea8cde673b" d="M40.15,25.16c0,5.7-4.62,10.32-10.33,10.32s-10.32-4.62-10.32-10.32,4.62-10.33,10.32-10.33,10.33,4.62,10.33,10.33Z"/><path class="uuid-132a59f3-a0ac-4c67-afc2-2bea8cde673b" d="M39.38,128.71c0,5.7-4.62,10.33-10.32,10.33s-10.32-4.63-10.32-10.33,4.62-10.32,10.32-10.32,10.32,4.62,10.32,10.32Z"/><path class="uuid-132a59f3-a0ac-4c67-afc2-2bea8cde673b" d="M108.25,42.25c0,5.7-4.62,10.32-10.32,10.32s-10.32-4.62-10.32-10.32,4.62-10.32,10.32-10.32,10.32,4.62,10.32,10.32Z"/><path class="uuid-132a59f3-a0ac-4c67-afc2-2bea8cde673b" d="M90.14,61.63c0,5.7-4.62,10.32-10.33,10.32s-10.32-4.62-10.32-10.32,4.62-10.33,10.32-10.33,10.33,4.62,10.33,10.33Z"/><path class="uuid-132a59f3-a0ac-4c67-afc2-2bea8cde673b" d="M136.3,38.68c0,5.7-4.62,10.33-10.33,10.33s-10.32-4.62-10.32-10.33,4.62-10.32,10.32-10.32,10.33,4.62,10.33,10.32Z"/><path class="uuid-132a59f3-a0ac-4c67-afc2-2bea8cde673b" d="M130.95,80.51c0,5.7-4.62,10.33-10.33,10.33s-10.32-4.62-10.32-10.33,4.62-10.32,10.32-10.32,10.33,4.62,10.33,10.32Z"/><path class="uuid-132a59f3-a0ac-4c67-afc2-2bea8cde673b" d="M27.65,22.61c0,5.7-4.62,10.32-10.33,10.32s-10.32-4.62-10.32-10.32,4.62-10.32,10.32-10.32,10.33,4.62,10.33,10.32Z"/><path class="uuid-9509555d-21ec-4259-a1c8-308cd93bf8cf" d="M89.36,15.6c0,5.7-4.62,10.32-10.32,10.32s-10.32-4.62-10.32-10.32,4.62-10.33,10.32-10.33,10.32,4.62,10.32,10.33Z"/><circle class="uuid-9509555d-21ec-4259-a1c8-308cd93bf8cf" cx="22.12" cy="19.16" r="10.32"/><path class="uuid-9509555d-21ec-4259-a1c8-308cd93bf8cf" d="M24.28,38.8c0,5.7-4.62,10.33-10.33,10.33s-10.32-4.62-10.32-10.33,4.62-10.32,10.32-10.32,10.33,4.62,10.33,10.32Z"/><path class="uuid-209f6b6d-fc6c-448e-ad7c-df807d0dc423" d="M27.09,17.38c0,5.7-4.62,10.33-10.33,10.33s-10.32-4.62-10.32-10.33S11.06,7.05,16.76,7.05s10.33,4.62,10.33,10.32Z"/><path class="uuid-209f6b6d-fc6c-448e-ad7c-df807d0dc423" d="M109.73,17.89c0,5.7-4.62,10.32-10.32,10.32s-10.32-4.62-10.32-10.32,4.62-10.33,10.32-10.33,10.32,4.62,10.32,10.33Z"/><path class="uuid-9509555d-21ec-4259-a1c8-308cd93bf8cf" d="M112.02,20.69c0,5.7-4.62,10.32-10.33,10.32s-10.32-4.62-10.32-10.32,4.62-10.32,10.32-10.32,10.33,4.62,10.33,10.32Z"/><path class="uuid-209f6b6d-fc6c-448e-ad7c-df807d0dc423" d="M146.45,28.86c0,5.7-4.62,10.32-10.33,10.32s-10.32-4.62-10.32-10.32,4.62-10.33,10.32-10.33,10.33,4.62,10.33,10.33Z"/><path class="uuid-9509555d-21ec-4259-a1c8-308cd93bf8cf" d="M137.78,21.97c0,5.7-4.63,10.32-10.33,10.32s-10.32-4.62-10.32-10.32,4.62-10.33,10.32-10.33,10.33,4.62,10.33,10.33Z"/><path class="uuid-9509555d-21ec-4259-a1c8-308cd93bf8cf" d="M146.97,43.14c0,5.7-4.62,10.32-10.33,10.32s-10.32-4.62-10.32-10.32,4.62-10.33,10.32-10.33,10.33,4.62,10.33,10.33Z"/><path class="uuid-9509555d-21ec-4259-a1c8-308cd93bf8cf" d="M108.45,62.78c0,5.7-4.62,10.32-10.33,10.32s-10.33-4.62-10.33-10.32,4.62-10.33,10.33-10.33,10.33,4.62,10.33,10.33Z"/><path class="uuid-9509555d-21ec-4259-a1c8-308cd93bf8cf" d="M87.89,38.96c0,5.7-4.62,10.32-10.33,10.32s-10.32-4.62-10.32-10.32,4.62-10.32,10.32-10.32,10.33,4.62,10.33,10.32Z"/><path class="uuid-9509555d-21ec-4259-a1c8-308cd93bf8cf" d="M70.45,41.86c0,5.7-4.62,10.32-10.33,10.32s-10.32-4.62-10.32-10.32,4.62-10.32,10.32-10.32,10.33,4.62,10.33,10.32Z"/><path class="uuid-9509555d-21ec-4259-a1c8-308cd93bf8cf" d="M26.07,52.83c0,5.7-4.62,10.33-10.33,10.33s-10.32-4.62-10.32-10.33,4.62-10.33,10.32-10.33,10.33,4.62,10.33,10.33Z"/><path class="uuid-9509555d-21ec-4259-a1c8-308cd93bf8cf" d="M25.56,99.25c0,5.7-4.62,10.33-10.33,10.33s-10.32-4.62-10.32-10.33,4.62-10.33,10.32-10.33,10.33,4.62,10.33,10.33Z"/><path class="uuid-9509555d-21ec-4259-a1c8-308cd93bf8cf" d="M27.41,125.28c0,5.7-4.62,10.33-10.32,10.33s-10.32-4.62-10.32-10.33,4.62-10.32,10.32-10.32,10.32,4.62,10.32,10.32Z"/><path class="uuid-9509555d-21ec-4259-a1c8-308cd93bf8cf" d="M67.13,100.02c0,5.7-4.62,10.32-10.33,10.32s-10.32-4.62-10.32-10.32,4.62-10.32,10.32-10.32,10.33,4.62,10.33,10.32Z"/><path class="uuid-9509555d-21ec-4259-a1c8-308cd93bf8cf" d="M58.21,98.49c0,5.7-4.62,10.32-10.33,10.32s-10.32-4.62-10.32-10.32,4.62-10.33,10.32-10.33,10.33,4.62,10.33,10.33Z"/><path class="uuid-9509555d-21ec-4259-a1c8-308cd93bf8cf" d="M57.7,63.03c0,5.7-4.62,10.32-10.33,10.32s-10.32-4.62-10.32-10.32,4.62-10.33,10.32-10.33,10.33,4.62,10.33,10.33Z"/><path class="uuid-9509555d-21ec-4259-a1c8-308cd93bf8cf" d="M92.13,110.98c0,5.7-4.62,10.33-10.32,10.33s-10.32-4.62-10.32-10.33,4.62-10.32,10.32-10.32,10.32,4.62,10.32,10.32Z"/><path class="uuid-39674064-702f-43c2-aeda-d1260a19dff1" d="M97.48,84.97c0,5.7-4.62,10.32-10.32,10.32s-10.32-4.62-10.32-10.32,4.62-10.33,10.32-10.33,10.32,4.62,10.32,10.33Z"/><path class="uuid-209f6b6d-fc6c-448e-ad7c-df807d0dc423" d="M28.11,134.45c0,5.7-4.62,10.33-10.33,10.33s-10.32-4.62-10.32-10.33,4.62-10.32,10.32-10.32,10.33,4.62,10.33,10.32Z"/><path class="uuid-9509555d-21ec-4259-a1c8-308cd93bf8cf" d="M146.63,77.59c0,5.7-4.62,10.33-10.33,10.33s-10.32-4.62-10.32-10.33,4.62-10.33,10.32-10.33,10.33,4.62,10.33,10.33Z"/><path class="uuid-9509555d-21ec-4259-a1c8-308cd93bf8cf" d="M82.87,129.11c0,5.7-4.62,10.33-10.33,10.33s-10.32-4.62-10.32-10.33,4.62-10.32,10.32-10.32,10.33,4.62,10.33,10.32Z"/><path class="uuid-9509555d-21ec-4259-a1c8-308cd93bf8cf" d="M122.91,122.99c0,5.7-4.62,10.32-10.33,10.32s-10.32-4.62-10.32-10.32,4.62-10.33,10.32-10.33,10.33,4.62,10.33,10.33Z"/><path class="uuid-209f6b6d-fc6c-448e-ad7c-df807d0dc423" d="M123.42,42.39c0,5.7-4.62,10.33-10.33,10.33s-10.32-4.62-10.32-10.33,4.62-10.33,10.32-10.33,10.33,4.62,10.33,10.33Z"/><path class="uuid-209f6b6d-fc6c-448e-ad7c-df807d0dc423" d="M124.19,30.15c0,5.7-4.62,10.32-10.33,10.32s-10.32-4.62-10.32-10.32,4.62-10.33,10.32-10.33,10.33,4.62,10.33,10.33Z"/><path class="uuid-6ad7911a-fe76-4ecd-b6c9-8cb263230b9c" d="M44.53,16.1c0,5.7-4.62,10.32-10.33,10.32s-10.33-4.62-10.33-10.32,4.62-10.33,10.33-10.33,10.33,4.62,10.33,10.33Z"/><path class="uuid-6ad7911a-fe76-4ecd-b6c9-8cb263230b9c" d="M64.3,16.11c0,5.7-4.62,10.32-10.32,10.32s-10.32-4.62-10.32-10.32,4.62-10.33,10.32-10.33,10.32,4.62,10.32,10.33Z"/><path class="uuid-6ad7911a-fe76-4ecd-b6c9-8cb263230b9c" d="M136.22,17.63c0,5.7-4.62,10.32-10.32,10.32s-10.33-4.62-10.33-10.32,4.62-10.33,10.33-10.33,10.32,4.62,10.32,10.33Z"/><path class="uuid-6ad7911a-fe76-4ecd-b6c9-8cb263230b9c" d="M44.4,135.47c0,5.71-4.62,10.33-10.33,10.33s-10.33-4.62-10.33-10.33,4.62-10.32,10.33-10.32,10.33,4.62,10.33,10.32Z"/><path class="uuid-6ad7911a-fe76-4ecd-b6c9-8cb263230b9c" d="M45.79,63.13c0,5.7-4.62,10.33-10.32,10.33s-10.32-4.62-10.32-10.33,4.62-10.32,10.32-10.32,10.32,4.62,10.32,10.32Z"/><path class="uuid-6ad7911a-fe76-4ecd-b6c9-8cb263230b9c" d="M39.3,52.51c0,5.7-4.62,10.32-10.33,10.32s-10.32-4.62-10.32-10.32,4.62-10.33,10.32-10.33,10.33,4.62,10.33,10.33Z"/><path class="uuid-6ad7911a-fe76-4ecd-b6c9-8cb263230b9c" d="M87.3,115.27c0,5.7-4.62,10.33-10.33,10.33s-10.32-4.62-10.32-10.33,4.62-10.33,10.32-10.33,10.33,4.63,10.33,10.33Z"/><path class="uuid-6ad7911a-fe76-4ecd-b6c9-8cb263230b9c" d="M87.49,87.42c0,5.7-4.62,10.33-10.32,10.33s-10.32-4.62-10.32-10.33,4.62-10.32,10.32-10.32,10.32,4.62,10.32,10.32Z"/><path class="uuid-6ad7911a-fe76-4ecd-b6c9-8cb263230b9c" d="M84.35,75.4c0,5.7-4.62,10.32-10.32,10.32s-10.32-4.62-10.32-10.32,4.62-10.33,10.32-10.33,10.32,4.62,10.32,10.33Z"/><path class="uuid-6ad7911a-fe76-4ecd-b6c9-8cb263230b9c" d="M61.94,90.74c0,5.71-4.62,10.32-10.32,10.32s-10.32-4.62-10.32-10.32,4.62-10.32,10.32-10.32,10.32,4.62,10.32,10.32Z"/><path class="uuid-6ad7911a-fe76-4ecd-b6c9-8cb263230b9c" d="M114.33,75.42c0,5.7-4.62,10.33-10.33,10.33s-10.32-4.62-10.32-10.33,4.62-10.33,10.32-10.33,10.33,4.62,10.33,10.33Z"/><path class="uuid-6ad7911a-fe76-4ecd-b6c9-8cb263230b9c" d="M125.56,102.97c0,5.7-4.63,10.33-10.33,10.33s-10.32-4.62-10.32-10.33,4.62-10.33,10.32-10.33,10.33,4.62,10.33,10.33Z"/><path class="uuid-6ad7911a-fe76-4ecd-b6c9-8cb263230b9c" d="M123.34,128.21c0,5.7-4.62,10.32-10.33,10.32s-10.32-4.62-10.32-10.32,4.62-10.33,10.32-10.33,10.33,4.62,10.33,10.33Z"/><path class="uuid-9509555d-21ec-4259-a1c8-308cd93bf8cf" d="M119.16,129.86c0,5.7-4.62,10.32-10.33,10.32s-10.32-4.62-10.32-10.32,4.62-10.33,10.32-10.33,10.33,4.62,10.33,10.33Z"/><path class="uuid-132a59f3-a0ac-4c67-afc2-2bea8cde673b" d="M91.33,134.9c0,5.7-4.62,10.32-10.33,10.32s-10.32-4.63-10.32-10.32,4.62-10.32,10.32-10.32,10.33,4.62,10.33,10.32Z"/><path class="uuid-6ad7911a-fe76-4ecd-b6c9-8cb263230b9c" d="M99.75,130.37c0,5.7-4.62,10.33-10.33,10.33s-10.32-4.62-10.32-10.33,4.62-10.32,10.32-10.32,10.33,4.62,10.33,10.32Z"/><path class="uuid-132a59f3-a0ac-4c67-afc2-2bea8cde673b" d="M67.1,127.53c0,5.7-4.62,10.33-10.32,10.33s-10.32-4.62-10.32-10.33,4.62-10.32,10.32-10.32,10.32,4.62,10.32,10.32Z"/><path class="uuid-6ad7911a-fe76-4ecd-b6c9-8cb263230b9c" d="M56.39,134.45c0,5.7-4.62,10.33-10.32,10.33s-10.33-4.63-10.33-10.33,4.62-10.32,10.33-10.32,10.32,4.62,10.32,10.32Z"/><path class="uuid-39674064-702f-43c2-aeda-d1260a19dff1" d="M45.05,121.53c0,5.7-4.62,10.33-10.33,10.33s-10.32-4.62-10.32-10.33,4.62-10.32,10.32-10.32,10.33,4.62,10.33,10.32Z"/><path class="uuid-132a59f3-a0ac-4c67-afc2-2bea8cde673b" d="M44.74,87.65c0,5.7-4.62,10.33-10.33,10.33s-10.32-4.62-10.32-10.33,4.62-10.33,10.32-10.33,10.33,4.62,10.33,10.33Z"/><path class="uuid-9509555d-21ec-4259-a1c8-308cd93bf8cf" d="M44.43,82.42c0,5.7-4.62,10.32-10.33,10.32s-10.32-4.62-10.32-10.32,4.62-10.33,10.32-10.33,10.33,4.62,10.33,10.33Z"/><path class="uuid-132a59f3-a0ac-4c67-afc2-2bea8cde673b" d="M44.48,36.13c0,5.7-4.62,10.33-10.33,10.33s-10.32-4.62-10.32-10.33,4.62-10.32,10.32-10.32,10.33,4.62,10.33,10.32Z"/><path class="uuid-132a59f3-a0ac-4c67-afc2-2bea8cde673b" d="M112.84,50.67c0,5.7-4.62,10.32-10.33,10.32s-10.32-4.62-10.32-10.32,4.62-10.33,10.32-10.33,10.33,4.62,10.33,10.33Z"/><path class="uuid-9509555d-21ec-4259-a1c8-308cd93bf8cf" d="M111,52.58c0,5.7-4.63,10.32-10.33,10.32s-10.33-4.62-10.33-10.32,4.62-10.33,10.33-10.33,10.33,4.62,10.33,10.33Z"/><path class="uuid-39674064-702f-43c2-aeda-d1260a19dff1" d="M145.31,123.05c0,5.7-4.62,10.32-10.33,10.32s-10.32-4.62-10.32-10.32,4.62-10.33,10.32-10.33,10.33,4.62,10.33,10.33Z"/><path class="uuid-9509555d-21ec-4259-a1c8-308cd93bf8cf" d="M136.63,132.39c0,5.7-4.62,10.32-10.32,10.32s-10.33-4.62-10.33-10.32,4.62-10.33,10.33-10.33,10.32,4.62,10.32,10.33Z"/><path class="uuid-39674064-702f-43c2-aeda-d1260a19dff1" d="M65.47,73.31c0,5.7-4.62,10.33-10.33,10.33s-10.32-4.62-10.32-10.33,4.62-10.32,10.32-10.32,10.33,4.62,10.33,10.32Z"/><path class="uuid-39674064-702f-43c2-aeda-d1260a19dff1" d="M72.16,82.14c0,5.7-4.62,10.32-10.33,10.32s-10.32-4.62-10.32-10.32,4.62-10.32,10.32-10.32,10.33,4.62,10.33,10.32Z"/><path class="uuid-39674064-702f-43c2-aeda-d1260a19dff1" d="M83.43,22.78c0,5.7-4.62,10.33-10.33,10.33s-10.32-4.62-10.32-10.33,4.62-10.32,10.32-10.32,10.33,4.62,10.33,10.32Z"/><path class="uuid-39674064-702f-43c2-aeda-d1260a19dff1" d="M131.52,107.71c0,5.7-4.62,10.32-10.33,10.32s-10.32-4.62-10.32-10.32,4.62-10.33,10.32-10.33,10.33,4.62,10.33,10.33Z"/><path class="uuid-132a59f3-a0ac-4c67-afc2-2bea8cde673b" d="M66.34,50.25c0,5.7-4.62,10.32-10.32,10.32s-10.32-4.62-10.32-10.32,4.62-10.32,10.32-10.32,10.32,4.62,10.32,10.32Z"/><path class="uuid-9509555d-21ec-4259-a1c8-308cd93bf8cf" d="M57.07,20.77c0,5.7-4.62,10.33-10.33,10.33s-10.32-4.62-10.32-10.33,4.62-10.33,10.32-10.33,10.33,4.62,10.33,10.33Z"/><path class="uuid-6ad7911a-fe76-4ecd-b6c9-8cb263230b9c" d="M66.27,39.22c0,5.7-4.62,10.33-10.32,10.33s-10.32-4.62-10.32-10.33,4.62-10.32,10.32-10.32,10.32,4.62,10.32,10.32Z"/><path class="uuid-39674064-702f-43c2-aeda-d1260a19dff1" d="M134.19,62.67c0,5.7-4.62,10.32-10.33,10.32s-10.32-4.62-10.32-10.32,4.62-10.32,10.32-10.32,10.33,4.62,10.33,10.32Z"/><path class="uuid-39674064-702f-43c2-aeda-d1260a19dff1" d="M91.27,46.54c0,5.7-4.62,10.33-10.33,10.33s-10.32-4.62-10.32-10.33,4.62-10.32,10.32-10.32,10.33,4.62,10.33,10.32Z"/><path class="uuid-6ad7911a-fe76-4ecd-b6c9-8cb263230b9c" d="M107.75,98.26c0,5.7-4.62,10.32-10.33,10.32s-10.32-4.62-10.32-10.32,4.62-10.33,10.32-10.33,10.33,4.62,10.33,10.33Z"/><path class="uuid-132a59f3-a0ac-4c67-afc2-2bea8cde673b" d="M105.2,114.3c0,5.7-4.62,10.32-10.33,10.32s-10.32-4.62-10.32-10.32,4.62-10.32,10.32-10.32,10.33,4.62,10.33,10.32Z"/><path class="uuid-132a59f3-a0ac-4c67-afc2-2bea8cde673b" d="M61.15,113.29c0,5.7-4.62,10.32-10.33,10.32s-10.32-4.62-10.32-10.32,4.62-10.33,10.32-10.33,10.33,4.62,10.33,10.33Z"/><path class="uuid-39674064-702f-43c2-aeda-d1260a19dff1" d="M145.02,85.06c0,5.7-4.62,10.33-10.32,10.33s-10.33-4.62-10.33-10.33,4.62-10.32,10.33-10.32,10.32,4.62,10.32,10.32Z"/><path class="uuid-132a59f3-a0ac-4c67-afc2-2bea8cde673b" d="M81.85,101.42c0,5.7-4.62,10.33-10.33,10.33s-10.32-4.62-10.32-10.33,4.62-10.33,10.32-10.33,10.33,4.62,10.33,10.33Z"/><path class="uuid-132a59f3-a0ac-4c67-afc2-2bea8cde673b" d="M39.27,101.71c0,5.7-4.62,10.32-10.33,10.32s-10.32-4.62-10.32-10.32,4.62-10.33,10.32-10.33,10.33,4.62,10.33,10.33Z"/><path class="uuid-132a59f3-a0ac-4c67-afc2-2bea8cde673b" d="M26.09,44.08c0,5.7-4.62,10.33-10.33,10.33s-10.32-4.62-10.32-10.33,4.62-10.32,10.32-10.32,10.33,4.62,10.33,10.32Z"/><path class="uuid-39674064-702f-43c2-aeda-d1260a19dff1" d="M112.25,124.08c0,5.7-4.62,10.33-10.32,10.33s-10.33-4.63-10.33-10.33,4.62-10.32,10.33-10.32,10.32,4.62,10.32,10.32Z"/><path class="uuid-39674064-702f-43c2-aeda-d1260a19dff1" d="M138.58,126.33c0,5.7-4.62,10.33-10.33,10.33s-10.32-4.63-10.32-10.33,4.62-10.32,10.32-10.32,10.33,4.62,10.33,10.32Z"/><path class="uuid-9509555d-21ec-4259-a1c8-308cd93bf8cf" d="M134.61,100.09c0,5.7-4.62,10.33-10.33,10.33s-10.32-4.63-10.32-10.33,4.62-10.32,10.32-10.32,10.33,4.62,10.33,10.32Z"/><path class="uuid-39674064-702f-43c2-aeda-d1260a19dff1" d="M139.87,51.36c0,5.7-4.62,10.33-10.33,10.33s-10.32-4.62-10.32-10.33,4.62-10.33,10.32-10.33,10.33,4.62,10.33,10.33Z"/><path class="uuid-9509555d-21ec-4259-a1c8-308cd93bf8cf" d="M28.95,104.17c0,5.7-4.62,10.33-10.33,10.33s-10.32-4.62-10.32-10.33,4.62-10.32,10.32-10.32,10.33,4.62,10.33,10.32Z"/><path class="uuid-9509555d-21ec-4259-a1c8-308cd93bf8cf" d="M83.34,62.97c0,5.7-4.62,10.32-10.33,10.32s-10.32-4.62-10.32-10.32,4.62-10.33,10.32-10.33,10.33,4.62,10.33,10.33Z"/><path class="uuid-9509555d-21ec-4259-a1c8-308cd93bf8cf" d="M73.61,76.74c0,5.7-4.62,10.32-10.33,10.32s-10.32-4.62-10.32-10.32,4.62-10.33,10.32-10.33,10.33,4.62,10.33,10.33Z"/><path class="uuid-9509555d-21ec-4259-a1c8-308cd93bf8cf" d="M132.84,64.11c0,5.7-4.62,10.33-10.32,10.33s-10.33-4.62-10.33-10.33,4.62-10.32,10.33-10.32,10.32,4.62,10.32,10.32Z"/><path class="uuid-6ad7911a-fe76-4ecd-b6c9-8cb263230b9c" d="M77.83,35.24c0,5.7-4.62,10.33-10.33,10.33s-10.32-4.62-10.32-10.33,4.62-10.32,10.32-10.32,10.33,4.62,10.33,10.32Z"/><path class="uuid-39674064-702f-43c2-aeda-d1260a19dff1" d="M45.17,47.29c0,5.7-4.62,10.33-10.33,10.33s-10.33-4.62-10.33-10.33,4.62-10.32,10.33-10.32,10.33,4.62,10.33,10.32Z"/><path class="uuid-9509555d-21ec-4259-a1c8-308cd93bf8cf" d="M97.49,126.67c0,5.7-4.62,10.32-10.33,10.32s-10.32-4.62-10.32-10.32,4.62-10.33,10.32-10.33,10.33,4.62,10.33,10.33Z"/><path class="uuid-9509555d-21ec-4259-a1c8-308cd93bf8cf" d="M49.32,73.75c0,5.7-4.62,10.33-10.33,10.33s-10.32-4.62-10.32-10.33,4.62-10.32,10.32-10.32,10.33,4.62,10.33,10.32Z"/><path class="uuid-9509555d-21ec-4259-a1c8-308cd93bf8cf" d="M117.75,77.29c0,5.7-4.63,10.32-10.33,10.32s-10.32-4.62-10.32-10.32,4.62-10.33,10.32-10.33,10.33,4.62,10.33,10.33Z"/><path class="uuid-9509555d-21ec-4259-a1c8-308cd93bf8cf" d="M102.41,72.57c0,5.7-4.62,10.33-10.33,10.33s-10.32-4.62-10.32-10.33,4.62-10.32,10.32-10.32,10.33,4.62,10.33,10.32Z"/></g><g><path class="uuid-940456df-809b-41dc-917d-0ecbf5047c12" d="M133.92,51.64l-.78-.39-2.08,.13c-3.51,.69-6.67,1.58-9.49,2.67l-5.65,2.4-2.67-1.43c-6.24-3.12-13.31-4.79-21.1-5.22-5.9-.32-7.66-.36-13.08,.56-1.05,.2-4.76,1.84-5.65,2.3-.03,.01-.06,.02-.09,.03h-.01c-1.55,.84-2.86,2.06-3.92,3.7l-2.6,4.61c-1.34,2.51-2.6,4.44-3.77,5.79-1.39,1.6-3.4,3.31-6.05,5.13-5.07,3.55-9.88,5.35-14.43,5.4-6.81-.09-10.16-3.42-10.08-10.01,0-5.76,1.99-12.24,5.98-19.43,3.38-6.07,7.67-11.38,12.87-15.93l3.77-3.12,3.64,2.54c6.59,4.2,13.91,6.3,21.97,6.3,5.89,.09,11.2-1.23,15.92-3.96,6.11-3.47,9.21-7.78,9.29-12.94,.09-4.81-3.1-7.84-9.55-9.1-1.91-.39-3.77-.59-5.59-.59-5.37,.04-11.01,.95-16.9,2.73-5.29,1.65-10.33,3.75-15.15,6.31l-4.42,2.47-1.17-2.41c-.61-1.52-.91-3.29-.91-5.33,.04-4.9,1.71-8.69,5-11.38l.65-.58c.26-.3,.41-.63,.45-.97,.04-.35-.07-.59-.33-.72l-.71-.19c-.43,.04-.87,.22-1.3,.52-4.29,3.34-6.46,8.04-6.5,14.1,0,2.82,.5,5.18,1.49,7.08l.91,1.56-2.28,1.56c-9.88,6.93-17.16,14.93-21.84,23.99-2.64,5.03-3.94,10.32-3.9,15.86-.04,4.59,1.28,8.25,3.96,10.98,2.91,2.95,6.5,4.42,10.79,4.42,5.5,.04,11.03-1.62,16.58-5.01l2.73-1.69c-3.08,4.59-5.89,8.54-8.45,11.83-5.94,7.71-12.03,13.09-18.26,16.12-2.82,1.39-5.83,2.06-9.04,2.01-3.81,0-7.06-.98-9.75-2.92-3.25-2.3-4.85-5.2-4.81-8.71l.2-2.08,1.11,.32c1.26,.09,2.32-.43,3.18-1.56,.87-1.12,1.3-2.38,1.3-3.77,.04-3.77-1.73-5.68-5.33-5.72-2.34,0-4.2,1.06-5.59,3.19-1.17,1.82-1.73,3.92-1.69,6.3-.04,5.25,1.99,9.62,6.11,13.13,3.6,3.03,8.23,4.55,13.91,4.55,4.42,0,8.95-.8,13.58-2.41,4.81-1.65,9.19-3.9,13.13-6.76,6.33-4.55,12.67-11.74,19.04-21.58l2.41-3.9,2.28-4.03,2.27-3.71c5.37-9.62,6.69-9.54,6.69-9.61,2.93-2.03,4.99-2.02,10.13-2.03,7.63,0,13.71,1.82,18.26,5.46l2.02,1.82-1.95,1.24c-6.97,4.94-17.03,17.92-30.16,38.93l-13.39,21.52-5.07,7.28c-3.86,5.24-8.04,9.12-12.55,11.63-2.77,1.6-6.07,2.38-9.88,2.34-3.25,.04-6.57-1-9.94-3.12l1.82-.26c2.21-.56,3.32-2.21,3.32-4.94,0-1.52-.53-2.86-1.59-4.03-1.06-1.17-2.4-1.76-4-1.76-3.86,.04-5.81,2.14-5.85,6.31-.09,3.6,1.73,6.33,5.46,8.19,3.03,1.56,6.39,2.33,10.07,2.33,8.71,0,17.59-3.88,26.65-11.63,4.29-3.6,8.15-7.63,11.57-12.09,1.6-2.04,3.18-4.27,4.74-6.7,1.78-2.73,4.29-6.98,7.54-12.74l9.16-15.99,4.35-7.08c3.08-4.77,6.24-8.86,9.49-12.29l4.36-4.36c2.47,3.6,3.7,6.87,3.7,9.82,0,4.81-1.46,9.46-4.39,13.94-2.92,4.48-6.71,7.57-11.34,9.26-1.56,.56-3.04,.93-4.42,1.1l-3.45,.26c-.69,.04-1.19,.15-1.5,.33l-.39,.45-.13,.78,.2,.84,.26,.39c.26,.22,.78,.35,1.56,.39l3.57,.39c2.43,.48,4.66,1.3,6.7,2.47,4.29,2.65,6.43,6.76,6.43,12.35-.04,6.54-2.21,12.57-6.5,18.07-4.81,6.16-10.25,9.25-16.31,9.3-2.51,0-4.62-.69-6.31-2.08-1.91-1.56-2.88-3.51-2.92-5.85-.04-1.47,.5-3.21,1.62-5.2l1.11-2.01c.26-.52,.41-1.04,.45-1.56l-.32-.78-.84-.78c-.56-.26-1.21-.41-1.95-.45-2.38,.04-4.42,1.11-6.11,3.18-1.69,2.08-2.54,4.33-2.54,6.76,.04,3.38,1.93,6.26,5.66,8.64,3.03,1.91,6.45,2.86,10.27,2.86,5.29,.05,10.46-1.37,15.53-4.26,5.07-2.88,9.21-6.69,12.42-11.4,3.47-5.03,5.24-10.31,5.33-15.86,0-2.73-.64-5.38-1.92-7.96-1.28-2.58-3.15-4.63-5.62-6.14-1.34-.82-2.97-1.69-4.88-2.6l4.55-1.75c4.12-1.82,7.54-4.57,10.27-8.26,2.99-3.99,4.48-8.12,4.48-12.41s-1.39-8.49-4.16-12.09l-3.18-3.71,1.69-1.17c3.33-2.21,7.1-3.68,11.31-4.42,.52-.04,.93-.19,1.24-.46l.39-.52v-.72l-.46-.65ZM61.01,24.42c6.37-4.16,13.02-7.26,19.96-9.29,2.95-.82,5.85-1.26,8.71-1.3,6.2,0,9.34,2.11,9.42,6.31-.13,4.29-2.45,7.66-6.95,10.11-4.51,2.45-9.4,3.67-14.69,3.67-6.46-.04-11.98-1.64-16.57-4.81l-3.19-2.47,3.32-2.21Z"/><path class="uuid-d457a642-2285-470c-91e7-00c5278ff7ac" d="M133.11,50.62l-.78-.39-2.08,.13c-3.51,.69-6.67,1.58-9.49,2.66l-5.66,2.41-2.66-1.43c-6.24-3.12-13.31-4.79-21.1-5.22-5.89-.32-7.66-.36-13.08,.56-1.06,.2-4.76,1.85-5.65,2.31-.03,.01-.06,.02-.09,.03h-.01c-1.55,.84-2.86,2.06-3.91,3.7l-2.6,4.62c-1.34,2.51-2.6,4.44-3.77,5.78-1.39,1.6-3.4,3.31-6.05,5.14-5.07,3.55-9.88,5.35-14.43,5.39-6.8-.09-10.16-3.42-10.08-10.01,0-5.76,1.99-12.24,5.98-19.44,3.38-6.07,7.67-11.38,12.87-15.92l3.77-3.12,3.64,2.54c6.59,4.2,13.91,6.3,21.97,6.3,5.9,.09,11.2-1.23,15.93-3.97,6.11-3.46,9.21-7.78,9.29-12.93,.09-4.81-3.1-7.84-9.55-9.1-1.91-.39-3.77-.58-5.59-.58-5.37,.04-11.01,.95-16.9,2.73-5.29,1.65-10.33,3.75-15.15,6.31l-4.42,2.47-1.17-2.41c-.61-1.51-.91-3.29-.91-5.33,.04-4.89,1.71-8.69,5-11.38l.65-.58c.26-.3,.41-.63,.45-.98,.04-.34-.07-.58-.33-.71l-.71-.19c-.44,.04-.87,.22-1.3,.52-4.29,3.34-6.46,8.04-6.5,14.1,0,2.82,.5,5.18,1.49,7.09l.91,1.56-2.28,1.56c-9.88,6.93-17.16,14.93-21.84,23.99-2.64,5.03-3.94,10.31-3.9,15.86-.04,4.59,1.28,8.25,3.97,10.98,2.9,2.95,6.5,4.42,10.79,4.42,5.5,.04,11.03-1.62,16.57-5.01l2.73-1.69c-3.08,4.59-5.89,8.54-8.45,11.83-5.94,7.71-12.03,13.09-18.26,16.12-2.82,1.39-5.83,2.06-9.04,2.01-3.81,0-7.06-.97-9.75-2.92-3.25-2.29-4.85-5.2-4.81-8.71l.19-2.08,1.1,.32c1.26,.09,2.32-.43,3.19-1.56,.87-1.13,1.3-2.38,1.3-3.77,.04-3.77-1.73-5.67-5.33-5.72-2.34,0-4.2,1.06-5.59,3.18C.52,83.91-.04,86.02,0,88.4c-.04,5.24,1.99,9.62,6.11,13.13,3.6,3.03,8.23,4.55,13.91,4.55,4.42,0,8.95-.8,13.58-2.4,4.81-1.65,9.19-3.9,13.13-6.76,6.33-4.55,12.67-11.74,19.04-21.58l2.41-3.9,2.27-4.03,2.27-3.72c5.37-9.62,6.69-9.54,6.69-9.61,2.93-2.03,4.99-2.02,10.13-2.03,7.63,0,13.71,1.82,18.26,5.46l2.02,1.82-1.95,1.24c-6.98,4.94-17.03,17.92-30.16,38.94l-13.39,21.51-5.07,7.28c-3.86,5.24-8.04,9.12-12.55,11.63-2.77,1.61-6.07,2.39-9.88,2.34-3.25,.04-6.56-1-9.94-3.12l1.82-.26c2.21-.56,3.31-2.21,3.31-4.94,0-1.52-.53-2.86-1.59-4.03-1.06-1.17-2.39-1.76-4-1.76-3.86,.05-5.81,2.15-5.85,6.31-.09,3.6,1.73,6.33,5.46,8.19,3.03,1.56,6.39,2.34,10.07,2.34,8.71,0,17.59-3.88,26.65-11.64,4.29-3.6,8.15-7.63,11.57-12.09,1.6-2.04,3.19-4.27,4.74-6.7,1.78-2.73,4.29-6.98,7.54-12.74l9.16-15.99,4.35-7.09c3.08-4.77,6.24-8.86,9.49-12.28l4.36-4.36c2.47,3.6,3.71,6.87,3.71,9.82,0,4.81-1.46,9.46-4.39,13.94-2.93,4.48-6.71,7.57-11.34,9.26-1.56,.56-3.03,.93-4.42,1.1l-3.44,.26c-.69,.04-1.19,.15-1.5,.33l-.39,.45-.13,.78,.19,.85,.26,.39c.26,.22,.78,.35,1.56,.39l3.58,.39c2.43,.48,4.66,1.3,6.7,2.47,4.29,2.64,6.43,6.76,6.43,12.35-.04,6.54-2.21,12.57-6.5,18.07-4.81,6.15-10.25,9.25-16.32,9.29-2.51,0-4.61-.69-6.3-2.08-1.91-1.56-2.88-3.51-2.92-5.85-.05-1.47,.5-3.2,1.62-5.2l1.11-2.02c.26-.52,.41-1.04,.45-1.56l-.33-.78-.84-.78c-.56-.26-1.21-.41-1.95-.46-2.38,.04-4.42,1.11-6.11,3.19-1.69,2.08-2.53,4.33-2.53,6.76,.04,3.38,1.93,6.26,5.65,8.65,3.03,1.91,6.46,2.86,10.27,2.86,5.29,.04,10.46-1.38,15.53-4.26,5.07-2.88,9.21-6.68,12.42-11.4,3.47-5.03,5.24-10.31,5.33-15.86,0-2.73-.64-5.38-1.92-7.96-1.28-2.58-3.15-4.62-5.62-6.14-1.35-.82-2.97-1.69-4.88-2.6l4.55-1.75c4.12-1.82,7.54-4.57,10.27-8.25,2.99-3.99,4.48-8.13,4.48-12.42s-1.39-8.49-4.16-12.09l-3.18-3.7,1.69-1.17c3.34-2.21,7.11-3.68,11.31-4.42,.52-.04,.93-.2,1.24-.46l.39-.52v-.71l-.45-.65ZM60.19,23.4c6.37-4.16,13.02-7.26,19.96-9.3,2.95-.82,5.85-1.26,8.71-1.3,6.19,0,9.34,2.1,9.42,6.31-.13,4.29-2.45,7.66-6.95,10.11-4.51,2.45-9.4,3.67-14.69,3.67-6.46-.04-11.98-1.64-16.57-4.81l-3.19-2.47,3.31-2.21Z"/></g></g></g></g></g></svg>