<?xml version="1.0" encoding="UTF-8"?><svg xmlns="http://www.w3.org/2000/svg" viewBox="0 0 684.09 146.01"><defs><style>.uuid-8e54dd53-5fcf-4b4f-86dc-62d551c77226{stroke:#fff;stroke-width:.86px;}.uuid-8e54dd53-5fcf-4b4f-86dc-62d551c77226,.uuid-3a7ce28e-c1c8-40ea-ae79-d40d4f6ba902{fill:#808285;}.uuid-293be40c-dfdf-4719-bdc0-5cb71a425485{fill:#fff;}.uuid-51672273-4110-449d-bc87-872dc97dbe9f{opacity:.25;}.uuid-51672273-4110-449d-bc87-872dc97dbe9f,.uuid-1240c8b0-03c0-497b-ab10-d1d0ae935e25,.uuid-572c72b4-3e30-42ca-83de-20c88ef0812a,.uuid-025df22f-8332-4b18-a340-5cde6ae43d3a,.uuid-c936fa13-606a-4086-b3c4-81f675caa1bd,.uuid-5ad7c79c-02b9-4de2-af8c-5a116870df0b,.uuid-3a407af7-c3aa-4091-965f-c877f60dfc00{mix-blend-mode:color-burn;}.uuid-51672273-4110-449d-bc87-872dc97dbe9f,.uuid-5ad7c79c-02b9-4de2-af8c-5a116870df0b{fill:#00a88f;}.uuid-1240c8b0-03c0-497b-ab10-d1d0ae935e25{opacity:.26;}.uuid-1240c8b0-03c0-497b-ab10-d1d0ae935e25,.uuid-c936fa13-606a-4086-b3c4-81f675caa1bd{fill:#8ca4d5;}.uuid-572c72b4-3e30-42ca-83de-20c88ef0812a{fill:#f1645d;}.uuid-572c72b4-3e30-42ca-83de-20c88ef0812a,.uuid-025df22f-8332-4b18-a340-5cde6ae43d3a,.uuid-c936fa13-606a-4086-b3c4-81f675caa1bd,.uuid-5ad7c79c-02b9-4de2-af8c-5a116870df0b,.uuid-3a407af7-c3aa-4091-965f-c877f60dfc00{opacity:.5;}.uuid-025df22f-8332-4b18-a340-5cde6ae43d3a{fill:#ffe512;}.uuid-3a407af7-c3aa-4091-965f-c877f60dfc00{fill:#0096d6;}.uuid-76f3a467-bfd8-47e5-ab8b-dabc79152274{isolation:isolate;}.uuid-3a7ce28e-c1c8-40ea-ae79-d40d4f6ba902{opacity:.7;}</style></defs><g class="uuid-76f3a467-bfd8-47e5-ab8b-dabc79152274"><g id="uuid-7f08fb49-6496-4781-95e9-79aa5ae48120"><g><g><line class="uuid-8e54dd53-5fcf-4b4f-86dc-62d551c77226" x1="681.07" y1="35.8" x2="607.02" y2="35.8"/><line class="uuid-8e54dd53-5fcf-4b4f-86dc-62d551c77226" x1="264.91" y1="35.79" x2="185.58" y2="35.79"/></g><g><path class="uuid-293be40c-dfdf-4719-bdc0-5cb71a425485" d="M298.32,35.05c0,8.03-5.83,15.14-13.86,15.14-7.3,0-9.38-5.99-9.38-10.2,0-7.88,5.95-15.1,13.9-15.1,4.48,0,9.35,2.82,9.35,10.16Zm-19.89,5.41c0,6.64,3.82,8.42,6.56,8.42,6.18,0,10.08-7.72,10.08-14.09,0-2.43-.66-8.57-6.57-8.57s-10.08,7.03-10.08,14.25Z"/><path class="uuid-293be40c-dfdf-4719-bdc0-5cb71a425485" d="M300.22,38.75v-.85c0-.35,0-.46,.46-1.2,.5-.89,2.2-3.67,4.4-3.67,1.47,0,1.47,1.08,1.47,1.47,0,.85-.42,2.82-.58,3.48-.19,.97-1.27,5.17-1.47,6.02,.39-.81,2.01-4.44,2.36-5.17,2.12-4.13,3.59-5.79,5.6-5.79,1,0,2.24,.5,2.24,2.2,0,1.23-.69,2.08-1.78,2.08-1,0-1.12-.7-1.12-.96,0-.73,0-1.2-.46-1.2-.89,0-3.98,3.24-7.61,13.36-.35,1-.73,1.62-1.7,1.62-.42,0-1.24-.23-1.24-.93,0-.39,.19-1.08,.27-1.39,.93-3.05,3.2-11.35,3.2-11.86,0-.12,0-.31-.27-.31-1.24,0-2.74,2.12-3.44,3.09h-.35Z"/><path class="uuid-293be40c-dfdf-4719-bdc0-5cb71a425485" d="M315.63,35.43c-.23,0-.19-.15-.15-.39l.12-.5q.08-.31,.46-.35l2.36-.31,1-3.44c.19-.66,.23-.85,.77-.96,.27-.04,1.24-.19,1.58-.19,.5,0,.5,.23,.5,.39,0,.12,0,.27-.08,.46l-1.08,3.71h4.67c.31,0,.35,0,.31,.27l-.23,1.16c-.04,.15-.19,.15-.35,.15h-4.86l-.89,3.21c-1.51,5.4-2.08,7.1-2.08,8.26,0,.12,0,.39,.31,.39,.46,0,1.89-.62,5.17-2.97h.23l.04,.62c0,.31-.08,.39-.7,.97-1.04,.93-4.63,4.25-6.53,4.25-1.16,0-1.16-1.16-1.16-1.7,0-1.7,.62-4.13,2.12-9.81l.81-3.21h-2.36Z"/><path class="uuid-293be40c-dfdf-4719-bdc0-5cb71a425485" d="M337.99,32.96c2.9,0,2.9,3.01,2.9,3.63,0,5.75-4.56,13.48-7.92,13.48-.15,0-1.12-.08-1.12-.77,0-.23,.15-1.85,1.62-1.85,.42,0,1.31,.08,1.74-.15,.62-.35,1.01-1.35,1.58-3.4,1.08-3.63,1.35-5.06,1.35-6.37,0-.62,0-2.28-1.58-2.28-2.9,0-7.1,5.68-8.77,13.05-.31,1.43-.35,1.7-1.16,1.7-.46,0-1.35-.23-1.35-1.04,0-.19,.39-1.54,.58-2.32,1.78-6.72,4.75-19.96,4.75-21.28,0-.27,0-1.04-1.16-1.31-.62-.15-.7-.15-.7-.39,0-.42,.15-.46,.93-.62,.77-.15,3.44-.62,4.32-.62,.12,0,.46,0,.46,.39,0,.12-.58,1.74-.7,2.09-.35,1.23-1.58,5.52-2.66,9.81-.85,3.48-1,4.13-1.54,5.91,1.04-1.81,4.56-7.65,8.42-7.65Z"/><path class="uuid-293be40c-dfdf-4719-bdc0-5cb71a425485" d="M357,38.79c0,4.75-3.51,11.39-9.35,11.39-1.12,0-2.97-.23-4.09-2.32-.62-1.16-.66-2.59-.66-3.2,0-5.45,3.74-11.66,9.38-11.66,3.55,0,4.71,3.01,4.71,5.79Zm-11.24,6.64c0,2.05,.81,3.55,2.28,3.55,3.75,0,6.14-7.18,6.14-10.93,0-2.9-1.35-3.82-2.43-3.82-3.75,0-5.99,7.72-5.99,11.2Z"/><path class="uuid-293be40c-dfdf-4719-bdc0-5cb71a425485" d="M375.34,43.5v.73c0,.46,0,.89-1.04,2.39-1.55,2.28-2.97,3.63-4.44,3.63-.62,0-1.27-.35-1.27-1.31,0-.39,.35-1.85,.54-2.78,.23-.92,1.2-5.06,1.39-5.87-1.51,3.09-2.82,5.79-5.44,8.18-1.31,1.24-2.32,1.74-3.4,1.74-1.93,0-3.05-1.81-3.05-4.21,0-4.79,4.94-12.78,10-12.78,1.58,0,2.32,.58,2.78,.96,.81-3.78,1.51-8.03,1.51-8.61,0-.46-.08-1.08-1.78-1.08-.54,0-.73,0-.73-.31,0-.62,.27-.66,.73-.77,.54-.12,4.6-1,4.9-1,.23,0,.42,.12,.42,.35s-1.31,5.21-1.54,6.22c-.96,4.25-3.9,17.69-3.9,18.42,0,.12,.04,.19,.23,.19,.89,0,2.82-2.28,3.82-4.09h.27Zm-13.94,1.74c0,1.04,.31,2.55,1.51,2.55s3.13-2.01,3.82-2.82c1.85-2.16,4.05-6.26,4.05-8.03,0-2.05-1.31-2.43-2.2-2.43-3.48,0-7.18,7.41-7.18,10.74Z"/><path class="uuid-293be40c-dfdf-4719-bdc0-5cb71a425485" d="M391.33,38.79c0,4.75-3.51,11.39-9.34,11.39-1.12,0-2.97-.23-4.09-2.32-.62-1.16-.66-2.59-.66-3.2,0-5.45,3.74-11.66,9.38-11.66,3.55,0,4.71,3.01,4.71,5.79Zm-11.24,6.64c0,2.05,.81,3.55,2.28,3.55,3.75,0,6.14-7.18,6.14-10.93,0-2.9-1.35-3.82-2.43-3.82-3.75,0-5.99,7.72-5.99,11.2Z"/><path class="uuid-293be40c-dfdf-4719-bdc0-5cb71a425485" d="M394.08,39.22v-.73c0-.81,.62-1.93,1.12-2.63,.54-.89,2.01-2.9,3.86-2.9,.97,0,1.47,.66,1.47,1.27,0,.77-.58,2.47-1.27,4.56-.35,1-.62,1.74-1.31,3.94,3.05-5.41,7.14-9.65,9.5-9.65,1.66,0,2.09,1.39,2.09,2.74,0,1.58-.93,4.83-1.31,6.02-.27,.89-1.39,4.75-1.39,4.9,0,.04,0,.12,.08,.12,.19,0,1.89-1.16,4.29-4.36l.19,.04v.58c0,.42,.04,.69-.97,2.05-1.2,1.62-3.9,5.02-5.64,5.02-.89,0-.96-.77-.96-1.04,0-.81,.42-1.78,1.66-6.26,.73-2.63,1.39-5.17,1.39-6.22,0-.73-.31-1.16-1-1.16-1.89,0-4.67,4.71-6.02,7.14-1.12,2.01-2.55,5.41-2.74,5.95-.27,.77-.58,1.58-1.54,1.58-.62,0-1-.35-1-.81,0-.93,3.63-11.89,3.63-13.01,0-.27-.12-.42-.39-.42-1.2,0-2.74,2.24-3.51,3.32l-.19-.04Z"/><path class="uuid-293be40c-dfdf-4719-bdc0-5cb71a425485" d="M414.32,35.43c-.23,0-.19-.15-.15-.39l.12-.5q.08-.31,.46-.35l2.36-.31,1-3.44c.19-.66,.23-.85,.77-.96,.27-.04,1.24-.19,1.58-.19,.5,0,.5,.23,.5,.39,0,.12,0,.27-.08,.46l-1.08,3.71h4.67c.31,0,.35,0,.31,.27l-.23,1.16c-.04,.15-.19,.15-.35,.15h-4.86l-.89,3.21c-1.51,5.4-2.08,7.1-2.08,8.26,0,.12,0,.39,.31,.39,.46,0,1.89-.62,5.17-2.97h.23l.04,.62c0,.31-.08,.39-.7,.97-1.04,.93-4.63,4.25-6.53,4.25-1.16,0-1.16-1.16-1.16-1.7,0-1.7,.62-4.13,2.12-9.81l.81-3.21h-2.36Z"/><path class="uuid-293be40c-dfdf-4719-bdc0-5cb71a425485" d="M431.43,44.85l-.04,.7c0,.54-.73,1.24-1.27,1.78-2.78,2.74-3.9,2.86-4.6,2.86-1.27,0-1.27-1.16-1.27-1.35,0-1.43,4.33-12.94,4.33-13.36,0-.12-.08-.16-.15-.16-.73,0-2.59,1.66-3.51,2.47l-.19,.04-.04-.62c0-.35,.77-1.08,1.2-1.5,.77-.77,2.93-2.63,4.52-2.63,1.08,0,1.08,.73,1.08,.97,0,.62-.39,1.62-.85,2.86-.27,.77-3.67,10-3.67,10.46,0,.35,.12,.42,.27,.42,.46,0,2.28-1.04,3.98-2.93h.23Zm1.27-18.73c0,.85-.93,1.62-1.7,1.62-.81,0-1.58-.85-1.58-1.54,0-.73,.81-1.66,1.7-1.66,.58,0,1.58,.66,1.58,1.58Z"/><path class="uuid-293be40c-dfdf-4719-bdc0-5cb71a425485" d="M443.76,44.47c.39,.39,.46,.5,.46,.62,0,.23-2.55,5.1-6.29,5.1-2.05,0-4.25-1.51-4.25-5.37,0-4.75,3.55-11.74,9.11-11.74,1.31,0,3.71,.46,3.71,1.93,0,.66-.19,1.47-1.31,1.47-1.2,0-2.47-2.09-3.55-2.09-2.86,0-5.21,6.45-5.21,9.62,0,.93,.15,1.97,.77,2.78,.39,.54,1.08,1.04,2.01,1.04,1.16,0,2.98-.93,4.48-3.36h.08Z"/><path class="uuid-293be40c-dfdf-4719-bdc0-5cb71a425485" d="M461.99,50.19c-1.66,0-3.44-.27-4.48-.5-1.08-.23-1.31-.27-1.58-.27-.19,0-.35,.04-.46,.04-.15,0-.19-.23-.19-.39,0-1.27,.31-4.25,.43-5.06,.19-1.12,.19-1.23,.62-1.23,.5,0,.62,.08,.62,.54,0,2.12,0,2.28,.27,3.01,.66,1.78,3.44,2.51,4.94,2.51,3.05,0,5.06-2.28,5.06-4.67,0-2.12-1.04-3.13-5.02-6.6-2.08-1.85-3.75-3.44-3.75-6.14,0-1.7,1.16-6.53,7.88-6.53,1.82,0,3.9,.54,4.48,.54,.23,0,.66-.04,.81-.04,.23,0,.27,.19,.27,.31,0,.19-.39,2.32-.46,2.59-.08,.39-.27,2.08-.31,2.43-.04,.19-.12,.27-.35,.27-.66,0-.66-.12-.66-1.16,0-2.01-.66-2.55-1.5-2.94-1.35-.66-2.63-.7-3.05-.7-2.98,0-4.25,2.47-4.25,4.25s.93,3.05,4.52,6.18c2.59,2.2,4.4,3.86,4.4,6.8,0,2.67-1.97,6.76-8.22,6.76Z"/><path class="uuid-293be40c-dfdf-4719-bdc0-5cb71a425485" d="M474.81,36.44c-.31,.08-.31,0-.31-.7q0-.19,.31-.27l2.7-.66c.12-.54,.46-2.63,.54-3.13,.23-.96,.54-1.66,1.82-1.66,.35,0,1.12,.04,1.12,.7,0,.31-.58,1.89-.85,3.51,1.23-.27,3.28-.7,5.17-.7,3.13,0,4.17,1.7,4.17,3.48,0,3.05-3.28,12.55-9.54,12.55-1.54,0-2.47-.39-2.89-.62-.31,1.51-1.43,7.57-1.43,8.65,0,1.27,.73,1.47,2.51,1.7,.85,.08,.93,.08,.93,.31,0,.12-.12,.42-.16,.5-.08,.08-.27,.08-.54,.08-.54,0-3.78-.08-4.44-.08-.62,0-3.4,.08-3.98,.08-.19,0-.31,0-.31-.23,0-.46,.04-.5,.81-.66,1.31-.23,1.89-.35,2.43-2.59,1.08-4.56,2.98-13.75,4.44-20.81l-2.51,.54Zm2.97,9.61c0,.5,0,2.4,2.24,2.4,3.86,0,6.52-7.92,6.52-10.66,0-2.24-1.97-2.55-3.78-2.55-1.08,0-1.97,.12-2.89,.19-1.66,7.45-2.09,9.65-2.09,10.62Z"/><path class="uuid-293be40c-dfdf-4719-bdc0-5cb71a425485" d="M502.43,45.13c.27,.39,.31,.42,.31,.5,0,.31-3.28,4.56-7.14,4.56-3.32,0-4.09-2.93-4.09-5.17,0-5.56,3.67-11.93,8.96-11.93,2.24,0,3.82,1.24,3.82,3.09,0,2.51-2.47,4.21-4.63,4.83-1.82,.54-3.2,.58-5.1,.69-.15,.89-.27,1.43-.27,2.24,0,.66,0,3.94,2.9,3.94,.93,0,2.89-.31,5.13-2.74h.12Zm-2.78-5.68c1.2-.81,2.05-2.2,2.05-3.44,0-1.08-.77-1.78-1.93-1.78-.97,0-3.75,.7-5.06,6.76,1.54-.16,3.32-.43,4.94-1.55Z"/><path class="uuid-293be40c-dfdf-4719-bdc0-5cb71a425485" d="M515.83,44.47c.39,.39,.46,.5,.46,.62,0,.23-2.55,5.1-6.3,5.1-2.05,0-4.25-1.51-4.25-5.37,0-4.75,3.55-11.74,9.11-11.74,1.31,0,3.71,.46,3.71,1.93,0,.66-.19,1.47-1.31,1.47-1.2,0-2.47-2.09-3.55-2.09-2.86,0-5.21,6.45-5.21,9.62,0,.93,.16,1.97,.77,2.78,.39,.54,1.08,1.04,2.01,1.04,1.16,0,2.97-.93,4.48-3.36h.08Z"/><path class="uuid-293be40c-dfdf-4719-bdc0-5cb71a425485" d="M526.42,44.85l-.04,.7c0,.54-.73,1.24-1.27,1.78-2.78,2.74-3.9,2.86-4.59,2.86-1.27,0-1.27-1.16-1.27-1.35,0-1.43,4.33-12.94,4.33-13.36,0-.12-.08-.16-.15-.16-.74,0-2.59,1.66-3.51,2.47l-.19,.04-.04-.62c0-.35,.77-1.08,1.2-1.5,.77-.77,2.93-2.63,4.52-2.63,1.08,0,1.08,.73,1.08,.97,0,.62-.39,1.62-.85,2.86-.27,.77-3.67,10-3.67,10.46,0,.35,.12,.42,.27,.42,.46,0,2.28-1.04,3.98-2.93h.23Zm1.27-18.73c0,.85-.93,1.62-1.7,1.62-.81,0-1.58-.85-1.58-1.54,0-.73,.81-1.66,1.7-1.66,.58,0,1.58,.66,1.58,1.58Z"/><path class="uuid-293be40c-dfdf-4719-bdc0-5cb71a425485" d="M544.49,42.62c.39,.31,.42,.35,.42,.46,0,.62-3.28,7.11-6.22,7.11-.92,0-1.47-.66-1.47-1.43,0-1.5,1.27-4.9,1.85-6.49-4.67,7.18-6.88,7.92-8.46,7.92-1.66,0-2.7-1.24-2.7-2.9,0-4.6,6.06-11.97,13.55-13.79,.23-.62,.43-1.2,1.24-1.2,.54,0,1.08,.08,1.08,.58,0,.31-3.98,12.16-3.98,13.48,0,.23,.08,.66,.62,.66,.85,0,2.28-1.2,3.9-4.44l.16,.04Zm-13.83,2.9c0,1.58,.81,1.97,1.54,1.97,2.36,0,7.84-6.68,7.84-10.12,0-1.12-.89-1.12-1.2-1.12-3.09,0-8.19,5.25-8.19,9.27Z"/><path class="uuid-293be40c-dfdf-4719-bdc0-5cb71a425485" d="M554,44.39v.54c0,.31-.04,.39-.62,1.04-1.81,2.01-4.13,4.21-5.64,4.21-.7,0-1.35-.43-1.35-1.55,0-.54,.08-1.2,.66-3.36,4.21-16.91,4.67-18.81,4.67-19.81s-.7-1.08-1.93-1.31c-.39-.08-.43-.08-.43-.23,0-.5,.08-.5,.89-.66,1.12-.19,4.17-.73,4.75-.73,.31,0,.39,.12,.39,.27,0,.04-6.14,23.05-6.14,23.98,0,.35,.19,.42,.35,.42,.66,0,2.47-1.2,4.17-2.82h.23Z"/><path class="uuid-293be40c-dfdf-4719-bdc0-5cb71a425485" d="M562.92,44.85l-.04,.7c0,.54-.73,1.24-1.27,1.78-2.78,2.74-3.9,2.86-4.6,2.86-1.27,0-1.27-1.16-1.27-1.35,0-1.43,4.33-12.94,4.33-13.36,0-.12-.08-.16-.15-.16-.74,0-2.59,1.66-3.51,2.47l-.19,.04-.04-.62c0-.35,.77-1.08,1.2-1.5,.77-.77,2.93-2.63,4.52-2.63,1.08,0,1.08,.73,1.08,.97,0,.62-.39,1.62-.85,2.86-.27,.77-3.67,10-3.67,10.46,0,.35,.12,.42,.27,.42,.46,0,2.28-1.04,3.98-2.93h.23Zm1.27-18.73c0,.85-.93,1.62-1.7,1.62-.81,0-1.58-.85-1.58-1.54,0-.73,.81-1.66,1.7-1.66,.58,0,1.58,.66,1.58,1.58Z"/><path class="uuid-293be40c-dfdf-4719-bdc0-5cb71a425485" d="M575.51,34.89c0,.97-.54,1.35-1.16,1.35-.66,0-1.97-1.04-3.4-1.04-1.7,0-2.08,1.04-2.08,1.58,0,1,.66,1.85,2.36,3.98,1.31,1.66,1.89,2.86,1.89,3.82,0,2.7-2.9,5.6-6.45,5.6-2.63,0-2.63-1.43-2.63-2.05,0-.85,.39-1.31,1.08-1.31,1,0,2.63,1.27,3.98,1.27,1.04,0,1.93-.73,1.93-1.78,0-.93-.77-2.05-1.62-3.2-2.08-2.74-2.51-3.28-2.51-4.52,0-2.16,2.51-5.52,5.99-5.52,.19,0,2.63,.08,2.63,1.82Z"/><path class="uuid-293be40c-dfdf-4719-bdc0-5cb71a425485" d="M577.29,35.43c-.23,0-.19-.15-.15-.39l.12-.5q.08-.31,.46-.35l2.36-.31,1-3.44c.19-.66,.23-.85,.77-.96,.27-.04,1.23-.19,1.58-.19,.5,0,.5,.23,.5,.39,0,.12,0,.27-.08,.46l-1.08,3.71h4.67c.31,0,.35,0,.31,.27l-.23,1.16c-.04,.15-.19,.15-.35,.15h-4.86l-.89,3.21c-1.51,5.4-2.09,7.1-2.09,8.26,0,.12,0,.39,.31,.39,.46,0,1.89-.62,5.17-2.97h.23l.04,.62c0,.31-.08,.39-.7,.97-1.04,.93-4.63,4.25-6.52,4.25-1.16,0-1.16-1.16-1.16-1.7,0-1.7,.62-4.13,2.12-9.81l.81-3.21h-2.36Z"/><path class="uuid-293be40c-dfdf-4719-bdc0-5cb71a425485" d="M597.68,34.89c0,.97-.54,1.35-1.16,1.35-.66,0-1.97-1.04-3.4-1.04-1.7,0-2.08,1.04-2.08,1.58,0,1,.66,1.85,2.36,3.98,1.31,1.66,1.89,2.86,1.89,3.82,0,2.7-2.9,5.6-6.45,5.6-2.63,0-2.63-1.43-2.63-2.05,0-.85,.39-1.31,1.08-1.31,1,0,2.63,1.27,3.98,1.27,1.04,0,1.93-.73,1.93-1.78,0-.93-.77-2.05-1.62-3.2-2.08-2.74-2.51-3.28-2.51-4.52,0-2.16,2.51-5.52,5.99-5.52,.19,0,2.63,.08,2.63,1.82Z"/></g><g><path class="uuid-293be40c-dfdf-4719-bdc0-5cb71a425485" d="M223.73,87.06l-2.22,.18c-.77-3.56-2.19-6.02-4.25-7.37-2.07-1.35-4.56-2.02-7.47-2.02-4.05,0-7.33,1.59-9.84,4.77-2.51,3.18-3.77,7.52-3.77,13.03,0,3.48,.5,6.68,1.5,9.59,1,2.91,2.6,5.25,4.8,7.03,2.2,1.78,4.97,2.67,8.31,2.67,1.52,0,2.68-.27,3.48-.82,.8-.55,1.2-1.63,1.2-3.25v-5.65c0-1.54-.12-2.61-.35-3.22-.23-.61-.82-1.04-1.76-1.31-.94-.26-2.5-.48-4.66-.64v-2.25h18.29v2.25c-.85,.12-1.49,.27-1.93,.44-.44,.17-.77,.43-.99,.76-.22,.33-.36,.8-.42,1.41-.06,.61-.09,1.46-.09,2.55v4.29c0,2.69,.12,4.61,.36,5.74-2.98,.83-5.46,1.45-7.46,1.87-1.99,.41-4.03,.62-6.09,.62-3.44,0-6.62-.48-9.54-1.46-2.92-.97-5.4-2.39-7.46-4.24-2.06-1.85-3.64-4.06-4.74-6.62-1.1-2.56-1.66-5.42-1.66-8.58,0-3.52,.63-6.64,1.88-9.36,1.26-2.71,3-5.01,5.24-6.88,2.24-1.87,4.79-3.28,7.64-4.21,2.86-.93,5.89-1.4,9.11-1.4,1.58,0,3.07,.09,4.47,.26,1.4,.17,2.7,.38,3.9,.62,1.21,.24,2.38,.51,3.51,.79,.02,.2,.35,3.67,1,10.39Z"/><path class="uuid-293be40c-dfdf-4719-bdc0-5cb71a425485" d="M234.25,110.51v-13.82c0-1.42-.07-2.37-.21-2.84-.14-.48-.45-.8-.91-.97-.47-.17-1.46-.35-2.98-.53v-1.67c3.36-.47,7.26-1.23,11.7-2.31v22.15c0,1.3,.08,2.2,.24,2.72,.16,.52,.53,.87,1.11,1.08,.58,.2,1.57,.36,2.96,.48v2.01h-16.19v-2.01c1.4-.12,2.38-.28,2.95-.48,.57-.2,.93-.56,1.09-1.08,.16-.52,.24-1.42,.24-2.72Zm3.31-36.58c1.28,0,2.35,.44,3.22,1.31,.87,.87,1.31,1.97,1.31,3.28,0,1.24-.44,2.31-1.32,3.21-.88,.9-1.95,1.35-3.21,1.35-.83,0-1.59-.21-2.28-.62-.69-.41-1.24-.98-1.66-1.69s-.62-1.46-.62-2.25c0-1.27,.46-2.36,1.37-3.25,.91-.89,1.97-1.34,3.19-1.34Z"/><path class="uuid-293be40c-dfdf-4719-bdc0-5cb71a425485" d="M270.86,96.26v12.88c0,2.37,.56,3.55,1.67,3.55,.61,0,1.4-.21,2.37-.64l.67,1.88-6.72,3.62c-2.79,0-4.56-1.38-5.29-4.13-.85,.59-1.53,1.06-2.05,1.41-.52,.35-1.14,.76-1.85,1.22-.72,.46-1.34,.82-1.87,1.09-.53,.27-.92,.41-1.18,.41-1.54,0-2.91-.39-4.1-1.15-1.2-.77-2.12-1.76-2.78-2.96-.66-1.2-.99-2.4-.99-3.6,0-1.6,.39-2.94,1.17-4.03,.78-1.08,1.99-1.97,3.63-2.66,.83-.32,1.97-.79,3.43-1.38,1.46-.6,2.75-1.15,3.87-1.67,1.12-.52,2.01-.99,2.66-1.41v-2.25c0-1.58-.37-2.76-1.11-3.54-.74-.78-1.72-1.17-2.93-1.17-.71,0-1.4,.28-2.07,.85-.95,.89-1.7,2.61-2.25,5.17-.18,.95-.94,1.43-2.28,1.43-.71,0-1.5-.3-2.37-.91-.87-.61-1.31-1.28-1.31-2.01,0-1.14,.73-2.25,2.19-3.34,1.17-.93,2.7-1.82,4.57-2.67,1.87-.85,3.93-1.48,6.18-1.88,2.33,0,4.31,.58,5.95,1.73,1.07,.75,1.8,1.62,2.19,2.63,.38,1,.58,2.18,.58,3.54Zm-7.35,14.89v-9.85c-.4,.2-1.09,.59-2.07,1.15-.97,.57-1.67,.97-2.1,1.22-1.88,1.05-2.82,2.6-2.82,4.65,0,1.3,.39,2.37,1.17,3.22,.78,.85,1.58,1.27,2.38,1.27,.89,0,2.04-.56,3.43-1.67Z"/><path class="uuid-293be40c-dfdf-4719-bdc0-5cb71a425485" d="M309.97,114.8v2.01h-14.71v-2.01c1.07-.12,1.84-.28,2.29-.48,.46-.2,.75-.56,.88-1.06,.13-.51,.2-1.4,.2-2.67v-12.24c0-1.78-.39-3.09-1.17-3.92-.78-.83-1.82-1.25-3.13-1.25-1.76,0-3.51,.79-5.27,2.37v15.04c0,1.28,.06,2.17,.18,2.67,.12,.51,.39,.86,.81,1.06,.42,.2,1.09,.36,2.02,.48v2.01h-15.07v-2.01c1.46-.12,2.48-.28,3.07-.48,.59-.2,.97-.55,1.14-1.05,.17-.49,.26-1.39,.26-2.69v-14.01c0-1.4-.07-2.33-.2-2.81-.13-.48-.43-.79-.88-.96-.46-.16-1.42-.33-2.9-.52v-1.67c1.96-.26,3.72-.55,5.26-.87,1.54-.31,3.65-.77,6.32-1.38v4.5c1.58-1.09,2.74-1.88,3.49-2.37,1.13-.73,2.11-1.27,2.92-1.61,.81-.34,1.72-.52,2.74-.52,1.64,0,3.07,.37,4.28,1.11,1.22,.74,2.14,1.74,2.78,3.01,.64,1.27,.96,2.72,.96,4.36v13.73c0,1.3,.08,2.19,.23,2.69,.15,.5,.48,.85,.97,1.05,.5,.2,1.34,.36,2.54,.48Z"/><path class="uuid-293be40c-dfdf-4719-bdc0-5cb71a425485" d="M345.37,114.8v2.01h-14.71v-2.01c1.07-.12,1.84-.28,2.29-.48,.46-.2,.75-.56,.88-1.06,.13-.51,.2-1.4,.2-2.67v-12.24c0-1.78-.39-3.09-1.17-3.92-.78-.83-1.82-1.25-3.13-1.25-1.76,0-3.51,.79-5.27,2.37v15.04c0,1.28,.06,2.17,.18,2.67,.12,.51,.39,.86,.81,1.06,.42,.2,1.09,.36,2.02,.48v2.01h-15.07v-2.01c1.46-.12,2.48-.28,3.07-.48,.59-.2,.97-.55,1.14-1.05,.17-.49,.26-1.39,.26-2.69v-14.01c0-1.4-.07-2.33-.2-2.81-.13-.48-.43-.79-.88-.96-.46-.16-1.42-.33-2.9-.52v-1.67c1.96-.26,3.72-.55,5.26-.87,1.54-.31,3.65-.77,6.32-1.38v4.5c1.58-1.09,2.74-1.88,3.49-2.37,1.13-.73,2.11-1.27,2.92-1.61,.81-.34,1.72-.52,2.74-.52,1.64,0,3.07,.37,4.28,1.11,1.22,.74,2.14,1.74,2.78,3.01,.64,1.27,.96,2.72,.96,4.36v13.73c0,1.3,.08,2.19,.23,2.69,.15,.5,.48,.85,.97,1.05,.5,.2,1.34,.36,2.54,.48Z"/><path class="uuid-293be40c-dfdf-4719-bdc0-5cb71a425485" d="M371.56,109.54l.88,1.24c-1.54,2.38-3.33,4.11-5.35,5.17s-3.77,1.6-5.23,1.6c-2.7,0-5.05-.61-7.06-1.82-2.01-1.21-3.54-2.85-4.61-4.9-1.07-2.06-1.6-4.26-1.6-6.61,0-2.94,.66-5.62,1.98-8.04,1.32-2.42,3.08-4.33,5.28-5.73,2.2-1.4,4.56-2.1,7.07-2.1,1.36,0,2.63,.26,3.82,.79,1.19,.53,2.22,1.23,3.09,2.13,.87,.89,1.56,1.91,2.05,3.07,.5,1.16,.74,2.33,.74,3.53,0,.77-.04,1.34-.11,1.7s-.19,.61-.37,.73c-.17,.12-.49,.23-.96,.34-.36,.08-2.26,.24-5.68,.48-3.42,.24-6.63,.43-9.63,.55,0,3.33,.86,5.88,2.58,7.65,1.72,1.77,3.85,2.65,6.38,2.65,1.15,0,2.24-.19,3.27-.56,1.02-.38,2.17-1,3.45-1.87Zm-15.43-10.73l8.15-.18c.46,0,.78-.09,.94-.27,.16-.18,.24-.59,.24-1.22,0-1.4-.44-2.73-1.32-4.01-.88-1.28-1.89-1.92-3.04-1.92s-2.24,.74-3.21,2.2c-.97,1.47-1.55,3.27-1.76,5.39Z"/><path class="uuid-293be40c-dfdf-4719-bdc0-5cb71a425485" d="M386.89,92.35v15.25c0,2.06,.37,3.52,1.12,4.37,.75,.85,1.54,1.28,2.37,1.28,1.01,0,2.09-.33,3.22-1l.88,1.94-5.35,2.67c-.95,.47-1.74,.7-2.37,.7-2.45,0-4.31-.61-5.57-1.82-1.27-1.21-1.9-3.18-1.9-5.89v-17.5h-3.98l-.43-.79,1.97-2.37h2.43v-3.86l6.53-4.98,1.06,.55v8.3h6.17c.32,.26,.49,.72,.49,1.37,0,.89-.31,1.49-.94,1.79h-5.71Z"/><path class="uuid-293be40c-dfdf-4719-bdc0-5cb71a425485" d="M407.8,92.35v15.25c0,2.06,.37,3.52,1.12,4.37,.75,.85,1.54,1.28,2.37,1.28,1.01,0,2.09-.33,3.22-1l.88,1.94-5.35,2.67c-.95,.47-1.74,.7-2.37,.7-2.45,0-4.31-.61-5.57-1.82-1.27-1.21-1.9-3.18-1.9-5.89v-17.5h-3.98l-.43-.79,1.97-2.37h2.43v-3.86l6.53-4.98,1.06,.55v8.3h6.17c.32,.26,.49,.72,.49,1.37,0,.89-.31,1.49-.94,1.79h-5.71Z"/><path class="uuid-293be40c-dfdf-4719-bdc0-5cb71a425485" d="M422.02,110.51v-13.82c0-1.42-.07-2.37-.21-2.84-.14-.48-.45-.8-.91-.97-.47-.17-1.46-.35-2.98-.53v-1.67c3.36-.47,7.26-1.23,11.7-2.31v22.15c0,1.3,.08,2.2,.24,2.72,.16,.52,.53,.87,1.11,1.08,.58,.2,1.57,.36,2.96,.48v2.01h-16.19v-2.01c1.4-.12,2.38-.28,2.95-.48,.57-.2,.93-.56,1.09-1.08,.16-.52,.24-1.42,.24-2.72Zm3.31-36.58c1.28,0,2.35,.44,3.22,1.31,.87,.87,1.31,1.97,1.31,3.28,0,1.24-.44,2.31-1.32,3.21-.88,.9-1.95,1.35-3.21,1.35-.83,0-1.59-.21-2.28-.62-.69-.41-1.24-.98-1.66-1.69s-.62-1.46-.62-2.25c0-1.27,.46-2.36,1.37-3.25,.91-.89,1.97-1.34,3.19-1.34Z"/><path class="uuid-293be40c-dfdf-4719-bdc0-5cb71a425485" d="M477,89.67h14.61v2.13c-1.31,.1-2.32,.29-3.02,.56-.7,.27-1.28,.65-1.75,1.14-.47,.48-1.26,1.45-2.37,2.89-.93,1.2-2.61,3.59-5.04,7.17,4.38,4.58,8,9.05,10.88,13.43l-.36,.76c-2.51-.06-4.68-.34-6.5-.84-1.82-.5-3.02-1.01-3.59-1.53-.2-.2-.54-.59-1-1.17s-1.06-1.32-1.79-2.23c-.73-.91-1.38-1.69-1.94-2.34-1.5,1.97-2.91,3.54-4.24,4.71-1.33,1.18-2.65,2.04-3.97,2.58-1.32,.55-2.72,.82-4.22,.82-2.74,0-5.07-.55-7-1.66-1.93-1.1-3.37-2.5-4.3-4.19-.93-1.69-1.4-3.46-1.4-5.3s.32-3.32,.96-4.66c.64-1.35,1.6-2.57,2.87-3.66,1.28-1.1,3.05-2.36,5.32-3.8-1.88-1.48-3.23-2.87-4.03-4.18-.8-1.31-1.2-2.9-1.2-4.78s.5-3.58,1.49-5.21c.99-1.63,2.33-2.92,4.01-3.87,1.68-.95,3.5-1.43,5.44-1.43s3.66,.39,5.19,1.17c1.54,.78,2.74,1.84,3.6,3.19,.86,1.35,1.29,2.86,1.29,4.54,0,2.23-.79,4.03-2.38,5.41-.9,.77-2.49,1.82-4.79,3.16,1.26,.93,2.76,2.18,4.51,3.75,1.75,1.57,3.44,3.27,5.09,5.09,.99-1.56,1.89-3.22,2.68-4.98,.75-1.54,1.13-2.57,1.13-3.1,0-.71-.73-1.12-2.19-1.25l-1.97-.18v-2.13Zm-11.82,22.67c1.38,0,2.78-.45,4.21-1.34,1.43-.89,2.74-2.1,3.93-3.64-1.9-2.17-3.78-4.08-5.64-5.74-1.85-1.66-3.9-3.34-6.13-5.04-2.85,2.27-4.27,4.82-4.27,7.66,0,2.55,.8,4.54,2.4,5.97,1.6,1.43,3.43,2.14,5.5,2.14Zm.1-21.91c1.19-.91,2.07-1.93,2.64-3.07,.57-1.14,.85-2.46,.85-3.98,0-1.42-.39-2.71-1.18-3.89-.79-1.18-1.95-1.76-3.48-1.76-1.19,0-2.16,.51-2.91,1.53-.74,1.02-1.12,2.32-1.12,3.87,0,1.3,.43,2.51,1.29,3.63,.86,1.13,2.16,2.35,3.92,3.66Z"/><path class="uuid-293be40c-dfdf-4719-bdc0-5cb71a425485" d="M511.5,107.18v-21.59c0-2.35-.11-4.01-.32-4.98-.21-.97-.62-1.62-1.23-1.93-.61-.31-1.69-.54-3.25-.68v-2.09h17.29c2.96,0,5.45,.32,7.49,.96,2.04,.64,3.59,1.66,4.66,3.05,1.07,1.4,1.61,3.18,1.61,5.35,0,1.74-.44,3.25-1.33,4.51-.89,1.27-2.03,2.26-3.44,2.99-1.4,.73-2.81,1.2-4.22,1.4v.12c2.24,.32,4.22,.92,5.92,1.78,1.71,.86,3.04,2.03,4,3.5,.96,1.47,1.44,3.21,1.44,5.24,0,4.15-1.83,7.32-5.5,9.51-2.82,1.66-6.86,2.49-12.12,2.49h-16.16v-2.01c1.7-.14,2.88-.37,3.54-.68,.66-.31,1.1-.96,1.31-1.93,.21-.97,.32-2.64,.32-5.01Zm7.78-24.77v11.25h1.43c2.84,0,5-.61,6.46-1.82,1.46-1.21,2.19-3.11,2.19-5.7s-.69-4.55-2.06-5.7c-1.37-1.15-3.05-1.73-5.04-1.73-1.34,0-2.19,.12-2.56,.36-.29,.18-.43,1.29-.43,3.34Zm0,13.86v10.63c0,2.01,.12,3.51,.35,4.53,.23,1.01,.64,1.72,1.22,2.11,.58,.39,1.44,.59,2.6,.59,2.13,0,3.95-.71,5.48-2.13,1.53-1.42,2.29-3.61,2.29-6.59s-.95-5.37-2.86-6.88-4.52-2.26-7.84-2.26h-1.25Z"/><path class="uuid-293be40c-dfdf-4719-bdc0-5cb71a425485" d="M559.7,88.37c2.8,0,5.26,.65,7.39,1.94,2.13,1.3,3.77,3.01,4.91,5.15,1.15,2.14,1.72,4.44,1.72,6.91,0,3.22-.67,5.99-2.02,8.29-1.35,2.31-3.12,4.04-5.31,5.18-2.19,1.14-4.52,1.72-7,1.72-3.04,0-5.65-.67-7.83-2.01-2.18-1.34-3.82-3.07-4.91-5.19-1.1-2.13-1.64-4.36-1.64-6.69s.42-4.55,1.25-6.48c.83-1.93,1.96-3.55,3.39-4.86,1.43-1.31,3.02-2.29,4.76-2.96,1.74-.67,3.51-1,5.29-1Zm-6.09,12.82c0,2.63,.26,4.99,.79,7.06,.53,2.08,1.27,3.71,2.25,4.9,.97,1.2,2.12,1.79,3.43,1.79,3.36,0,5.04-3.57,5.04-10.72,0-4.19-.56-7.44-1.67-9.74-1.11-2.3-2.67-3.45-4.68-3.45-1.4,0-2.61,.89-3.63,2.67-1.02,1.78-1.53,4.27-1.53,7.47Z"/><path class="uuid-293be40c-dfdf-4719-bdc0-5cb71a425485" d="M592.86,88.37c2.8,0,5.26,.65,7.39,1.94,2.13,1.3,3.77,3.01,4.91,5.15,1.15,2.14,1.72,4.44,1.72,6.91,0,3.22-.67,5.99-2.02,8.29-1.35,2.31-3.12,4.04-5.31,5.18-2.19,1.14-4.52,1.72-7,1.72-3.04,0-5.65-.67-7.83-2.01-2.18-1.34-3.82-3.07-4.91-5.19-1.09-2.13-1.64-4.36-1.64-6.69s.42-4.55,1.25-6.48c.83-1.93,1.96-3.55,3.39-4.86,1.43-1.31,3.02-2.29,4.76-2.96,1.74-.67,3.51-1,5.29-1Zm-6.09,12.82c0,2.63,.26,4.99,.79,7.06,.53,2.08,1.27,3.71,2.25,4.9,.97,1.2,2.12,1.79,3.43,1.79,3.36,0,5.04-3.57,5.04-10.72,0-4.19-.56-7.44-1.67-9.74-1.11-2.3-2.67-3.45-4.68-3.45-1.4,0-2.61,.89-3.63,2.67-1.02,1.78-1.53,4.27-1.53,7.47Z"/><path class="uuid-293be40c-dfdf-4719-bdc0-5cb71a425485" d="M614.63,110.57v-14.01c0-1.4-.06-2.33-.2-2.81-.13-.48-.43-.79-.88-.96-.45-.16-1.42-.33-2.9-.52v-1.67c1.96-.26,3.72-.55,5.26-.87,1.54-.31,3.65-.77,6.32-1.38v4.5c1.23-.89,2.33-1.64,3.3-2.25,1.14-.79,2.12-1.36,2.96-1.71,.84-.35,1.74-.53,2.69-.53,1.78,0,3.34,.44,4.68,1.32,1.34,.88,2.27,2.02,2.8,3.42,1.74-1.26,3.07-2.17,3.98-2.73,1.1-.71,2.01-1.22,2.73-1.53,.73-.31,1.62-.47,2.67-.47,1.76,0,3.27,.36,4.53,1.09,1.26,.73,2.2,1.73,2.83,2.99,.63,1.27,.94,2.73,.94,4.39v13.73c0,1.3,.08,2.19,.23,2.69,.15,.5,.47,.85,.96,1.05,.48,.2,1.32,.36,2.52,.48v2.01h-14.61v-2.01c1.5-.18,2.42-.49,2.78-.93,.35-.44,.53-1.53,.53-3.3v-12.24c0-1.78-.39-3.09-1.17-3.92-.78-.83-1.81-1.25-3.08-1.25-1.52,0-3.28,.81-5.29,2.43,.04,.24,.06,.64,.06,1.18v13.79c0,1.28,.07,2.17,.21,2.67s.44,.86,.9,1.06c.46,.2,1.19,.36,2.2,.48v2.01h-14.21v-2.01c1.05-.12,1.8-.28,2.24-.48,.44-.2,.73-.56,.86-1.06,.13-.51,.2-1.4,.2-2.67v-12.24c0-1.78-.38-3.09-1.14-3.92s-1.77-1.25-3.04-1.25c-1.7,0-3.45,.79-5.27,2.37v15.04c0,1.28,.06,2.17,.18,2.67,.12,.51,.38,.86,.76,1.06,.39,.2,1.04,.36,1.97,.48v2.01h-14.98v-2.01c1.46-.12,2.48-.28,3.07-.48,.59-.2,.97-.55,1.14-1.05,.17-.49,.26-1.39,.26-2.69Z"/><path class="uuid-293be40c-dfdf-4719-bdc0-5cb71a425485" d="M682.84,96.39l-2.08,.46c-.95-2.09-1.97-3.58-3.05-4.47-1.08-.89-2.18-1.34-3.29-1.34-1.01,0-1.87,.35-2.56,1.05-.7,.7-1.05,1.53-1.05,2.51,0,.91,.43,1.76,1.27,2.54,.85,.78,1.99,1.42,3.4,1.93,2.8,.99,4.93,2.19,6.4,3.59,1.47,1.4,2.2,3.27,2.2,5.62,0,2.98-1.17,5.27-3.51,6.88-2.34,1.61-5.01,2.41-8.01,2.41-1.11,0-2.21-.13-3.3-.38-1.08-.26-2.04-.57-2.87-.96-.83-.39-1.46-.79-1.88-1.22-.2-.55-.42-1.67-.64-3.37-.22-1.7-.33-3.19-.33-4.47l1.79-.15c.66,2.07,1.77,3.9,3.3,5.51s3.1,2.41,4.7,2.41c1.13,0,2.07-.38,2.8-1.14,.74-.76,1.1-1.72,1.1-2.87,0-2.15-1.57-3.84-4.7-5.08-1.4-.59-2.63-1.18-3.71-1.79-1.08-.61-2.07-1.49-2.97-2.64-.9-1.15-1.35-2.48-1.35-3.98,0-1.62,.42-3.12,1.27-4.51,.85-1.39,2.08-2.49,3.7-3.31,1.62-.82,3.5-1.24,5.67-1.26,2.25,0,4.26,.39,6.02,1.18,.28,.55,.6,1.62,.95,3.22,.35,1.6,.58,2.81,.7,3.62Z"/></g></g><g><g><path class="uuid-3a407af7-c3aa-4091-965f-c877f60dfc00" d="M125.41,105.02c0,5.7-4.62,10.32-10.33,10.32s-10.32-4.62-10.32-10.32,4.62-10.33,10.32-10.33,10.33,4.62,10.33,10.33Z"/><path class="uuid-1240c8b0-03c0-497b-ab10-d1d0ae935e25" d="M146.69,77.33c0,5.7-4.62,10.32-10.32,10.32s-10.33-4.62-10.33-10.32,4.62-10.32,10.33-10.32,10.32,4.62,10.32,10.32Z"/><path class="uuid-3a407af7-c3aa-4091-965f-c877f60dfc00" d="M25.3,73.23c0,5.7-4.62,10.33-10.33,10.33s-10.32-4.62-10.32-10.33,4.62-10.32,10.32-10.32,10.33,4.62,10.33,10.32Z"/><path class="uuid-5ad7c79c-02b9-4de2-af8c-5a116870df0b" d="M108.31,106.5c0,5.7-4.62,10.32-10.33,10.32s-10.32-4.62-10.32-10.32,4.62-10.32,10.32-10.32,10.33,4.62,10.33,10.32Z"/><path class="uuid-025df22f-8332-4b18-a340-5cde6ae43d3a" d="M114.83,106.52c0,5.7-4.62,10.32-10.33,10.32s-10.32-4.62-10.32-10.32,4.62-10.32,10.32-10.32,10.33,4.62,10.33,10.32Z"/><path class="uuid-3a407af7-c3aa-4091-965f-c877f60dfc00" d="M70.45,128.58c0,5.7-4.62,10.32-10.33,10.32s-10.32-4.62-10.32-10.32,4.62-10.33,10.32-10.33,10.33,4.62,10.33,10.33Z"/><path class="uuid-3a407af7-c3aa-4091-965f-c877f60dfc00" d="M45.71,41.35c0,5.7-4.62,10.32-10.33,10.32s-10.32-4.62-10.32-10.32,4.62-10.33,10.32-10.33,10.33,4.62,10.33,10.33Z"/><path class="uuid-5ad7c79c-02b9-4de2-af8c-5a116870df0b" d="M95.31,98.01c0,5.7-4.62,10.33-10.33,10.33s-10.32-4.62-10.32-10.33,4.62-10.32,10.32-10.32,10.33,4.62,10.33,10.32Z"/><path class="uuid-572c72b4-3e30-42ca-83de-20c88ef0812a" d="M135.64,63.16c0,5.7-4.62,10.32-10.32,10.32s-10.33-4.62-10.33-10.32,4.62-10.33,10.33-10.33,10.32,4.62,10.32,10.33Z"/><path class="uuid-51672273-4110-449d-bc87-872dc97dbe9f" d="M55.3,16.06c0,5.7-4.62,10.32-10.33,10.32s-10.32-4.62-10.32-10.32,4.62-10.32,10.32-10.32,10.33,4.62,10.33,10.32Z"/><path class="uuid-025df22f-8332-4b18-a340-5cde6ae43d3a" d="M33.05,72.56c0,5.7-4.62,10.33-10.33,10.33s-10.32-4.62-10.32-10.33,4.62-10.32,10.32-10.32,10.33,4.62,10.33,10.32Z"/><path class="uuid-5ad7c79c-02b9-4de2-af8c-5a116870df0b" d="M81.69,19.09c0,5.71-4.62,10.33-10.33,10.33s-10.32-4.62-10.32-10.33,4.62-10.32,10.32-10.32,10.33,4.62,10.33,10.32Z"/><path class="uuid-5ad7c79c-02b9-4de2-af8c-5a116870df0b" d="M67.99,23.35c0,5.7-4.62,10.32-10.33,10.32s-10.32-4.62-10.32-10.32,4.62-10.33,10.32-10.33,10.33,4.62,10.33,10.33Z"/><path class="uuid-3a407af7-c3aa-4091-965f-c877f60dfc00" d="M77.87,49.07c0,5.7-4.62,10.32-10.33,10.32s-10.32-4.62-10.32-10.32,4.62-10.33,10.32-10.33,10.33,4.62,10.33,10.33Z"/><path class="uuid-3a407af7-c3aa-4091-965f-c877f60dfc00" d="M96.42,72.71c0,5.7-4.62,10.33-10.33,10.33s-10.32-4.62-10.32-10.33,4.62-10.32,10.32-10.32,10.33,4.62,10.33,10.32Z"/><path class="uuid-3a407af7-c3aa-4091-965f-c877f60dfc00" d="M123.17,84.13c0,5.7-4.62,10.33-10.32,10.33s-10.33-4.62-10.33-10.33,4.62-10.32,10.33-10.32,10.32,4.62,10.32,10.32Z"/><path class="uuid-3a407af7-c3aa-4091-965f-c877f60dfc00" d="M114.58,64.97c0,5.7-4.62,10.33-10.33,10.33s-10.32-4.62-10.32-10.33,4.62-10.33,10.32-10.33,10.33,4.62,10.33,10.33Z"/><path class="uuid-5ad7c79c-02b9-4de2-af8c-5a116870df0b" d="M51.85,81.49c0,5.7-4.62,10.33-10.32,10.33s-10.32-4.62-10.32-10.33,4.62-10.33,10.32-10.33,10.32,4.62,10.32,10.33Z"/><path class="uuid-5ad7c79c-02b9-4de2-af8c-5a116870df0b" d="M59.96,17.8c0,5.7-4.62,10.33-10.33,10.33s-10.32-4.62-10.32-10.33,4.62-10.32,10.32-10.32,10.33,4.62,10.33,10.32Z"/><path class="uuid-5ad7c79c-02b9-4de2-af8c-5a116870df0b" d="M129.37,16.21c0,5.7-4.62,10.32-10.33,10.32s-10.32-4.62-10.32-10.32,4.62-10.32,10.32-10.32,10.33,4.62,10.33,10.32Z"/><path class="uuid-3a407af7-c3aa-4091-965f-c877f60dfc00" d="M92.72,28.78c0,5.7-4.62,10.33-10.33,10.33s-10.32-4.62-10.32-10.33,4.62-10.32,10.32-10.32,10.33,4.62,10.33,10.32Z"/><path class="uuid-025df22f-8332-4b18-a340-5cde6ae43d3a" d="M107.7,28.15c0,5.7-4.62,10.32-10.33,10.32s-10.33-4.62-10.33-10.32,4.62-10.33,10.33-10.33,10.33,4.62,10.33,10.33Z"/><path class="uuid-3a407af7-c3aa-4091-965f-c877f60dfc00" d="M30.01,61.66c0,5.7-4.62,10.33-10.33,10.33s-10.32-4.62-10.32-10.33,4.62-10.33,10.32-10.33,10.33,4.62,10.33,10.33Z"/><path class="uuid-5ad7c79c-02b9-4de2-af8c-5a116870df0b" d="M49.53,57.72c0,5.7-4.62,10.33-10.33,10.33s-10.32-4.62-10.32-10.33,4.62-10.32,10.32-10.32,10.33,4.62,10.33,10.32Z"/><path class="uuid-5ad7c79c-02b9-4de2-af8c-5a116870df0b" d="M69.65,121.42c0,5.7-4.62,10.33-10.33,10.33s-10.32-4.62-10.32-10.33,4.62-10.33,10.32-10.33,10.33,4.62,10.33,10.33Z"/><path class="uuid-5ad7c79c-02b9-4de2-af8c-5a116870df0b" d="M82.24,105.59c0,5.7-4.62,10.33-10.33,10.33s-10.33-4.62-10.33-10.33,4.62-10.32,10.33-10.32,10.33,4.62,10.33,10.32Z"/><path class="uuid-5ad7c79c-02b9-4de2-af8c-5a116870df0b" d="M142.41,100.11c0,5.7-4.62,10.32-10.33,10.32s-10.32-4.62-10.32-10.32,4.62-10.33,10.32-10.33,10.33,4.62,10.33,10.33Z"/><path class="uuid-025df22f-8332-4b18-a340-5cde6ae43d3a" d="M25.48,76.52c0,5.7-4.62,10.32-10.32,10.32s-10.32-4.62-10.32-10.32,4.62-10.33,10.32-10.33,10.32,4.62,10.32,10.33Z"/><path class="uuid-3a407af7-c3aa-4091-965f-c877f60dfc00" d="M25.78,77.21c0,5.7-4.62,10.33-10.33,10.33s-10.32-4.62-10.32-10.33,4.62-10.33,10.32-10.33,10.33,4.62,10.33,10.33Z"/><path class="uuid-3a407af7-c3aa-4091-965f-c877f60dfc00" d="M29.65,95.11c0,5.7-4.62,10.32-10.33,10.32s-10.32-4.62-10.32-10.32,4.62-10.33,10.32-10.33,10.33,4.62,10.33,10.33Z"/><path class="uuid-025df22f-8332-4b18-a340-5cde6ae43d3a" d="M48.84,111.24c0,5.7-4.62,10.33-10.33,10.33s-10.32-4.62-10.32-10.33,4.62-10.33,10.32-10.33,10.33,4.62,10.33,10.33Z"/><path class="uuid-3a407af7-c3aa-4091-965f-c877f60dfc00" d="M109.17,89c0,5.7-4.62,10.32-10.32,10.32s-10.32-4.62-10.32-10.32,4.62-10.33,10.32-10.33,10.32,4.62,10.32,10.33Z"/><path class="uuid-025df22f-8332-4b18-a340-5cde6ae43d3a" d="M130.28,52.29c0,5.7-4.62,10.32-10.33,10.32s-10.32-4.62-10.32-10.32,4.62-10.33,10.32-10.33,10.33,4.62,10.33,10.33Z"/><path class="uuid-025df22f-8332-4b18-a340-5cde6ae43d3a" d="M137.39,64.3c0,5.7-4.62,10.33-10.33,10.33s-10.32-4.62-10.32-10.33,4.62-10.32,10.32-10.32,10.33,4.62,10.33,10.32Z"/><path class="uuid-3a407af7-c3aa-4091-965f-c877f60dfc00" d="M61.63,39.71c0,5.7-4.62,10.32-10.33,10.32s-10.32-4.62-10.32-10.32,4.62-10.33,10.32-10.33,10.33,4.62,10.33,10.33Z"/><path class="uuid-025df22f-8332-4b18-a340-5cde6ae43d3a" d="M69.4,62.04c0,5.7-4.62,10.33-10.33,10.33s-10.32-4.62-10.32-10.33,4.62-10.32,10.32-10.32,10.33,4.62,10.33,10.32Z"/><path class="uuid-5ad7c79c-02b9-4de2-af8c-5a116870df0b" d="M32.59,117.14c0,5.7-4.62,10.33-10.32,10.33s-10.32-4.62-10.32-10.33,4.62-10.33,10.32-10.33,10.32,4.62,10.32,10.33Z"/><path class="uuid-572c72b4-3e30-42ca-83de-20c88ef0812a" d="M145.07,115.82c0,5.7-4.62,10.33-10.32,10.33s-10.33-4.62-10.33-10.33,4.62-10.33,10.33-10.33,10.32,4.62,10.32,10.33Z"/><path class="uuid-572c72b4-3e30-42ca-83de-20c88ef0812a" d="M40.15,25.16c0,5.7-4.62,10.32-10.33,10.32s-10.32-4.62-10.32-10.32,4.62-10.33,10.32-10.33,10.33,4.62,10.33,10.33Z"/><path class="uuid-572c72b4-3e30-42ca-83de-20c88ef0812a" d="M39.38,128.71c0,5.7-4.62,10.33-10.32,10.33s-10.32-4.63-10.32-10.33,4.62-10.32,10.32-10.32,10.32,4.62,10.32,10.32Z"/><path class="uuid-572c72b4-3e30-42ca-83de-20c88ef0812a" d="M108.25,42.25c0,5.7-4.62,10.32-10.32,10.32s-10.32-4.62-10.32-10.32,4.62-10.32,10.32-10.32,10.32,4.62,10.32,10.32Z"/><path class="uuid-572c72b4-3e30-42ca-83de-20c88ef0812a" d="M90.14,61.63c0,5.7-4.62,10.32-10.33,10.32s-10.32-4.62-10.32-10.32,4.62-10.33,10.32-10.33,10.33,4.62,10.33,10.33Z"/><path class="uuid-572c72b4-3e30-42ca-83de-20c88ef0812a" d="M136.3,38.68c0,5.7-4.62,10.33-10.33,10.33s-10.32-4.62-10.32-10.33,4.62-10.32,10.32-10.32,10.33,4.62,10.33,10.32Z"/><path class="uuid-572c72b4-3e30-42ca-83de-20c88ef0812a" d="M130.95,80.51c0,5.7-4.62,10.33-10.33,10.33s-10.32-4.62-10.32-10.33,4.62-10.32,10.32-10.32,10.33,4.62,10.33,10.32Z"/><path class="uuid-572c72b4-3e30-42ca-83de-20c88ef0812a" d="M27.65,22.61c0,5.7-4.62,10.32-10.33,10.32s-10.32-4.62-10.32-10.32,4.62-10.32,10.32-10.32,10.33,4.62,10.33,10.32Z"/><path class="uuid-3a407af7-c3aa-4091-965f-c877f60dfc00" d="M89.36,15.6c0,5.7-4.62,10.32-10.32,10.32s-10.32-4.62-10.32-10.32,4.62-10.33,10.32-10.33,10.32,4.62,10.32,10.33Z"/><circle class="uuid-3a407af7-c3aa-4091-965f-c877f60dfc00" cx="22.12" cy="19.16" r="10.32"/><path class="uuid-3a407af7-c3aa-4091-965f-c877f60dfc00" d="M24.28,38.8c0,5.7-4.62,10.33-10.33,10.33s-10.32-4.62-10.32-10.33,4.62-10.32,10.32-10.32,10.33,4.62,10.33,10.32Z"/><path class="uuid-c936fa13-606a-4086-b3c4-81f675caa1bd" d="M27.09,17.38c0,5.7-4.62,10.33-10.33,10.33s-10.32-4.62-10.32-10.33S11.06,7.05,16.76,7.05s10.33,4.62,10.33,10.32Z"/><path class="uuid-c936fa13-606a-4086-b3c4-81f675caa1bd" d="M109.73,17.89c0,5.7-4.62,10.32-10.32,10.32s-10.32-4.62-10.32-10.32,4.62-10.33,10.32-10.33,10.32,4.62,10.32,10.33Z"/><path class="uuid-3a407af7-c3aa-4091-965f-c877f60dfc00" d="M112.02,20.69c0,5.7-4.62,10.32-10.33,10.32s-10.32-4.62-10.32-10.32,4.62-10.32,10.32-10.32,10.33,4.62,10.33,10.32Z"/><path class="uuid-c936fa13-606a-4086-b3c4-81f675caa1bd" d="M146.45,28.86c0,5.7-4.62,10.32-10.33,10.32s-10.32-4.62-10.32-10.32,4.62-10.33,10.32-10.33,10.33,4.62,10.33,10.33Z"/><path class="uuid-3a407af7-c3aa-4091-965f-c877f60dfc00" d="M137.78,21.97c0,5.7-4.63,10.32-10.33,10.32s-10.32-4.62-10.32-10.32,4.62-10.33,10.32-10.33,10.33,4.62,10.33,10.33Z"/><path class="uuid-3a407af7-c3aa-4091-965f-c877f60dfc00" d="M146.97,43.14c0,5.7-4.62,10.32-10.33,10.32s-10.32-4.62-10.32-10.32,4.62-10.33,10.32-10.33,10.33,4.62,10.33,10.33Z"/><path class="uuid-3a407af7-c3aa-4091-965f-c877f60dfc00" d="M108.45,62.78c0,5.7-4.62,10.32-10.33,10.32s-10.33-4.62-10.33-10.32,4.62-10.33,10.33-10.33,10.33,4.62,10.33,10.33Z"/><path class="uuid-3a407af7-c3aa-4091-965f-c877f60dfc00" d="M87.89,38.96c0,5.7-4.62,10.32-10.33,10.32s-10.32-4.62-10.32-10.32,4.62-10.32,10.32-10.32,10.33,4.62,10.33,10.32Z"/><path class="uuid-3a407af7-c3aa-4091-965f-c877f60dfc00" d="M70.45,41.86c0,5.7-4.62,10.32-10.33,10.32s-10.32-4.62-10.32-10.32,4.62-10.32,10.32-10.32,10.33,4.62,10.33,10.32Z"/><path class="uuid-3a407af7-c3aa-4091-965f-c877f60dfc00" d="M26.07,52.83c0,5.7-4.62,10.33-10.33,10.33s-10.32-4.62-10.32-10.33,4.62-10.33,10.32-10.33,10.33,4.62,10.33,10.33Z"/><path class="uuid-3a407af7-c3aa-4091-965f-c877f60dfc00" d="M25.56,99.25c0,5.7-4.62,10.33-10.33,10.33s-10.32-4.62-10.32-10.33,4.62-10.33,10.32-10.33,10.33,4.62,10.33,10.33Z"/><path class="uuid-3a407af7-c3aa-4091-965f-c877f60dfc00" d="M27.41,125.28c0,5.7-4.62,10.33-10.32,10.33s-10.32-4.62-10.32-10.33,4.62-10.32,10.32-10.32,10.32,4.62,10.32,10.32Z"/><path class="uuid-3a407af7-c3aa-4091-965f-c877f60dfc00" d="M67.13,100.02c0,5.7-4.62,10.32-10.33,10.32s-10.32-4.62-10.32-10.32,4.62-10.32,10.32-10.32,10.33,4.62,10.33,10.32Z"/><path class="uuid-3a407af7-c3aa-4091-965f-c877f60dfc00" d="M58.21,98.49c0,5.7-4.62,10.32-10.33,10.32s-10.32-4.62-10.32-10.32,4.62-10.33,10.32-10.33,10.33,4.62,10.33,10.33Z"/><path class="uuid-3a407af7-c3aa-4091-965f-c877f60dfc00" d="M57.7,63.03c0,5.7-4.62,10.32-10.33,10.32s-10.32-4.62-10.32-10.32,4.62-10.33,10.32-10.33,10.33,4.62,10.33,10.33Z"/><path class="uuid-3a407af7-c3aa-4091-965f-c877f60dfc00" d="M92.13,110.98c0,5.7-4.62,10.33-10.32,10.33s-10.32-4.62-10.32-10.33,4.62-10.32,10.32-10.32,10.32,4.62,10.32,10.32Z"/><path class="uuid-5ad7c79c-02b9-4de2-af8c-5a116870df0b" d="M97.48,84.97c0,5.7-4.62,10.32-10.32,10.32s-10.32-4.62-10.32-10.32,4.62-10.33,10.32-10.33,10.32,4.62,10.32,10.33Z"/><path class="uuid-c936fa13-606a-4086-b3c4-81f675caa1bd" d="M28.11,134.45c0,5.7-4.62,10.33-10.33,10.33s-10.32-4.62-10.32-10.33,4.62-10.32,10.32-10.32,10.33,4.62,10.33,10.32Z"/><path class="uuid-3a407af7-c3aa-4091-965f-c877f60dfc00" d="M146.63,77.59c0,5.7-4.62,10.33-10.33,10.33s-10.32-4.62-10.32-10.33,4.62-10.33,10.32-10.33,10.33,4.62,10.33,10.33Z"/><path class="uuid-3a407af7-c3aa-4091-965f-c877f60dfc00" d="M82.87,129.11c0,5.7-4.62,10.33-10.33,10.33s-10.32-4.62-10.32-10.33,4.62-10.32,10.32-10.32,10.33,4.62,10.33,10.32Z"/><path class="uuid-3a407af7-c3aa-4091-965f-c877f60dfc00" d="M122.91,122.99c0,5.7-4.62,10.32-10.33,10.32s-10.32-4.62-10.32-10.32,4.62-10.33,10.32-10.33,10.33,4.62,10.33,10.33Z"/><path class="uuid-c936fa13-606a-4086-b3c4-81f675caa1bd" d="M123.42,42.39c0,5.7-4.62,10.33-10.33,10.33s-10.32-4.62-10.32-10.33,4.62-10.33,10.32-10.33,10.33,4.62,10.33,10.33Z"/><path class="uuid-c936fa13-606a-4086-b3c4-81f675caa1bd" d="M124.19,30.15c0,5.7-4.62,10.32-10.33,10.32s-10.32-4.62-10.32-10.32,4.62-10.33,10.32-10.33,10.33,4.62,10.33,10.33Z"/><path class="uuid-025df22f-8332-4b18-a340-5cde6ae43d3a" d="M44.53,16.1c0,5.7-4.62,10.32-10.33,10.32s-10.33-4.62-10.33-10.32,4.62-10.33,10.33-10.33,10.33,4.62,10.33,10.33Z"/><path class="uuid-025df22f-8332-4b18-a340-5cde6ae43d3a" d="M64.3,16.11c0,5.7-4.62,10.32-10.32,10.32s-10.32-4.62-10.32-10.32,4.62-10.33,10.32-10.33,10.32,4.62,10.32,10.33Z"/><path class="uuid-025df22f-8332-4b18-a340-5cde6ae43d3a" d="M136.22,17.63c0,5.7-4.62,10.32-10.32,10.32s-10.33-4.62-10.33-10.32,4.62-10.33,10.33-10.33,10.32,4.62,10.32,10.33Z"/><path class="uuid-025df22f-8332-4b18-a340-5cde6ae43d3a" d="M44.4,135.47c0,5.71-4.62,10.33-10.33,10.33s-10.33-4.62-10.33-10.33,4.62-10.32,10.33-10.32,10.33,4.62,10.33,10.32Z"/><path class="uuid-025df22f-8332-4b18-a340-5cde6ae43d3a" d="M45.79,63.13c0,5.7-4.62,10.33-10.32,10.33s-10.32-4.62-10.32-10.33,4.62-10.32,10.32-10.32,10.32,4.62,10.32,10.32Z"/><path class="uuid-025df22f-8332-4b18-a340-5cde6ae43d3a" d="M39.3,52.51c0,5.7-4.62,10.32-10.33,10.32s-10.32-4.62-10.32-10.32,4.62-10.33,10.32-10.33,10.33,4.62,10.33,10.33Z"/><path class="uuid-025df22f-8332-4b18-a340-5cde6ae43d3a" d="M87.3,115.27c0,5.7-4.62,10.33-10.33,10.33s-10.32-4.62-10.32-10.33,4.62-10.33,10.32-10.33,10.33,4.63,10.33,10.33Z"/><path class="uuid-025df22f-8332-4b18-a340-5cde6ae43d3a" d="M87.49,87.42c0,5.7-4.62,10.33-10.32,10.33s-10.32-4.62-10.32-10.33,4.62-10.32,10.32-10.32,10.32,4.62,10.32,10.32Z"/><path class="uuid-025df22f-8332-4b18-a340-5cde6ae43d3a" d="M84.35,75.4c0,5.7-4.62,10.32-10.32,10.32s-10.32-4.62-10.32-10.32,4.62-10.33,10.32-10.33,10.32,4.62,10.32,10.33Z"/><path class="uuid-025df22f-8332-4b18-a340-5cde6ae43d3a" d="M61.94,90.74c0,5.71-4.62,10.32-10.32,10.32s-10.32-4.62-10.32-10.32,4.62-10.32,10.32-10.32,10.32,4.62,10.32,10.32Z"/><path class="uuid-025df22f-8332-4b18-a340-5cde6ae43d3a" d="M114.33,75.42c0,5.7-4.62,10.33-10.33,10.33s-10.32-4.62-10.32-10.33,4.62-10.33,10.32-10.33,10.33,4.62,10.33,10.33Z"/><path class="uuid-025df22f-8332-4b18-a340-5cde6ae43d3a" d="M125.56,102.97c0,5.7-4.63,10.33-10.33,10.33s-10.32-4.62-10.32-10.33,4.62-10.33,10.32-10.33,10.33,4.62,10.33,10.33Z"/><path class="uuid-025df22f-8332-4b18-a340-5cde6ae43d3a" d="M123.34,128.21c0,5.7-4.62,10.32-10.33,10.32s-10.32-4.62-10.32-10.32,4.62-10.33,10.32-10.33,10.33,4.62,10.33,10.33Z"/><path class="uuid-3a407af7-c3aa-4091-965f-c877f60dfc00" d="M119.16,129.86c0,5.7-4.62,10.32-10.33,10.32s-10.32-4.62-10.32-10.32,4.62-10.33,10.32-10.33,10.33,4.62,10.33,10.33Z"/><path class="uuid-572c72b4-3e30-42ca-83de-20c88ef0812a" d="M91.33,134.9c0,5.7-4.62,10.32-10.33,10.32s-10.32-4.63-10.32-10.32,4.62-10.32,10.32-10.32,10.33,4.62,10.33,10.32Z"/><path class="uuid-025df22f-8332-4b18-a340-5cde6ae43d3a" d="M99.75,130.37c0,5.7-4.62,10.33-10.33,10.33s-10.32-4.62-10.32-10.33,4.62-10.32,10.32-10.32,10.33,4.62,10.33,10.32Z"/><path class="uuid-572c72b4-3e30-42ca-83de-20c88ef0812a" d="M67.1,127.53c0,5.7-4.62,10.33-10.32,10.33s-10.32-4.62-10.32-10.33,4.62-10.32,10.32-10.32,10.32,4.62,10.32,10.32Z"/><path class="uuid-025df22f-8332-4b18-a340-5cde6ae43d3a" d="M56.39,134.45c0,5.7-4.62,10.33-10.32,10.33s-10.33-4.63-10.33-10.33,4.62-10.32,10.33-10.32,10.32,4.62,10.32,10.32Z"/><path class="uuid-5ad7c79c-02b9-4de2-af8c-5a116870df0b" d="M45.05,121.53c0,5.7-4.62,10.33-10.33,10.33s-10.32-4.62-10.32-10.33,4.62-10.32,10.32-10.32,10.33,4.62,10.33,10.32Z"/><path class="uuid-572c72b4-3e30-42ca-83de-20c88ef0812a" d="M44.74,87.65c0,5.7-4.62,10.33-10.33,10.33s-10.32-4.62-10.32-10.33,4.62-10.33,10.32-10.33,10.33,4.62,10.33,10.33Z"/><path class="uuid-3a407af7-c3aa-4091-965f-c877f60dfc00" d="M44.43,82.42c0,5.7-4.62,10.32-10.33,10.32s-10.32-4.62-10.32-10.32,4.62-10.33,10.32-10.33,10.33,4.62,10.33,10.33Z"/><path class="uuid-572c72b4-3e30-42ca-83de-20c88ef0812a" d="M44.48,36.13c0,5.7-4.62,10.33-10.33,10.33s-10.32-4.62-10.32-10.33,4.62-10.32,10.32-10.32,10.33,4.62,10.33,10.32Z"/><path class="uuid-572c72b4-3e30-42ca-83de-20c88ef0812a" d="M112.84,50.67c0,5.7-4.62,10.32-10.33,10.32s-10.32-4.62-10.32-10.32,4.62-10.33,10.32-10.33,10.33,4.62,10.33,10.33Z"/><path class="uuid-3a407af7-c3aa-4091-965f-c877f60dfc00" d="M111,52.58c0,5.7-4.63,10.32-10.33,10.32s-10.33-4.62-10.33-10.32,4.62-10.33,10.33-10.33,10.33,4.62,10.33,10.33Z"/><path class="uuid-5ad7c79c-02b9-4de2-af8c-5a116870df0b" d="M145.31,123.05c0,5.7-4.62,10.32-10.33,10.32s-10.32-4.62-10.32-10.32,4.62-10.33,10.32-10.33,10.33,4.62,10.33,10.33Z"/><path class="uuid-3a407af7-c3aa-4091-965f-c877f60dfc00" d="M136.63,132.39c0,5.7-4.62,10.32-10.32,10.32s-10.33-4.62-10.33-10.32,4.62-10.33,10.33-10.33,10.32,4.62,10.32,10.33Z"/><path class="uuid-5ad7c79c-02b9-4de2-af8c-5a116870df0b" d="M65.47,73.31c0,5.7-4.62,10.33-10.33,10.33s-10.32-4.62-10.32-10.33,4.62-10.32,10.32-10.32,10.33,4.62,10.33,10.32Z"/><path class="uuid-5ad7c79c-02b9-4de2-af8c-5a116870df0b" d="M72.16,82.14c0,5.7-4.62,10.32-10.33,10.32s-10.32-4.62-10.32-10.32,4.62-10.32,10.32-10.32,10.33,4.62,10.33,10.32Z"/><path class="uuid-5ad7c79c-02b9-4de2-af8c-5a116870df0b" d="M83.43,22.78c0,5.7-4.62,10.33-10.33,10.33s-10.32-4.62-10.32-10.33,4.62-10.32,10.32-10.32,10.33,4.62,10.33,10.32Z"/><path class="uuid-5ad7c79c-02b9-4de2-af8c-5a116870df0b" d="M131.52,107.71c0,5.7-4.62,10.32-10.33,10.32s-10.32-4.62-10.32-10.32,4.62-10.33,10.32-10.33,10.33,4.62,10.33,10.33Z"/><path class="uuid-572c72b4-3e30-42ca-83de-20c88ef0812a" d="M66.34,50.25c0,5.7-4.62,10.32-10.32,10.32s-10.32-4.62-10.32-10.32,4.62-10.32,10.32-10.32,10.32,4.62,10.32,10.32Z"/><path class="uuid-3a407af7-c3aa-4091-965f-c877f60dfc00" d="M57.07,20.77c0,5.7-4.62,10.33-10.33,10.33s-10.32-4.62-10.32-10.33,4.62-10.33,10.32-10.33,10.33,4.62,10.33,10.33Z"/><path class="uuid-025df22f-8332-4b18-a340-5cde6ae43d3a" d="M66.27,39.22c0,5.7-4.62,10.33-10.32,10.33s-10.32-4.62-10.32-10.33,4.62-10.32,10.32-10.32,10.32,4.62,10.32,10.32Z"/><path class="uuid-5ad7c79c-02b9-4de2-af8c-5a116870df0b" d="M134.19,62.67c0,5.7-4.62,10.32-10.33,10.32s-10.32-4.62-10.32-10.32,4.62-10.32,10.32-10.32,10.33,4.62,10.33,10.32Z"/><path class="uuid-5ad7c79c-02b9-4de2-af8c-5a116870df0b" d="M91.27,46.54c0,5.7-4.62,10.33-10.33,10.33s-10.32-4.62-10.32-10.33,4.62-10.32,10.32-10.32,10.33,4.62,10.33,10.32Z"/><path class="uuid-025df22f-8332-4b18-a340-5cde6ae43d3a" d="M107.75,98.26c0,5.7-4.62,10.32-10.33,10.32s-10.32-4.62-10.32-10.32,4.62-10.33,10.32-10.33,10.33,4.62,10.33,10.33Z"/><path class="uuid-572c72b4-3e30-42ca-83de-20c88ef0812a" d="M105.2,114.3c0,5.7-4.62,10.32-10.33,10.32s-10.32-4.62-10.32-10.32,4.62-10.32,10.32-10.32,10.33,4.62,10.33,10.32Z"/><path class="uuid-572c72b4-3e30-42ca-83de-20c88ef0812a" d="M61.15,113.29c0,5.7-4.62,10.32-10.33,10.32s-10.32-4.62-10.32-10.32,4.62-10.33,10.32-10.33,10.33,4.62,10.33,10.33Z"/><path class="uuid-5ad7c79c-02b9-4de2-af8c-5a116870df0b" d="M145.02,85.06c0,5.7-4.62,10.33-10.32,10.33s-10.33-4.62-10.33-10.33,4.62-10.32,10.33-10.32,10.32,4.62,10.32,10.32Z"/><path class="uuid-572c72b4-3e30-42ca-83de-20c88ef0812a" d="M81.85,101.42c0,5.7-4.62,10.33-10.33,10.33s-10.32-4.62-10.32-10.33,4.62-10.33,10.32-10.33,10.33,4.62,10.33,10.33Z"/><path class="uuid-572c72b4-3e30-42ca-83de-20c88ef0812a" d="M39.27,101.71c0,5.7-4.62,10.32-10.33,10.32s-10.32-4.62-10.32-10.32,4.62-10.33,10.32-10.33,10.33,4.62,10.33,10.33Z"/><path class="uuid-572c72b4-3e30-42ca-83de-20c88ef0812a" d="M26.09,44.08c0,5.7-4.62,10.33-10.33,10.33s-10.32-4.62-10.32-10.33,4.62-10.32,10.32-10.32,10.33,4.62,10.33,10.32Z"/><path class="uuid-5ad7c79c-02b9-4de2-af8c-5a116870df0b" d="M112.25,124.08c0,5.7-4.62,10.33-10.32,10.33s-10.33-4.63-10.33-10.33,4.62-10.32,10.33-10.32,10.32,4.62,10.32,10.32Z"/><path class="uuid-5ad7c79c-02b9-4de2-af8c-5a116870df0b" d="M138.58,126.33c0,5.7-4.62,10.33-10.33,10.33s-10.32-4.63-10.32-10.33,4.62-10.32,10.32-10.32,10.33,4.62,10.33,10.32Z"/><path class="uuid-3a407af7-c3aa-4091-965f-c877f60dfc00" d="M134.61,100.09c0,5.7-4.62,10.33-10.33,10.33s-10.32-4.63-10.32-10.33,4.62-10.32,10.32-10.32,10.33,4.62,10.33,10.32Z"/><path class="uuid-5ad7c79c-02b9-4de2-af8c-5a116870df0b" d="M139.87,51.36c0,5.7-4.62,10.33-10.33,10.33s-10.32-4.62-10.32-10.33,4.62-10.33,10.32-10.33,10.33,4.62,10.33,10.33Z"/><path class="uuid-3a407af7-c3aa-4091-965f-c877f60dfc00" d="M28.95,104.17c0,5.7-4.62,10.33-10.33,10.33s-10.32-4.62-10.32-10.33,4.62-10.32,10.32-10.32,10.33,4.62,10.33,10.32Z"/><path class="uuid-3a407af7-c3aa-4091-965f-c877f60dfc00" d="M83.34,62.97c0,5.7-4.62,10.32-10.33,10.32s-10.32-4.62-10.32-10.32,4.62-10.33,10.32-10.33,10.33,4.62,10.33,10.33Z"/><path class="uuid-3a407af7-c3aa-4091-965f-c877f60dfc00" d="M73.61,76.74c0,5.7-4.62,10.32-10.33,10.32s-10.32-4.62-10.32-10.32,4.62-10.33,10.32-10.33,10.33,4.62,10.33,10.33Z"/><path class="uuid-3a407af7-c3aa-4091-965f-c877f60dfc00" d="M132.84,64.11c0,5.7-4.62,10.33-10.32,10.33s-10.33-4.62-10.33-10.33,4.62-10.32,10.33-10.32,10.32,4.62,10.32,10.32Z"/><path class="uuid-025df22f-8332-4b18-a340-5cde6ae43d3a" d="M77.83,35.24c0,5.7-4.62,10.33-10.33,10.33s-10.32-4.62-10.32-10.33,4.62-10.32,10.32-10.32,10.33,4.62,10.33,10.32Z"/><path class="uuid-5ad7c79c-02b9-4de2-af8c-5a116870df0b" d="M45.17,47.29c0,5.7-4.62,10.33-10.33,10.33s-10.33-4.62-10.33-10.33,4.62-10.32,10.33-10.32,10.33,4.62,10.33,10.32Z"/><path class="uuid-3a407af7-c3aa-4091-965f-c877f60dfc00" d="M97.49,126.67c0,5.7-4.62,10.32-10.33,10.32s-10.32-4.62-10.32-10.32,4.62-10.33,10.32-10.33,10.33,4.62,10.33,10.33Z"/><path class="uuid-3a407af7-c3aa-4091-965f-c877f60dfc00" d="M49.32,73.75c0,5.7-4.62,10.33-10.33,10.33s-10.32-4.62-10.32-10.33,4.62-10.32,10.32-10.32,10.33,4.62,10.33,10.32Z"/><path class="uuid-3a407af7-c3aa-4091-965f-c877f60dfc00" d="M117.75,77.29c0,5.7-4.63,10.32-10.33,10.32s-10.32-4.62-10.32-10.32,4.62-10.33,10.32-10.33,10.33,4.62,10.33,10.33Z"/><path class="uuid-3a407af7-c3aa-4091-965f-c877f60dfc00" d="M102.41,72.57c0,5.7-4.62,10.33-10.33,10.33s-10.32-4.62-10.32-10.33,4.62-10.32,10.32-10.32,10.33,4.62,10.33,10.32Z"/></g><g><path class="uuid-3a7ce28e-c1c8-40ea-ae79-d40d4f6ba902" d="M133.92,51.64l-.78-.39-2.08,.13c-3.51,.69-6.67,1.58-9.49,2.67l-5.65,2.4-2.67-1.43c-6.24-3.12-13.31-4.79-21.1-5.22-5.9-.32-7.66-.36-13.08,.56-1.05,.2-4.76,1.84-5.65,2.3-.03,.01-.06,.02-.09,.03h-.01c-1.55,.84-2.86,2.06-3.92,3.7l-2.6,4.61c-1.34,2.51-2.6,4.44-3.77,5.79-1.39,1.6-3.4,3.31-6.05,5.13-5.07,3.55-9.88,5.35-14.43,5.4-6.81-.09-10.16-3.42-10.08-10.01,0-5.76,1.99-12.24,5.98-19.43,3.38-6.07,7.67-11.38,12.87-15.93l3.77-3.12,3.64,2.54c6.59,4.2,13.91,6.3,21.97,6.3,5.89,.09,11.2-1.23,15.92-3.96,6.11-3.47,9.21-7.78,9.29-12.94,.09-4.81-3.1-7.84-9.55-9.1-1.91-.39-3.77-.59-5.59-.59-5.37,.04-11.01,.95-16.9,2.73-5.29,1.65-10.33,3.75-15.15,6.31l-4.42,2.47-1.17-2.41c-.61-1.52-.91-3.29-.91-5.33,.04-4.9,1.71-8.69,5-11.38l.65-.58c.26-.3,.41-.63,.45-.97,.04-.35-.07-.59-.33-.72l-.71-.19c-.43,.04-.87,.22-1.3,.52-4.29,3.34-6.46,8.04-6.5,14.1,0,2.82,.5,5.18,1.49,7.08l.91,1.56-2.28,1.56c-9.88,6.93-17.16,14.93-21.84,23.99-2.64,5.03-3.94,10.32-3.9,15.86-.04,4.59,1.28,8.25,3.96,10.98,2.91,2.95,6.5,4.42,10.79,4.42,5.5,.04,11.03-1.62,16.58-5.01l2.73-1.69c-3.08,4.59-5.89,8.54-8.45,11.83-5.94,7.71-12.03,13.09-18.26,16.12-2.82,1.39-5.83,2.06-9.04,2.01-3.81,0-7.06-.98-9.75-2.92-3.25-2.3-4.85-5.2-4.81-8.71l.2-2.08,1.11,.32c1.26,.09,2.32-.43,3.18-1.56,.87-1.12,1.3-2.38,1.3-3.77,.04-3.77-1.73-5.68-5.33-5.72-2.34,0-4.2,1.06-5.59,3.19-1.17,1.82-1.73,3.92-1.69,6.3-.04,5.25,1.99,9.62,6.11,13.13,3.6,3.03,8.23,4.55,13.91,4.55,4.42,0,8.95-.8,13.58-2.41,4.81-1.65,9.19-3.9,13.13-6.76,6.33-4.55,12.67-11.74,19.04-21.58l2.41-3.9,2.28-4.03,2.27-3.71c5.37-9.62,6.69-9.54,6.69-9.61,2.93-2.03,4.99-2.02,10.13-2.03,7.63,0,13.71,1.82,18.26,5.46l2.02,1.82-1.95,1.24c-6.97,4.94-17.03,17.92-30.16,38.93l-13.39,21.52-5.07,7.28c-3.86,5.24-8.04,9.12-12.55,11.63-2.77,1.6-6.07,2.38-9.88,2.34-3.25,.04-6.57-1-9.94-3.12l1.82-.26c2.21-.56,3.32-2.21,3.32-4.94,0-1.52-.53-2.86-1.59-4.03-1.06-1.17-2.4-1.76-4-1.76-3.86,.04-5.81,2.14-5.85,6.31-.09,3.6,1.73,6.33,5.46,8.19,3.03,1.56,6.39,2.33,10.07,2.33,8.71,0,17.59-3.88,26.65-11.63,4.29-3.6,8.15-7.63,11.57-12.09,1.6-2.04,3.18-4.27,4.74-6.7,1.78-2.73,4.29-6.98,7.54-12.74l9.16-15.99,4.35-7.08c3.08-4.77,6.24-8.86,9.49-12.29l4.36-4.36c2.47,3.6,3.7,6.87,3.7,9.82,0,4.81-1.46,9.46-4.39,13.94-2.92,4.48-6.71,7.57-11.34,9.26-1.56,.56-3.04,.93-4.42,1.1l-3.45,.26c-.69,.04-1.19,.15-1.5,.33l-.39,.45-.13,.78,.2,.84,.26,.39c.26,.22,.78,.35,1.56,.39l3.57,.39c2.43,.48,4.66,1.3,6.7,2.47,4.29,2.65,6.43,6.76,6.43,12.35-.04,6.54-2.21,12.57-6.5,18.07-4.81,6.16-10.25,9.25-16.31,9.3-2.51,0-4.62-.69-6.31-2.08-1.91-1.56-2.88-3.51-2.92-5.85-.04-1.47,.5-3.21,1.62-5.2l1.11-2.01c.26-.52,.41-1.04,.45-1.56l-.32-.78-.84-.78c-.56-.26-1.21-.41-1.95-.45-2.38,.04-4.42,1.11-6.11,3.18-1.69,2.08-2.54,4.33-2.54,6.76,.04,3.38,1.93,6.26,5.66,8.64,3.03,1.91,6.45,2.86,10.27,2.86,5.29,.05,10.46-1.37,15.53-4.26,5.07-2.88,9.21-6.69,12.42-11.4,3.47-5.03,5.24-10.31,5.33-15.86,0-2.73-.64-5.38-1.92-7.96-1.28-2.58-3.15-4.63-5.62-6.14-1.34-.82-2.97-1.69-4.88-2.6l4.55-1.75c4.12-1.82,7.54-4.57,10.27-8.26,2.99-3.99,4.48-8.12,4.48-12.41s-1.39-8.49-4.16-12.09l-3.18-3.71,1.69-1.17c3.33-2.21,7.1-3.68,11.31-4.42,.52-.04,.93-.19,1.24-.46l.39-.52v-.72l-.46-.65ZM61.01,24.42c6.37-4.16,13.02-7.26,19.96-9.29,2.95-.82,5.85-1.26,8.71-1.3,6.2,0,9.34,2.11,9.42,6.31-.13,4.29-2.45,7.66-6.95,10.11-4.51,2.45-9.4,3.67-14.69,3.67-6.46-.04-11.98-1.64-16.57-4.81l-3.19-2.47,3.32-2.21Z"/><path class="uuid-293be40c-dfdf-4719-bdc0-5cb71a425485" d="M133.11,50.62l-.78-.39-2.08,.13c-3.51,.69-6.67,1.58-9.49,2.66l-5.66,2.41-2.66-1.43c-6.24-3.12-13.31-4.79-21.1-5.22-5.89-.32-7.66-.36-13.08,.56-1.06,.2-4.76,1.85-5.65,2.31-.03,.01-.06,.02-.09,.03h-.01c-1.55,.84-2.86,2.06-3.91,3.7l-2.6,4.62c-1.34,2.51-2.6,4.44-3.77,5.78-1.39,1.6-3.4,3.31-6.05,5.14-5.07,3.55-9.88,5.35-14.43,5.39-6.8-.09-10.16-3.42-10.08-10.01,0-5.76,1.99-12.24,5.98-19.44,3.38-6.07,7.67-11.38,12.87-15.92l3.77-3.12,3.64,2.54c6.59,4.2,13.91,6.3,21.97,6.3,5.9,.09,11.2-1.23,15.93-3.97,6.11-3.46,9.21-7.78,9.29-12.93,.09-4.81-3.1-7.84-9.55-9.1-1.91-.39-3.77-.58-5.59-.58-5.37,.04-11.01,.95-16.9,2.73-5.29,1.65-10.33,3.75-15.15,6.31l-4.42,2.47-1.17-2.41c-.61-1.51-.91-3.29-.91-5.33,.04-4.89,1.71-8.69,5-11.38l.65-.58c.26-.3,.41-.63,.45-.98,.04-.34-.07-.58-.33-.71l-.71-.19c-.44,.04-.87,.22-1.3,.52-4.29,3.34-6.46,8.04-6.5,14.1,0,2.82,.5,5.18,1.49,7.09l.91,1.56-2.28,1.56c-9.88,6.93-17.16,14.93-21.84,23.99-2.64,5.03-3.94,10.31-3.9,15.86-.04,4.59,1.28,8.25,3.97,10.98,2.9,2.95,6.5,4.42,10.79,4.42,5.5,.04,11.03-1.62,16.57-5.01l2.73-1.69c-3.08,4.59-5.89,8.54-8.45,11.83-5.94,7.71-12.03,13.09-18.26,16.12-2.82,1.39-5.83,2.06-9.04,2.01-3.81,0-7.06-.97-9.75-2.92-3.25-2.29-4.85-5.2-4.81-8.71l.19-2.08,1.1,.32c1.26,.09,2.32-.43,3.19-1.56,.87-1.13,1.3-2.38,1.3-3.77,.04-3.77-1.73-5.67-5.33-5.72-2.34,0-4.2,1.06-5.59,3.18C.52,83.91-.04,86.02,0,88.4c-.04,5.24,1.99,9.62,6.11,13.13,3.6,3.03,8.23,4.55,13.91,4.55,4.42,0,8.95-.8,13.58-2.4,4.81-1.65,9.19-3.9,13.13-6.76,6.33-4.55,12.67-11.74,19.04-21.58l2.41-3.9,2.27-4.03,2.27-3.72c5.37-9.62,6.69-9.54,6.69-9.61,2.93-2.03,4.99-2.02,10.13-2.03,7.63,0,13.71,1.82,18.26,5.46l2.02,1.82-1.95,1.24c-6.98,4.94-17.03,17.92-30.16,38.94l-13.39,21.51-5.07,7.28c-3.86,5.24-8.04,9.12-12.55,11.63-2.77,1.61-6.07,2.39-9.88,2.34-3.25,.04-6.56-1-9.94-3.12l1.82-.26c2.21-.56,3.31-2.21,3.31-4.94,0-1.52-.53-2.86-1.59-4.03-1.06-1.17-2.39-1.76-4-1.76-3.86,.05-5.81,2.15-5.85,6.31-.09,3.6,1.73,6.33,5.46,8.19,3.03,1.56,6.39,2.34,10.07,2.34,8.71,0,17.59-3.88,26.65-11.64,4.29-3.6,8.15-7.63,11.57-12.09,1.6-2.04,3.19-4.27,4.74-6.7,1.78-2.73,4.29-6.98,7.54-12.74l9.16-15.99,4.35-7.09c3.08-4.77,6.24-8.86,9.49-12.28l4.36-4.36c2.47,3.6,3.71,6.87,3.71,9.82,0,4.81-1.46,9.46-4.39,13.94-2.93,4.48-6.71,7.57-11.34,9.26-1.56,.56-3.03,.93-4.42,1.1l-3.44,.26c-.69,.04-1.19,.15-1.5,.33l-.39,.45-.13,.78,.19,.85,.26,.39c.26,.22,.78,.35,1.56,.39l3.58,.39c2.43,.48,4.66,1.3,6.7,2.47,4.29,2.64,6.43,6.76,6.43,12.35-.04,6.54-2.21,12.57-6.5,18.07-4.81,6.15-10.25,9.25-16.32,9.29-2.51,0-4.61-.69-6.3-2.08-1.91-1.56-2.88-3.51-2.92-5.85-.05-1.47,.5-3.2,1.62-5.2l1.11-2.02c.26-.52,.41-1.04,.45-1.56l-.33-.78-.84-.78c-.56-.26-1.21-.41-1.95-.46-2.38,.04-4.42,1.11-6.11,3.19-1.69,2.08-2.53,4.33-2.53,6.76,.04,3.38,1.93,6.26,5.65,8.65,3.03,1.91,6.46,2.86,10.27,2.86,5.29,.04,10.46-1.38,15.53-4.26,5.07-2.88,9.21-6.68,12.42-11.4,3.47-5.03,5.24-10.31,5.33-15.86,0-2.73-.64-5.38-1.92-7.96-1.28-2.58-3.15-4.62-5.62-6.14-1.35-.82-2.97-1.69-4.88-2.6l4.55-1.75c4.12-1.82,7.54-4.57,10.27-8.25,2.99-3.99,4.48-8.13,4.48-12.42s-1.39-8.49-4.16-12.09l-3.18-3.7,1.69-1.17c3.34-2.21,7.11-3.68,11.31-4.42,.52-.04,.93-.2,1.24-.46l.39-.52v-.71l-.45-.65ZM60.19,23.4c6.37-4.16,13.02-7.26,19.96-9.3,2.95-.82,5.85-1.26,8.71-1.3,6.19,0,9.34,2.1,9.42,6.31-.13,4.29-2.45,7.66-6.95,10.11-4.51,2.45-9.4,3.67-14.69,3.67-6.46-.04-11.98-1.64-16.57-4.81l-3.19-2.47,3.31-2.21Z"/></g></g></g></g></svg>