<svg id="b5f790c7-edc8-48da-ad8a-0c6de9756bc1" data-name="Layer 1" xmlns="http://www.w3.org/2000/svg" viewBox="0 0 103.89 80">
  <defs>
    <style>
      .ff6a391e-bb48-4095-aba3-0901193cbd74 {
        fill: #516F8F;
      }

      .b8f5fe64-6603-4686-8c32-db9433b6308f {
        fill: #fff;
      }
    </style>
  </defs>
  <g>
    <g>
      <path class="ff6a391e-bb48-4095-aba3-0901193cbd74" d="M99.52,9.15c-9.64-7.33-20.94.13-31-1-10-1.45-19-11.55-30.19-6.93-7.23,3-8.73,13.55-8.14,24.37l.73-.43C34.63,23,38.78,20.5,43.81,20.5a15.71,15.71,0,0,1,3.66.43c6.27,1.51,9.68,7.76,10.12,18.6A95.46,95.46,0,0,1,56.4,56.71c2.11-2.64,4.31-4.37,6.38-4.1,7.29,1,10,26.5,9.78,27.39.16-.09,10-6.85,17.42-20.68C93.17,53.39,112.34,18.91,99.52,9.15Z"/>
      <path class="ff6a391e-bb48-4095-aba3-0901193cbd74" d="M46.69,24.19a12.7,12.7,0,0,0-2.88-.34c-7,0-12.36,6.12-18.71,7.8a20.92,20.92,0,0,1-4.84.47c-2.35,0-4.77-.21-7.16-.21-3.76,0-7.42.54-10.56,3.33C-6.16,43,10,64.28,13,67.83A56.58,56.58,0,0,0,27.12,80c-.18-.58,0-17.89,5.27-19.2a2.51,2.51,0,0,1,.67-.08c5.27,0,12.91,14,13,14.54a41.45,41.45,0,0,0,6.76-17.4C53.52,53.34,58,26.9,46.69,24.19Z"/>
    </g>
    <path class="b8f5fe64-6603-4686-8c32-db9433b6308f" d="M67.52,12.56C74,16.3,86.17,11.21,92.3,16.37c6.47,5.44,5.22,12.06,2.92,19.34C100.65,25.4,101,17.16,97,12.88c-2.62-2.83-8.61-2.21-15.21-1C77.09,12.67,72,13.47,67.52,12.56Z"/>
    <path class="b8f5fe64-6603-4686-8c32-db9433b6308f" d="M30.54,34.55C25.82,38.61,15,36.22,10.73,41.41c-4.49,5.49-2.47,10.8.53,16.49-6-7.74-7.54-14.54-4.93-18.68,1.73-2.74,6.75-3.12,12.35-3.14C22.69,36.07,27,36,30.54,34.55Z"/>
  </g>
</svg>
