<svg id="a5ee7daa-d98a-43c6-b3b0-e54738ef57c0" data-name="Layer 1" xmlns="http://www.w3.org/2000/svg" viewBox="0 0 80 80">
  <defs>
    <style>
      .ad242d07-77d7-4467-8be5-1d70b9d603ea {
        fill: #516F8F;
      }

      .e077183e-8074-45d4-a710-d73df2c993f2 {
        fill: #fff;
      }
    </style>
  </defs>
  <g>
    <g>
      <polygon class="ad242d07-77d7-4467-8be5-1d70b9d603ea" points="11.87 15 13.94 20.92 20 22.95 13.94 24.98 11.87 30.89 9.8 24.98 3.74 22.95 9.8 20.92 11.87 15"/>
      <polygon class="ad242d07-77d7-4467-8be5-1d70b9d603ea" points="19.11 6.44 20.18 9.56 23.3 10.63 20.18 11.7 19.11 14.82 18.05 11.7 14.92 10.63 18.05 9.56 19.11 6.44"/>
      <polygon class="ad242d07-77d7-4467-8be5-1d70b9d603ea" points="12.28 -0.4 13.15 2.14 15.69 3.01 13.15 3.88 12.28 6.42 11.41 3.88 8.87 3.01 11.41 2.14 12.28 -0.4"/>
    </g>
    <g>
      <path class="ad242d07-77d7-4467-8be5-1d70b9d603ea" d="M68.45,20.22c-6.69-3.11-41.39-9.82-43.26,1.46C24.73,24.43,25,32.09,25,35.76a12.09,12.09,0,0,0,.2,2.28c.84,14.4,3,29.12,6.24,40.71,1-7.45,12.74-21.25,21.43-19,8,2,13.93,13.08,17.05,19.88,1.58-12.32.43-25.28,2.88-37.49C74.76,32.23,78.15,24.73,68.45,20.22Z"/>
      <g>
        <path class="e077183e-8074-45d4-a710-d73df2c993f2" d="M37.32,27.66c1.87-.39,3.74,3.43,4.08,6a6.45,6.45,0,0,0-5.55-1.94,16.76,16.76,0,0,0-4.29,2S33.27,29.22,37.32,27.66Z"/>
        <path class="e077183e-8074-45d4-a710-d73df2c993f2" d="M61.15,29.09c1.87-.39,3.74,3.43,4.09,6a6.47,6.47,0,0,0-5.56-1.94,16.76,16.76,0,0,0-4.29,2S57.1,30.65,61.15,29.09Z"/>
        <path class="e077183e-8074-45d4-a710-d73df2c993f2" d="M33.55,41.52a187.74,187.74,0,0,0,28.07-.1c-4.11,3-7.86,8.85-12.42,9.15C42.53,51,37.6,43.22,33.55,41.52Z"/>
      </g>
    </g>
  </g>
</svg>
