<svg id="f57a08e8-cc9e-4c71-9faf-efc5f0280564" data-name="Layer 1" xmlns="http://www.w3.org/2000/svg" viewBox="0 0 80 80">
  <defs>
    <style>
      .f61a1165-cc90-4d9c-b0c5-e03592d9a5ae {
        fill: #516F8F;
      }
    </style>
  </defs>
  <g>
    <path class="f61a1165-cc90-4d9c-b0c5-e03592d9a5ae" d="M62.71,4.83A9.64,9.64,0,0,1,68,6.37c3.81,2.38,4.73,12,2.46,25.74A177.15,177.15,0,0,1,63.1,60.38a58.84,58.84,0,0,1-3.28,7c-3.7-12.94-11.14-21.25-19.89-21.25S23.81,54.39,20.09,67.24a59.7,59.7,0,0,1-3.19-6.85A177.7,177.7,0,0,1,9.51,32.11C7.24,18.37,8.16,8.75,12,6.37a9.58,9.58,0,0,1,5.31-1.54c3.08,0,6.45,1.21,10,2.49,4,1.44,8.15,2.92,12.61,3h.16c4.46-.07,8.6-1.55,12.61-3,3.57-1.28,7-2.49,10-2.49Zm0-4.83C55,0,47.47,5.36,40,5.48,32.53,5.36,25,0,17.28,0A14.52,14.52,0,0,0,9.41,2.26c-13.86,8.66.43,53.1,3,59.84A68.38,68.38,0,0,0,22.66,79.86C24.16,63.43,31.32,51,39.93,51S55.74,63.5,57.21,80A68.15,68.15,0,0,0,67.62,62.1c2.54-6.74,16.83-51.18,3-59.84A14.55,14.55,0,0,0,62.71,0Z"/>
    <path class="f61a1165-cc90-4d9c-b0c5-e03592d9a5ae" d="M60.2,58.91C55.59,48.35,48.29,38.36,39.93,38.36s-15.57,9.93-20.2,20.39c0-.1-.08-.2-.11-.3A170,170,0,0,1,12.51,31.2C10,16,12.21,10.87,13.18,10.27a7.29,7.29,0,0,1,4.1-1.17c2.72,0,5.92,1.15,9.31,2.36,4,1.43,7.76,4.88,13.39,4.88s9.45-3.45,13.43-4.88C56.8,10.25,60,9.1,62.71,9.1a7.4,7.4,0,0,1,4.11,1.17c1,.6,3.18,5.75.67,20.93a170.78,170.78,0,0,1-7.12,27.27C60.32,58.61,60.26,58.76,60.2,58.91Z"/>
  </g>
</svg>
