<svg id="aedcc247-a892-4bb3-9e85-422d1bdf89b4" data-name="Layer 1" xmlns="http://www.w3.org/2000/svg" viewBox="0 0 80 80">
  <defs>
    <style>
      .b1ab73b3-3d15-43f3-b386-e5fbdb7d73a0 {
        fill: #516F8F;
      }

      .b12508e0-cc5e-4a2b-9de8-aa2d4b138952 {
        fill: #fff;
      }
    </style>
  </defs>
  <g>
    <g>
      <path class="b1ab73b3-3d15-43f3-b386-e5fbdb7d73a0" d="M76.64,21.25c-7.43-5.65-16.13.1-23.85-.79-7.68-1.12-14.63-8.9-23.24-5.34-5.57,2.3-6.72,10.44-6.27,18.77l.56-.33c2.82-1.68,6-3.58,9.9-3.58a11.68,11.68,0,0,1,2.81.34c4.84,1.16,7.46,6,7.79,14.32a73.3,73.3,0,0,1-.91,13.23c1.62-2,3.32-3.37,4.91-3.16C54,55.44,56,75.11,55.88,75.8A47.56,47.56,0,0,0,69.29,59.88C71.74,55.31,86.51,28.76,76.64,21.25Z"/>
      <path class="b1ab73b3-3d15-43f3-b386-e5fbdb7d73a0" d="M36,32.83a9.6,9.6,0,0,0-2.21-.27c-5.41,0-9.52,4.72-14.41,6a16.4,16.4,0,0,1-3.73.37c-1.81,0-3.67-.17-5.51-.17-2.89,0-5.71.41-8.13,2.56-6.7,5.94,5.77,22.37,8,25.1a43.73,43.73,0,0,0,10.9,9.37c-.14-.44,0-13.77,4.06-14.79a2.24,2.24,0,0,1,.52-.06c4.06,0,9.94,10.76,10,11.2a31.74,31.74,0,0,0,5.2-13.4C41.22,55.27,44.66,34.92,36,32.83Z"/>
    </g>
    <path class="b12508e0-cc5e-4a2b-9de8-aa2d4b138952" d="M52,23.87c4.94,2.88,14.36-1,19.08,2.93,5,4.19,4,9.29,2.24,14.9,4.19-7.94,4.43-14.29,1.38-17.59-2-2.17-6.63-1.7-11.71-.8C59.36,24,55.42,24.57,52,23.87Z"/>
    <path class="b12508e0-cc5e-4a2b-9de8-aa2d4b138952" d="M23.52,40.8c-3.63,3.13-12,1.29-15.26,5.29-3.46,4.22-1.9,8.31.41,12.7C4,52.82,2.86,47.59,4.88,44.4,6.21,42.29,10.07,42,14.39,42,17.47,42,20.81,41.89,23.52,40.8Z"/>
  </g>
</svg>
