<svg id="b5b50ae5-6923-46e2-9d91-d1d88690b5ad" data-name="Layer 1" xmlns="http://www.w3.org/2000/svg" viewBox="0 0 80 80">
  <defs>
    <style>
      .bb020c2b-aaee-495c-96e5-23d32b48283c {
        fill: #516F8F;
      }
    </style>
  </defs>
  <g>
    <path class="bb020c2b-aaee-495c-96e5-23d32b48283c" d="M69,19.56l-3.94,4.35a53.42,53.42,0,0,1-.55,14.43A123.4,123.4,0,0,1,58,62.94l-.23.53A81.84,81.84,0,0,1,52.68,73.6l-.28.45-.22-.49c-.51-1.14-1-2.43-1.45-3.47-2.63-6.56-5.89-14.7-14.28-14.7S25,63.61,22.62,69.61c-.43,1.1-1,2.61-1.61,3.9l-.22.48-.28-.44a77.69,77.69,0,0,1-5.46-10.62A122.73,122.73,0,0,1,8.54,38.34c-2.66-17.75,1.86-21.68,3.3-22.46,4-2.17,14-3.63,24.68-3.63a106.59,106.59,0,0,1,13.77.85l4.52-3.57C41.09,7,18.06,7.59,9.35,12.28c-14,7.54-1.09,46.84,1.24,52.17,4.3,9.8,8,15.43,10.2,15.43,2.89,0,4.57-4.33,6.36-8.91,2.07-5.32,4.42-11.36,9.3-11.36S44,65.9,46.21,71.46C48,75.85,49.63,80,52.12,80c3.53,0,8.3-10.91,10.1-15l.23-.53C65,58.65,73,32.92,69,19.56Z"/>
    <polygon class="bb020c2b-aaee-495c-96e5-23d32b48283c" points="17.58 23.9 34.88 47.05 77.07 0 34.43 34.25 17.58 23.9"/>
  </g>
</svg>
