<svg data-name="Layer 1" xmlns="http://www.w3.org/2000/svg" viewBox="0 0 64 64" aria-hidden='true'>
  <path d="M4.27,13.57c-3.06,6.79-2.43,12.63,3.09,17.82l-5.52-1.58c.44,6.74,4.03,10.86,10.16,13.2l-5.15-.07c1.74,5.27,6.5,8.97,12.04,9.35-5.39,4.12-12.14,6.04-18.89,5.37,.2,.25,.44,.45,.72,.61,4.69,2.86,9.96,4.62,15.42,5.15,7.98,1.01,16.08-.69,22.97-4.84,11.91-7.36,17.85-18.41,18.41-32.3-.03-.96,.43-1.88,1.23-2.41,2.07-1.55,3.85-3.47,5.25-5.65-1.33,.44-2.37,.83-3.42,1.1s-2.14,.46-3.2,.68c2.2-1.76,3.85-4.1,4.79-6.76-2.45,.83-4.82,1.69-7.23,2.41-.54,.13-1.11,0-1.55-.33-3.51-3.47-8.71-4.6-13.34-2.91-4.65,1.35-8.07,5.3-8.74,10.09-.13,1.73-.13,3.46,0,5.19-10.58-.72-20.38-5.84-27.02-14.12"/>
</svg>
